<?xml version="1.0" encoding="utf-8"?>
<!-- Generator: Adobe Illustrator 16.0.4, SVG Export Plug-In . SVG Version: 6.00 Build 0)  -->
<!DOCTYPE svg PUBLIC "-//W3C//DTD SVG 1.1//EN" "http://www.w3.org/Graphics/SVG/1.1/DTD/svg11.dtd">
<svg version="1.1" id="Layer_1" xmlns="http://www.w3.org/2000/svg" xmlns:xlink="http://www.w3.org/1999/xlink" x="0px" y="0px"
	 width="320px" height="322.543px" viewBox="0 0 320 322.543" enable-background="new 0 0 320 322.543" xml:space="preserve">
<title>Artboard 1</title>
<rect fill="#500000" width="320" height="322.543"/>
<polygon fill="#FFFFFF" points="277.51,128.374 253.742,128.374 252.373,128.374 251.752,129.617 234.523,165.494 217.227,129.6 
	216.621,128.374 215.254,128.374 192.283,128.374 190.115,128.374 190.115,130.56 190.115,142.791 190.115,144.978 192.283,144.978 
	196.213,144.978 196.213,196.356 191.965,196.356 189.779,196.356 189.779,198.542 189.779,210.773 189.779,212.96 191.965,212.96 
	217.76,212.96 219.947,212.96 219.947,210.773 219.947,198.542 219.947,196.356 217.76,196.356 213.297,196.356 213.297,159.894 
	232.568,199.627 234.523,203.681 236.516,199.627 255.982,159.805 255.982,196.356 251.732,196.356 249.529,196.356 
	249.529,198.542 249.529,210.773 249.529,212.96 251.732,212.96 277.51,212.96 279.697,212.96 279.697,210.773 279.697,198.542 
	279.697,196.356 277.51,196.356 273.066,196.356 273.066,144.978 277.51,144.978 279.697,144.978 279.697,142.791 279.697,130.56 
	279.697,128.374 "/>
<path fill="#FFFFFF" d="M127.698,196.303h-6.862l-22.329-51.557h4.302v-16.675h-35.84v16.622h4.942L49.6,196.249h-9.297v16.623
	h32.533v-16.623h-4.729l3.716-8.587h26.844l3.698,8.587h-4.996v16.623h32.551v-16.623L127.698,196.303z M91.466,171.112H79.022
	l6.223-14.419L91.466,171.112z"/>
<polygon fill="#FFFFFF" points="250.203,63.858 69.208,63.858 66.702,63.858 66.702,66.365 66.702,114.72 66.702,117.227 
	69.208,117.227 100.462,117.227 102.969,117.227 102.969,114.72 102.969,96.764 141.582,96.764 141.582,224.178 123.609,224.178 
	121.12,224.178 121.12,226.686 121.12,257.937 121.12,260.444 123.609,260.444 195.785,260.444 198.293,260.444 198.293,257.937 
	198.293,226.686 198.293,224.178 195.785,224.178 177.848,224.178 177.848,96.764 216.23,96.764 216.23,114.489 216.23,116.995 
	218.738,116.995 250.203,116.995 252.711,116.995 252.711,114.489 252.711,66.365 252.711,63.858 "/>
<polygon fill="#B1B3B6" points="183.199,239.058 190.844,231.183 190.844,252.765 183.199,245.458 "/>
<polygon fill="#B1B3B6" points="170.471,231.751 162.808,239.29 162.808,81.743 170.471,89.369 "/>
<polygon fill="#B1B3B6" points="82.027,78.969 74.169,71.325 241.441,71.325 231.555,78.969 "/>
<polygon fill="#B1B3B6" points="245.492,109.991 237.85,102.685 237.85,83.236 245.492,75.378 "/>
</svg>
