<?xml version="1.0" encoding="utf-8"?>
<!-- Generator: Adobe Illustrator 16.0.4, SVG Export Plug-In . SVG Version: 6.00 Build 0)  -->
<!DOCTYPE svg PUBLIC "-//W3C//DTD SVG 1.1//EN" "http://www.w3.org/Graphics/SVG/1.1/DTD/svg11.dtd">
<svg version="1.1" id="Layer_1" xmlns="http://www.w3.org/2000/svg" xmlns:xlink="http://www.w3.org/1999/xlink" x="0px" y="0px"
	 width="240.159px" height="54.176px" viewBox="0 0 240.159 54.176" enable-background="new 0 0 240.159 54.176"
	 xml:space="preserve">
<rect fill="#5D0025" width="53.575" height="54"/>
<polygon fill="#FFFFFF" points="46.46,21.49 42.481,21.49 42.251,21.49 42.149,21.699 39.263,27.706 36.368,21.697 36.27,21.49 
	36.038,21.49 32.193,21.49 31.828,21.49 31.828,21.857 31.828,23.906 31.828,24.272 32.193,24.272 32.852,24.272 32.852,32.873 
	32.138,32.873 31.772,32.873 31.772,33.239 31.772,35.287 31.772,35.654 32.138,35.654 36.458,35.654 36.823,35.654 36.823,35.287 
	36.823,33.239 36.823,32.873 36.458,32.873 35.711,32.873 35.711,26.77 38.937,33.423 39.267,34.099 39.597,33.423 42.856,26.753 
	42.856,32.873 42.145,32.873 41.776,32.873 41.776,33.239 41.776,35.287 41.776,35.654 42.145,35.654 46.46,35.654 46.828,35.654 
	46.828,35.287 46.828,33.239 46.828,32.873 46.46,32.873 45.718,32.873 45.718,24.272 46.46,24.272 46.828,24.272 46.828,23.906 
	46.828,21.857 46.828,21.49 "/>
<path fill="#FFFFFF" d="M21.383,32.864h-1.148l-3.737-8.64h0.357h0.366v-0.366v-2.051V21.44h-0.366H11.58h-0.369v0.367v2.051v0.366
	h0.369h0.458l-3.736,8.64H7.116H6.749v0.366v2.049v0.368h0.367h4.713h0.366v-0.368V33.23v-0.366h-0.366h-0.427l0.621-1.437h4.494
	l0.619,1.437h-0.469H16.3v0.366v2.049v0.368h0.367h4.716h0.367v-0.368V33.23v-0.366H21.383z M15.313,28.646h-2.087l1.043-2.414
	L15.313,28.646z"/>
<polygon fill="#FFFFFF" points="41.891,10.691 11.587,10.691 11.167,10.691 11.167,11.11 11.167,19.207 11.167,19.625 
	11.587,19.625 16.821,19.625 17.239,19.625 17.239,19.207 17.239,16.199 23.704,16.199 23.704,37.531 20.696,37.531 20.278,37.531 
	20.278,37.951 20.278,43.185 20.278,43.603 20.696,43.603 32.78,43.603 33.2,43.603 33.2,43.185 33.2,37.951 33.2,37.531 
	32.78,37.531 29.776,37.531 29.776,16.199 36.201,16.199 36.201,19.168 36.201,19.586 36.622,19.586 41.891,19.586 42.309,19.586 
	42.309,19.168 42.309,11.11 42.309,10.691 "/>
<polygon fill="#B1B3B5" points="30.673,40.023 31.952,38.704 31.952,42.318 30.673,41.095 "/>
<polygon fill="#B1B3B5" points="28.54,38.801 27.258,40.062 27.258,13.684 28.54,14.961 "/>
<polygon fill="#B1B3B5" points="13.735,13.22 12.418,11.94 40.422,11.94 38.766,13.22 "/>
<polygon fill="#B1B3B5" points="41.102,18.414 39.821,17.192 39.821,13.935 41.102,12.618 "/>
<path fill="#5D0025" d="M55.479,52.927c0-0.592,0.483-1.074,1.074-1.074c0.592,0,1.075,0.482,1.075,1.074S57.146,54,56.554,54
	C55.962,54,55.479,53.519,55.479,52.927 M57.367,52.927c0-0.503-0.363-0.865-0.813-0.865c-0.449,0-0.811,0.362-0.811,0.865
	c0,0.504,0.362,0.865,0.811,0.865C57.003,53.792,57.367,53.431,57.367,52.927 M56.141,52.313h0.453c0.291,0,0.449,0.102,0.449,0.357
	c0,0.208-0.119,0.309-0.319,0.327l0.328,0.532h-0.233l-0.315-0.523h-0.137v0.523h-0.226V52.313z M56.367,52.834h0.199
	c0.134,0,0.25-0.019,0.25-0.181c0-0.143-0.131-0.167-0.247-0.167h-0.202V52.834z"/>
<polygon fill="#010101" points="71.696,8.5 70.529,8.5 70.529,2.362 68.429,2.362 68.429,1.361 73.795,1.361 73.795,2.362 
	71.696,2.362 "/>
<polygon fill="#010101" points="79.517,8.5 75.479,8.5 75.479,1.361 79.517,1.361 79.517,2.348 76.646,2.348 76.646,4.291 
	79.336,4.291 79.336,5.268 76.646,5.268 76.646,7.509 79.517,7.509 "/>
<polygon fill="#010101" points="86.729,8.5 85.386,8.5 83.599,5.58 81.797,8.5 80.547,8.5 82.916,4.799 80.699,1.361 81.998,1.361 
	83.648,4.062 85.298,1.361 86.558,1.361 84.327,4.818 "/>
<path fill="#010101" d="M92.641,8.5l-0.713-1.982h-2.73L88.5,8.5h-1.231l2.671-7.168h1.27L93.88,8.5H92.641z M91.62,5.512
	l-0.669-1.943c-0.049-0.13-0.116-0.335-0.203-0.616c-0.086-0.279-0.146-0.484-0.178-0.615c-0.088,0.401-0.217,0.839-0.386,1.314
	l-0.644,1.86H91.62z"/>
<path fill="#010101" d="M99.319,6.562c0,0.635-0.229,1.133-0.688,1.494c-0.459,0.361-1.093,0.542-1.9,0.542
	c-0.808,0-1.469-0.125-1.982-0.376V7.119c0.325,0.153,0.671,0.273,1.037,0.361c0.366,0.088,0.707,0.132,1.023,0.132
	c0.462,0,0.803-0.088,1.023-0.264c0.219-0.176,0.33-0.411,0.33-0.708c0-0.266-0.102-0.493-0.303-0.679
	c-0.202-0.185-0.619-0.405-1.25-0.659c-0.651-0.263-1.11-0.564-1.377-0.903c-0.267-0.338-0.4-0.745-0.4-1.221
	c0-0.595,0.211-1.064,0.634-1.406s0.992-0.513,1.705-0.513c0.683,0,1.363,0.151,2.041,0.449L98.84,2.661
	c-0.634-0.267-1.201-0.401-1.699-0.401c-0.378,0-0.664,0.082-0.859,0.247c-0.195,0.164-0.293,0.382-0.293,0.652
	c0,0.185,0.039,0.344,0.117,0.476c0.078,0.132,0.206,0.256,0.386,0.373c0.179,0.117,0.501,0.273,0.967,0.464
	c0.523,0.219,0.908,0.422,1.152,0.611c0.244,0.189,0.423,0.402,0.537,0.639C99.261,5.959,99.319,6.24,99.319,6.562"/>
<path fill="#010101" d="M108.627,8.5l-0.713-1.982h-2.73L104.486,8.5h-1.231l2.671-7.168h1.27l2.671,7.168H108.627z M107.606,5.512
	l-0.669-1.943c-0.049-0.13-0.116-0.335-0.202-0.616c-0.087-0.279-0.146-0.484-0.179-0.615c-0.088,0.401-0.216,0.839-0.386,1.314
	l-0.644,1.86H107.606z"/>
<path fill="#010101" d="M110.717,6.61c0-0.426,0.103-0.798,0.312-1.115c0.208-0.318,0.584-0.633,1.128-0.946
	c-0.31-0.361-0.52-0.666-0.633-0.915c-0.112-0.249-0.168-0.506-0.168-0.774c0-0.494,0.177-0.885,0.53-1.172
	c0.353-0.286,0.828-0.43,1.423-0.43c0.577,0,1.029,0.14,1.358,0.418c0.328,0.279,0.493,0.654,0.493,1.125
	c0,0.371-0.11,0.708-0.33,1.011c-0.22,0.303-0.587,0.606-1.101,0.908l1.69,1.631c0.263-0.348,0.483-0.859,0.659-1.533h1.182
	c-0.229,0.925-0.593,1.679-1.094,2.261l1.47,1.421h-1.48l-0.727-0.708c-0.333,0.267-0.687,0.467-1.063,0.603
	c-0.376,0.135-0.792,0.202-1.247,0.202c-0.749,0-1.337-0.177-1.763-0.532C110.929,7.711,110.717,7.226,110.717,6.61 M113.178,7.611
	c0.595,0,1.104-0.174,1.528-0.523l-1.87-1.84c-0.346,0.221-0.583,0.428-0.713,0.623c-0.131,0.193-0.195,0.414-0.195,0.661
	c0,0.319,0.113,0.579,0.338,0.779C112.493,7.512,112.797,7.611,113.178,7.611 M112.45,2.899c0,0.205,0.055,0.399,0.163,0.581
	c0.109,0.183,0.262,0.376,0.457,0.581c0.367-0.208,0.626-0.402,0.774-0.583c0.148-0.181,0.222-0.384,0.222-0.608
	c0-0.211-0.071-0.381-0.213-0.508c-0.141-0.127-0.329-0.191-0.563-0.191c-0.258,0-0.462,0.067-0.613,0.199
	C112.524,2.502,112.45,2.679,112.45,2.899"/>
<path fill="#010101" d="M122.268,8.5l-2.07-5.962h-0.039c0.054,0.886,0.083,1.716,0.083,2.49V8.5h-1.06V1.361h1.646l1.982,5.679
	h0.028l2.04-5.679h1.65V8.5h-1.123V4.97c0-0.355,0.01-0.817,0.027-1.387c0.019-0.569,0.033-0.914,0.047-1.035h-0.039L123.298,8.5
	H122.268z"/>
<path fill="#010101" d="M137.523,1.361V5.98c0,0.527-0.113,0.989-0.338,1.385c-0.227,0.395-0.555,0.699-0.982,0.913
	c-0.428,0.213-0.94,0.319-1.535,0.319c-0.887,0-1.575-0.234-2.066-0.703c-0.49-0.469-0.736-1.113-0.736-1.933v-4.6h1.172v4.517
	c0,0.589,0.136,1.024,0.41,1.303c0.272,0.281,0.692,0.42,1.26,0.42c1.1,0,1.65-0.577,1.65-1.733V1.361H137.523z"/>
<path fill="#010101" d="M145.867,8.5h-1.432l-3.51-5.688h-0.039l0.023,0.317c0.047,0.605,0.068,1.159,0.068,1.66V8.5h-1.059V1.361
	h1.416l3.5,5.66h0.029c-0.007-0.075-0.02-0.348-0.039-0.818c-0.02-0.471-0.029-0.838-0.029-1.101V1.361h1.07V8.5z"/>
<rect x="148.161" y="1.361" fill="#010101" width="1.167" height="7.139"/>
<path fill="#010101" d="M155.721,1.361h1.211l-2.5,7.139h-1.23l-2.49-7.139h1.201l1.49,4.438c0.078,0.212,0.16,0.485,0.248,0.819
	c0.089,0.333,0.145,0.582,0.172,0.744c0.042-0.247,0.107-0.533,0.195-0.859c0.088-0.326,0.158-0.567,0.215-0.723L155.721,1.361z"/>
<polygon fill="#010101" points="162.432,8.5 158.395,8.5 158.395,1.361 162.432,1.361 162.432,2.348 159.561,2.348 159.561,4.291 
	162.251,4.291 162.251,5.268 159.561,5.268 159.561,7.509 162.432,7.509 "/>
<path fill="#010101" d="M165.553,5.648V8.5h-1.168V1.362h2.018c0.921,0,1.603,0.173,2.046,0.517
	c0.442,0.346,0.664,0.866,0.664,1.562c0,0.888-0.462,1.522-1.388,1.899l2.017,3.159h-1.328l-1.709-2.851H165.553z M165.553,4.682
	h0.811c0.543,0,0.938-0.101,1.181-0.303c0.244-0.201,0.366-0.501,0.366-0.898c0-0.403-0.131-0.694-0.395-0.869
	c-0.265-0.176-0.662-0.264-1.192-0.264h-0.771V4.682z"/>
<path fill="#010101" d="M175.492,6.562c0,0.635-0.229,1.133-0.688,1.494c-0.459,0.361-1.092,0.542-1.9,0.542
	c-0.808,0-1.468-0.125-1.982-0.376V7.119c0.326,0.153,0.673,0.273,1.037,0.361c0.367,0.088,0.709,0.132,1.023,0.132
	c0.462,0,0.803-0.088,1.023-0.264c0.219-0.176,0.33-0.411,0.33-0.708c0-0.266-0.102-0.493-0.303-0.679
	c-0.203-0.185-0.619-0.405-1.25-0.659c-0.652-0.263-1.111-0.564-1.377-0.903c-0.268-0.338-0.4-0.745-0.4-1.221
	c0-0.595,0.212-1.064,0.634-1.406c0.423-0.342,0.991-0.513,1.705-0.513c0.683,0,1.364,0.151,2.041,0.449l-0.372,0.953
	c-0.635-0.267-1.201-0.401-1.699-0.401c-0.378,0-0.664,0.082-0.859,0.247c-0.194,0.164-0.293,0.382-0.293,0.652
	c0,0.185,0.039,0.344,0.117,0.476c0.078,0.132,0.207,0.256,0.387,0.373c0.179,0.117,0.5,0.273,0.967,0.464
	c0.523,0.219,0.908,0.422,1.152,0.611c0.243,0.189,0.422,0.402,0.536,0.639C175.436,5.959,175.492,6.24,175.492,6.562"/>
<rect x="177.374" y="1.361" fill="#010101" width="1.167" height="7.139"/>
<polygon fill="#010101" points="183.332,8.5 182.166,8.5 182.166,2.362 180.065,2.362 180.065,1.361 185.433,1.361 185.433,2.362 
	183.332,2.362 "/>
<polygon fill="#010101" points="189.133,4.618 190.821,1.361 192.092,1.361 189.713,5.731 189.713,8.5 188.541,8.5 188.541,5.77 
	186.174,1.361 187.443,1.361 "/>
<path fill="#010101" d="M75.556,19.036c-1.412,0-2.526,0.471-3.344,1.411c-0.817,0.941-1.226,2.228-1.226,3.862
	c0,1.682,0.394,2.982,1.182,3.899s1.911,1.375,3.37,1.375c0.897,0,1.919-0.16,3.068-0.484v1.311
	c-0.891,0.334-1.989,0.501-3.296,0.501c-1.893,0-3.353-0.574-4.381-1.724c-1.028-1.147-1.543-2.779-1.543-4.895
	c0-1.324,0.248-2.485,0.743-3.481c0.495-0.996,1.21-1.763,2.145-2.302c0.934-0.539,2.034-0.809,3.3-0.809
	c1.347,0,2.525,0.246,3.533,0.738l-0.633,1.284C77.501,19.265,76.529,19.036,75.556,19.036"/>
<path fill="#010101" d="M89.163,25.909c0,1.57-0.396,2.797-1.187,3.68c-0.791,0.881-1.883,1.321-3.278,1.321
	c-0.861,0-1.626-0.202-2.294-0.606s-1.184-0.984-1.547-1.74c-0.363-0.756-0.545-1.64-0.545-2.654c0-1.57,0.393-2.793,1.178-3.669
	c0.785-0.876,1.875-1.314,3.27-1.314c1.347,0,2.418,0.448,3.212,1.344C88.766,23.167,89.163,24.38,89.163,25.909 M81.824,25.909
	c0,1.23,0.246,2.168,0.738,2.812c0.492,0.645,1.216,0.967,2.171,0.967c0.955,0,1.681-0.32,2.176-0.963
	c0.495-0.64,0.742-1.58,0.742-2.816c0-1.225-0.247-2.154-0.742-2.79c-0.495-0.636-1.227-0.954-2.193-0.954
	c-0.955,0-1.676,0.313-2.163,0.94C82.066,23.732,81.824,24.667,81.824,25.909"/>
<rect x="91.36" y="17.058" fill="#010101" width="1.459" height="13.676"/>
<rect x="95.624" y="17.058" fill="#010101" width="1.459" height="13.676"/>
<path fill="#010101" d="M103.96,30.91c-1.424,0-2.548-0.434-3.372-1.301c-0.823-0.867-1.234-2.071-1.234-3.612
	c0-1.553,0.382-2.787,1.147-3.701c0.764-0.914,1.792-1.371,3.081-1.371c1.207,0,2.162,0.398,2.865,1.192
	c0.703,0.794,1.055,1.841,1.055,3.141v0.923h-6.636c0.029,1.131,0.314,1.989,0.856,2.575c0.542,0.586,1.306,0.879,2.29,0.879
	c1.037,0,2.063-0.217,3.076-0.65v1.301c-0.515,0.223-1.003,0.383-1.463,0.479C105.165,30.861,104.61,30.91,103.96,30.91
	 M103.564,22.147c-0.773,0-1.391,0.252-1.851,0.756s-0.73,1.201-0.812,2.092h5.036c0-0.92-0.205-1.624-0.615-2.114
	C104.912,22.393,104.326,22.147,103.564,22.147"/>
<path fill="#010101" d="M117.53,21.102v0.923l-1.785,0.211c0.165,0.205,0.311,0.473,0.44,0.805c0.129,0.331,0.193,0.704,0.193,1.12
	c0,0.943-0.322,1.696-0.967,2.258c-0.644,0.563-1.529,0.844-2.654,0.844c-0.287,0-0.556-0.023-0.808-0.07
	c-0.622,0.328-0.932,0.741-0.932,1.239c0,0.264,0.108,0.459,0.325,0.585c0.217,0.126,0.589,0.189,1.116,0.189h1.705
	c1.043,0,1.845,0.219,2.405,0.658c0.559,0.439,0.839,1.078,0.839,1.916c0,1.066-0.428,1.879-1.284,2.438
	c-0.855,0.56-2.103,0.84-3.744,0.84c-1.26,0-2.23-0.233-2.913-0.703c-0.682-0.469-1.024-1.131-1.024-1.985
	c0-0.586,0.187-1.094,0.562-1.521s0.903-0.719,1.582-0.87c-0.246-0.11-0.452-0.284-0.619-0.519
	c-0.167-0.234-0.251-0.506-0.251-0.817c0-0.353,0.094-0.659,0.281-0.923c0.188-0.263,0.484-0.518,0.888-0.764
	c-0.498-0.206-0.903-0.554-1.217-1.046c-0.313-0.493-0.47-1.055-0.47-1.688c0-1.055,0.316-1.867,0.949-2.438
	c0.633-0.572,1.529-0.858,2.689-0.858c0.504,0,0.958,0.059,1.363,0.176H117.53z M109.848,32.352c0,0.522,0.22,0.917,0.659,1.187
	c0.44,0.27,1.069,0.404,1.89,0.404c1.224,0,2.132-0.184,2.721-0.55c0.588-0.366,0.882-0.862,0.882-1.489
	c0-0.521-0.161-0.884-0.483-1.085c-0.322-0.202-0.929-0.304-1.819-0.304h-1.749c-0.663,0-1.178,0.158-1.547,0.475
	C110.033,31.306,109.848,31.76,109.848,32.352 M110.639,24.187c0,0.674,0.19,1.184,0.571,1.529c0.381,0.346,0.911,0.519,1.591,0.519
	c1.424,0,2.136-0.692,2.136-2.074c0-1.448-0.721-2.171-2.162-2.171c-0.686,0-1.213,0.184-1.582,0.553
	C110.824,22.913,110.639,23.459,110.639,24.187"/>
<path fill="#010101" d="M123.218,30.91c-1.425,0-2.548-0.434-3.372-1.301c-0.823-0.867-1.234-2.071-1.234-3.612
	c0-1.553,0.382-2.787,1.147-3.701c0.764-0.914,1.792-1.371,3.081-1.371c1.207,0,2.16,0.398,2.863,1.192
	c0.703,0.794,1.056,1.841,1.056,3.141v0.923h-6.635c0.029,1.131,0.314,1.989,0.856,2.575c0.542,0.586,1.306,0.879,2.29,0.879
	c1.037,0,2.062-0.217,3.076-0.65v1.301c-0.516,0.223-1.003,0.383-1.464,0.479C124.423,30.861,123.867,30.91,123.218,30.91
	 M122.822,22.147c-0.773,0-1.392,0.252-1.852,0.756s-0.73,1.201-0.812,2.092h5.035c0-0.92-0.205-1.624-0.615-2.114
	C124.17,22.393,123.584,22.147,122.822,22.147"/>
<path fill="#010101" d="M141.48,25.909c0,1.57-0.396,2.797-1.188,3.68c-0.791,0.881-1.883,1.321-3.277,1.321
	c-0.861,0-1.627-0.202-2.295-0.606s-1.184-0.984-1.547-1.74c-0.363-0.756-0.545-1.64-0.545-2.654c0-1.57,0.393-2.793,1.178-3.669
	s1.875-1.314,3.271-1.314c1.347,0,2.418,0.448,3.211,1.344C141.082,23.167,141.48,24.38,141.48,25.909 M134.141,25.909
	c0,1.23,0.246,2.168,0.738,2.812s1.217,0.967,2.171,0.967c0.955,0,1.681-0.32,2.177-0.963c0.494-0.64,0.742-1.58,0.742-2.816
	c0-1.225-0.248-2.154-0.742-2.79c-0.496-0.636-1.228-0.954-2.193-0.954c-0.955,0-1.676,0.313-2.163,0.94
	C134.384,23.732,134.141,24.667,134.141,25.909"/>
<path fill="#010101" d="M148.02,22.235h-2.451v8.499h-1.459v-8.499h-1.724v-0.659l1.724-0.528v-0.536c0-2.367,1.033-3.55,3.102-3.55
	c0.51,0,1.107,0.102,1.793,0.307l-0.378,1.169c-0.562-0.182-1.043-0.272-1.44-0.272c-0.552,0-0.959,0.183-1.223,0.549
	c-0.263,0.367-0.395,0.954-0.395,1.762v0.624h2.451V22.235z"/>
<path fill="#010101" d="M161.994,30.735l-1.6-4.087h-5.15l-1.582,4.087h-1.512l5.08-12.903h1.258l5.053,12.903H161.994z
	 M159.93,25.303l-1.494-3.981c-0.193-0.504-0.394-1.123-0.599-1.855c-0.129,0.563-0.313,1.181-0.554,1.855l-1.512,3.981H159.93z"/>
<path fill="#010101" d="M172.594,21.102v0.923l-1.785,0.211c0.165,0.205,0.311,0.473,0.439,0.805
	c0.129,0.331,0.193,0.704,0.193,1.12c0,0.943-0.322,1.696-0.967,2.258c-0.645,0.563-1.529,0.844-2.654,0.844
	c-0.287,0-0.556-0.023-0.808-0.07c-0.622,0.328-0.933,0.741-0.933,1.239c0,0.264,0.108,0.459,0.326,0.585
	c0.217,0.126,0.588,0.189,1.115,0.189h1.705c1.043,0,1.844,0.219,2.404,0.658c0.559,0.439,0.84,1.078,0.84,1.916
	c0,1.066-0.428,1.879-1.284,2.438c-0.854,0.56-2.103,0.84-3.744,0.84c-1.26,0-2.231-0.233-2.913-0.703
	c-0.683-0.469-1.023-1.131-1.023-1.985c0-0.586,0.187-1.094,0.562-1.521s0.903-0.719,1.582-0.87c-0.246-0.11-0.452-0.284-0.62-0.519
	c-0.166-0.234-0.25-0.506-0.25-0.817c0-0.353,0.094-0.659,0.281-0.923c0.188-0.263,0.484-0.518,0.889-0.764
	c-0.498-0.206-0.904-0.554-1.219-1.046c-0.312-0.493-0.469-1.055-0.469-1.688c0-1.055,0.316-1.867,0.949-2.438
	c0.633-0.572,1.529-0.858,2.688-0.858c0.504,0,0.958,0.059,1.363,0.176H172.594z M164.912,32.352c0,0.522,0.219,0.917,0.658,1.187
	c0.44,0.27,1.069,0.404,1.891,0.404c1.224,0,2.132-0.184,2.72-0.55c0.589-0.366,0.883-0.862,0.883-1.489
	c0-0.521-0.161-0.884-0.483-1.085c-0.321-0.202-0.929-0.304-1.818-0.304h-1.749c-0.663,0-1.179,0.158-1.548,0.475
	C165.097,31.306,164.912,31.76,164.912,32.352 M165.703,24.187c0,0.674,0.189,1.184,0.57,1.529c0.381,0.346,0.911,0.519,1.592,0.519
	c1.424,0,2.135-0.692,2.135-2.074c0-1.448-0.721-2.171-2.162-2.171c-0.686,0-1.213,0.184-1.582,0.553
	C165.888,22.913,165.703,23.459,165.703,24.187"/>
<path fill="#010101" d="M178.605,20.926c0.428,0,0.812,0.035,1.151,0.105l-0.202,1.354c-0.398-0.088-0.75-0.132-1.054-0.132
	c-0.78,0-1.446,0.317-2,0.949c-0.554,0.633-0.831,1.421-0.831,2.365v5.168h-1.459v-9.633h1.205l0.167,1.784h0.069
	c0.357-0.627,0.789-1.11,1.293-1.45C177.449,21.096,178.002,20.926,178.605,20.926"/>
<path fill="#010101" d="M181.094,18.491c0-0.334,0.082-0.578,0.246-0.733c0.164-0.156,0.369-0.234,0.615-0.234
	c0.234,0,0.438,0.079,0.607,0.237c0.17,0.159,0.254,0.402,0.254,0.73s-0.084,0.573-0.254,0.734c-0.17,0.161-0.373,0.242-0.607,0.242
	c-0.246,0-0.451-0.081-0.615-0.242C181.176,19.064,181.094,18.819,181.094,18.491 M182.676,30.734h-1.459v-9.633h1.459V30.734z"/>
<path fill="#010101" d="M189.332,30.91c-1.396,0-2.476-0.431-3.238-1.287c-0.766-0.858-1.148-2.073-1.148-3.644
	c0-1.611,0.389-2.856,1.165-3.735s1.882-1.318,3.317-1.318c0.464,0,0.926,0.049,1.389,0.149s0.827,0.217,1.09,0.352l-0.447,1.239
	c-0.322-0.129-0.675-0.235-1.056-0.32s-0.718-0.128-1.01-0.128c-1.958,0-2.937,1.248-2.937,3.744c0,1.183,0.238,2.092,0.717,2.725
	c0.477,0.633,1.185,0.949,2.123,0.949c0.803,0,1.625-0.172,2.47-0.519v1.292C191.121,30.743,190.311,30.91,189.332,30.91"/>
<path fill="#010101" d="M195.115,21.102v6.249c0,0.785,0.18,1.371,0.537,1.758s0.916,0.58,1.678,0.58
	c1.009,0,1.744-0.275,2.211-0.826c0.466-0.551,0.699-1.45,0.699-2.699v-5.062h1.459v9.633h-1.205l-0.211-1.292h-0.078
	c-0.299,0.475-0.715,0.838-1.244,1.09c-0.531,0.252-1.135,0.379-1.815,0.379c-1.172,0-2.05-0.279-2.632-0.836
	c-0.584-0.557-0.875-1.447-0.875-2.672v-6.302H195.115z"/>
<rect x="204.504" y="17.058" fill="#010101" width="1.459" height="13.676"/>
<path fill="#010101" d="M211.881,29.706c0.258,0,0.508-0.02,0.748-0.057c0.239-0.038,0.43-0.078,0.57-0.119v1.115
	c-0.158,0.078-0.391,0.14-0.699,0.19c-0.307,0.05-0.584,0.074-0.83,0.074c-1.863,0-2.795-0.981-2.795-2.944v-5.73h-1.38v-0.703
	l1.38-0.606l0.615-2.057h0.844v2.233h2.795v1.133h-2.795v5.669c0,0.579,0.139,1.026,0.413,1.336
	C211.023,29.552,211.401,29.706,211.881,29.706"/>
<path fill="#010101" d="M216.152,21.102v6.249c0,0.785,0.18,1.371,0.537,1.758s0.916,0.58,1.678,0.58
	c1.009,0,1.744-0.275,2.211-0.826c0.466-0.551,0.699-1.45,0.699-2.699v-5.062h1.459v9.633h-1.205l-0.211-1.292h-0.078
	c-0.299,0.475-0.715,0.838-1.244,1.09c-0.531,0.252-1.135,0.379-1.815,0.379c-1.172,0-2.05-0.279-2.632-0.836
	c-0.584-0.557-0.875-1.447-0.875-2.672v-6.302H216.152z"/>
<path fill="#010101" d="M229.936,20.926c0.428,0,0.812,0.035,1.151,0.105l-0.202,1.354c-0.398-0.088-0.75-0.132-1.054-0.132
	c-0.78,0-1.446,0.317-2,0.949c-0.554,0.633-0.831,1.421-0.831,2.365v5.168h-1.459v-9.633h1.205l0.167,1.784h0.069
	c0.357-0.627,0.789-1.11,1.293-1.45C228.779,21.096,229.332,20.926,229.936,20.926"/>
<path fill="#010101" d="M236.617,30.91c-1.424,0-2.548-0.434-3.371-1.301c-0.824-0.867-1.234-2.071-1.234-3.612
	c0-1.553,0.381-2.787,1.146-3.701c0.764-0.914,1.792-1.371,3.081-1.371c1.207,0,2.162,0.398,2.864,1.192
	c0.703,0.794,1.056,1.841,1.056,3.141v0.923h-6.636c0.029,1.131,0.313,1.989,0.855,2.575c0.542,0.586,1.307,0.879,2.29,0.879
	c1.037,0,2.063-0.217,3.076-0.65v1.301c-0.515,0.223-1.003,0.383-1.463,0.479C237.822,30.861,237.268,30.91,236.617,30.91
	 M236.221,22.147c-0.772,0-1.391,0.252-1.85,0.756c-0.461,0.504-0.73,1.201-0.812,2.092h5.035c0-0.92-0.205-1.624-0.615-2.114
	C237.569,22.393,236.983,22.147,236.221,22.147"/>
<path fill="#010101" d="M69.28,50.669c0-0.762,0.205-1.436,0.612-2.021c0.407-0.586,1.138-1.178,2.192-1.775
	c-0.498-0.557-0.836-0.979-1.014-1.266c-0.179-0.287-0.322-0.586-0.427-0.896c-0.106-0.311-0.158-0.633-0.158-0.967
	c0-0.879,0.287-1.564,0.861-2.057c0.574-0.492,1.374-0.738,2.399-0.738c0.95,0,1.697,0.244,2.242,0.734
	c0.544,0.489,0.817,1.17,0.817,2.043c0,0.627-0.199,1.207-0.598,1.735c-0.398,0.531-1.057,1.068-1.977,1.613l3.577,3.437
	c0.328-0.363,0.591-0.789,0.787-1.279c0.196-0.488,0.361-1.023,0.496-1.604h1.477c-0.399,1.676-0.999,2.947-1.802,3.814L81.392,54
	h-2.013l-1.626-1.563c-0.691,0.621-1.394,1.065-2.109,1.334c-0.715,0.271-1.512,0.405-2.391,0.405c-1.26,0-2.236-0.311-2.931-0.932
	C69.628,52.623,69.28,51.765,69.28,50.669 M73.288,52.866c1.412,0,2.584-0.451,3.516-1.354l-3.841-3.727
	c-0.65,0.398-1.11,0.729-1.38,0.988c-0.269,0.262-0.469,0.541-0.597,0.84c-0.129,0.299-0.194,0.639-0.194,1.02
	c0,0.686,0.228,1.229,0.682,1.631S72.532,52.866,73.288,52.866 M71.926,43.708c0,0.404,0.105,0.79,0.316,1.155
	c0.211,0.366,0.572,0.808,1.081,1.323c0.756-0.439,1.283-0.845,1.579-1.217c0.295-0.371,0.443-0.802,0.443-1.287
	c0-0.453-0.15-0.819-0.452-1.104c-0.302-0.283-0.705-0.427-1.209-0.427c-0.522,0-0.945,0.142-1.27,0.423
	C72.089,42.854,71.926,43.233,71.926,43.708"/>
<polygon fill="#010101" points="87.078,54 87.078,41.149 88.572,41.149 88.572,52.646 94.241,52.646 94.241,54 "/>
<path fill="#010101" d="M95.736,41.757c0-0.334,0.082-0.578,0.246-0.733s0.369-0.233,0.615-0.233c0.234,0,0.437,0.079,0.606,0.237
	c0.17,0.157,0.255,0.401,0.255,0.729s-0.085,0.573-0.255,0.733c-0.169,0.162-0.372,0.242-0.606,0.242
	c-0.246,0-0.451-0.08-0.615-0.242C95.818,42.33,95.736,42.085,95.736,41.757 M97.318,54h-1.459v-9.633h1.459V54z"/>
<path fill="#010101" d="M104.465,45.501h-2.452V54h-1.459v-8.499h-1.723v-0.659l1.723-0.528v-0.535c0-2.367,1.034-3.551,3.102-3.551
	c0.51,0,1.108,0.103,1.793,0.308l-0.378,1.169c-0.562-0.182-1.043-0.271-1.441-0.271c-0.551,0-0.958,0.183-1.222,0.547
	c-0.263,0.369-0.395,0.955-0.395,1.764v0.624h2.452V45.501z"/>
<path fill="#010101" d="M109.951,54.177c-1.424,0-2.548-0.435-3.372-1.302c-0.823-0.866-1.234-2.071-1.234-3.612
	c0-1.553,0.382-2.787,1.147-3.701c0.764-0.913,1.792-1.37,3.081-1.37c1.207,0,2.162,0.397,2.865,1.192
	c0.703,0.793,1.055,1.84,1.055,3.141v0.923h-6.636c0.029,1.131,0.314,1.989,0.856,2.575s1.306,0.879,2.29,0.879
	c1.037,0,2.063-0.217,3.076-0.65v1.301c-0.515,0.223-1.003,0.383-1.463,0.479C111.156,54.127,110.601,54.177,109.951,54.177
	 M109.555,45.413c-0.773,0-1.391,0.252-1.851,0.756s-0.73,1.201-0.812,2.092h5.036c0-0.92-0.205-1.623-0.615-2.115
	C110.903,45.658,110.317,45.413,109.555,45.413"/>
<path fill="#010101" d="M127.369,50.581c0,1.131-0.41,2.014-1.229,2.646c-0.821,0.631-1.933,0.949-3.339,0.949
	c-1.524,0-2.696-0.197-3.516-0.59v-1.441c0.527,0.223,1.102,0.398,1.723,0.527s1.236,0.193,1.845,0.193
	c0.996,0,1.746-0.188,2.249-0.567c0.504-0.377,0.756-0.903,0.756-1.577c0-0.445-0.09-0.81-0.268-1.095
	c-0.18-0.282-0.479-0.546-0.896-0.786c-0.419-0.24-1.055-0.513-1.91-0.818c-1.195-0.426-2.051-0.934-2.562-1.52
	c-0.513-0.586-0.769-1.351-0.769-2.294c0-0.989,0.372-1.778,1.116-2.364c0.744-0.586,1.729-0.879,2.953-0.879
	c1.276,0,2.453,0.234,3.524,0.703l-0.467,1.301c-1.061-0.445-2.092-0.668-3.093-0.668c-0.791,0-1.409,0.17-1.854,0.51
	s-0.668,0.812-0.668,1.416c0,0.444,0.082,0.81,0.246,1.093c0.164,0.284,0.44,0.545,0.83,0.782c0.391,0.237,0.986,0.5,1.789,0.787
	c1.349,0.48,2.273,0.996,2.781,1.547C127.115,48.987,127.369,49.702,127.369,50.581"/>
<path fill="#010101" d="M133.25,54.176c-1.396,0-2.476-0.429-3.238-1.287c-0.766-0.858-1.148-2.073-1.148-3.644
	c0-1.611,0.389-2.856,1.165-3.735s1.882-1.317,3.318-1.317c0.463,0,0.925,0.049,1.388,0.148s0.827,0.217,1.09,0.352l-0.447,1.239
	c-0.322-0.129-0.674-0.235-1.056-0.319c-0.381-0.086-0.718-0.129-1.01-0.129c-1.958,0-2.937,1.248-2.937,3.744
	c0,1.184,0.238,2.092,0.717,2.725c0.477,0.633,1.185,0.949,2.123,0.949c0.803,0,1.625-0.172,2.47-0.519v1.292
	C135.039,54.009,134.229,54.176,133.25,54.176"/>
<path fill="#010101" d="M137.54,41.757c0-0.334,0.082-0.578,0.246-0.733c0.165-0.155,0.37-0.233,0.616-0.233
	c0.234,0,0.436,0.079,0.605,0.237c0.17,0.157,0.256,0.401,0.256,0.729s-0.086,0.573-0.256,0.733
	c-0.17,0.162-0.371,0.242-0.605,0.242c-0.246,0-0.451-0.08-0.616-0.242C137.622,42.33,137.54,42.085,137.54,41.757 M139.122,54
	h-1.459v-9.633h1.459V54z"/>
<path fill="#010101" d="M145.998,54.177c-1.424,0-2.548-0.435-3.371-1.302c-0.824-0.866-1.234-2.071-1.234-3.612
	c0-1.553,0.381-2.787,1.146-3.701c0.764-0.913,1.792-1.37,3.081-1.37c1.207,0,2.161,0.397,2.864,1.192
	c0.703,0.793,1.056,1.84,1.056,3.141v0.923h-6.636c0.029,1.131,0.313,1.989,0.855,2.575s1.307,0.879,2.29,0.879
	c1.037,0,2.063-0.217,3.076-0.65v1.301c-0.515,0.223-1.003,0.383-1.463,0.479C147.203,54.127,146.648,54.177,145.998,54.177
	 M145.602,45.413c-0.772,0-1.391,0.252-1.85,0.756c-0.461,0.504-0.73,1.201-0.812,2.092h5.035c0-0.92-0.205-1.623-0.615-2.115
	C146.95,45.658,146.363,45.413,145.602,45.413"/>
<path fill="#010101" d="M158.277,54v-6.231c0-0.785-0.18-1.371-0.537-1.758s-0.916-0.58-1.679-0.58
	c-1.008,0-1.745,0.272-2.215,0.817c-0.468,0.545-0.703,1.444-0.703,2.698V54h-1.459v-9.633h1.187l0.238,1.319h0.069
	c0.299-0.476,0.718-0.842,1.257-1.104c0.539-0.26,1.141-0.392,1.803-0.392c1.16,0,2.032,0.281,2.619,0.841
	c0.586,0.56,0.879,1.454,0.879,2.685V54H158.277z"/>
<path fill="#010101" d="M166.295,54.176c-1.396,0-2.476-0.429-3.238-1.287c-0.766-0.858-1.148-2.073-1.148-3.644
	c0-1.611,0.389-2.856,1.165-3.735s1.882-1.317,3.318-1.317c0.463,0,0.925,0.049,1.388,0.148s0.827,0.217,1.09,0.352l-0.447,1.239
	c-0.322-0.129-0.674-0.235-1.056-0.319c-0.381-0.086-0.718-0.129-1.01-0.129c-1.958,0-2.937,1.248-2.937,3.744
	c0,1.184,0.238,2.092,0.717,2.725c0.477,0.633,1.185,0.949,2.123,0.949c0.803,0,1.625-0.172,2.47-0.519v1.292
	C168.084,54.009,167.273,54.176,166.295,54.176"/>
<path fill="#010101" d="M174.778,54.177c-1.424,0-2.548-0.435-3.371-1.302c-0.824-0.866-1.235-2.071-1.235-3.612
	c0-1.553,0.383-2.787,1.147-3.701c0.764-0.913,1.792-1.37,3.081-1.37c1.207,0,2.162,0.397,2.865,1.192
	c0.703,0.793,1.055,1.84,1.055,3.141v0.923h-6.637c0.029,1.131,0.314,1.989,0.856,2.575s1.306,0.879,2.29,0.879
	c1.037,0,2.062-0.217,3.076-0.65v1.301c-0.516,0.223-1.003,0.383-1.463,0.479C175.983,54.127,175.428,54.177,174.778,54.177
	 M174.383,45.413c-0.773,0-1.392,0.252-1.851,0.756c-0.461,0.504-0.731,1.201-0.813,2.092h5.037c0-0.92-0.205-1.623-0.615-2.115
	C175.73,45.658,175.145,45.413,174.383,45.413"/>
<path fill="#010101" d="M186.68,51.372c0,0.896-0.334,1.588-1.002,2.074s-1.605,0.729-2.812,0.729c-1.278,0-2.274-0.202-2.989-0.606
	v-1.354c0.463,0.234,0.959,0.419,1.49,0.553c0.53,0.136,1.042,0.203,1.534,0.203c0.761,0,1.347-0.121,1.758-0.365
	c0.41-0.242,0.615-0.613,0.615-1.111c0-0.375-0.164-0.695-0.488-0.962c-0.326-0.267-0.96-0.582-1.903-0.945
	c-0.896-0.334-1.534-0.625-1.911-0.875c-0.379-0.248-0.66-0.53-0.844-0.848c-0.186-0.316-0.277-0.694-0.277-1.134
	c0-0.785,0.319-1.404,0.959-1.858c0.639-0.454,1.515-0.683,2.627-0.683c1.037,0,2.052,0.211,3.041,0.634l-0.519,1.187
	c-0.966-0.398-1.842-0.598-2.628-0.598c-0.691,0-1.213,0.107-1.564,0.325c-0.352,0.217-0.526,0.516-0.526,0.896
	c0,0.259,0.065,0.478,0.196,0.659c0.133,0.182,0.346,0.354,0.639,0.518s0.855,0.402,1.688,0.713
	c1.143,0.416,1.913,0.834,2.314,1.257C186.479,50.203,186.68,50.733,186.68,51.372"/>
</svg>
