<?xml version="1.0" encoding="utf-8"?>
<!-- Generator: Adobe Illustrator 16.0.4, SVG Export Plug-In . SVG Version: 6.00 Build 0)  -->
<!DOCTYPE svg PUBLIC "-//W3C//DTD SVG 1.1//EN" "http://www.w3.org/Graphics/SVG/1.1/DTD/svg11.dtd">
<svg version="1.1" id="Layer_1" xmlns="http://www.w3.org/2000/svg" xmlns:xlink="http://www.w3.org/1999/xlink" x="0px" y="0px"
	 width="733.94px" height="88px" viewBox="0 0 733.94 88" enable-background="new 0 0 733.94 88" xml:space="preserve">
<g>
	<rect fill="#5D0025" width="87.308" height="88"/>
	<polygon fill="#FFFFFF" points="75.713,35.021 69.229,35.021 68.854,35.021 68.688,35.362 63.984,45.15 59.267,35.358 
		59.106,35.021 58.729,35.021 52.463,35.021 51.868,35.021 51.868,35.62 51.868,38.958 51.868,39.555 52.463,39.555 53.536,39.555 
		53.536,53.571 52.374,53.571 51.777,53.571 51.777,54.167 51.777,57.505 51.777,58.104 52.374,58.104 59.414,58.104 60.008,58.104 
		60.008,57.505 60.008,54.167 60.008,53.571 59.414,53.571 58.196,53.571 58.196,43.625 63.452,54.466 63.99,55.567 64.529,54.466 
		69.84,43.598 69.84,53.571 68.68,53.571 68.08,53.571 68.08,54.167 68.08,57.505 68.08,58.104 68.68,58.104 75.713,58.104 
		76.312,58.104 76.312,57.505 76.312,54.167 76.312,53.571 75.713,53.571 74.504,53.571 74.504,39.555 75.713,39.555 76.312,39.555 
		76.312,38.958 76.312,35.62 76.312,35.021 	"/>
	<path fill="#FFFFFF" d="M34.846,53.558h-1.871l-6.09-14.081h0.582h0.596V38.88v-3.342V34.94h-0.596h-8.596H18.27v0.599v3.342v0.597
		h0.602h0.747l-6.089,14.081h-1.933h-0.598v0.596v3.339v0.6h0.598h7.681h0.596v-0.6v-3.339v-0.596h-0.596h-0.696l1.012-2.342h7.323
		l1.009,2.342h-0.764h-0.599v0.596v3.339v0.6h0.599h7.685h0.598v-0.6v-3.339v-0.596H34.846z M24.955,46.682h-3.401l1.7-3.934
		L24.955,46.682z"/>
	<polygon fill="#FFFFFF" points="68.267,17.423 18.882,17.423 18.198,17.423 18.198,18.106 18.198,31.3 18.198,31.98 18.882,31.98 
		27.413,31.98 28.094,31.98 28.094,31.3 28.094,26.399 38.629,26.399 38.629,61.162 33.728,61.162 33.045,61.162 33.045,61.846 
		33.045,70.375 33.045,71.056 33.728,71.056 53.42,71.056 54.104,71.056 54.104,70.375 54.104,61.846 54.104,61.162 53.42,61.162 
		48.523,61.162 48.523,26.399 58.995,26.399 58.995,31.237 58.995,31.918 59.681,31.918 68.267,31.918 68.948,31.918 68.948,31.237 
		68.948,18.106 68.948,17.423 	"/>
	<polygon fill="#B1B3B5" points="49.986,65.224 52.07,63.074 52.07,68.963 49.986,66.969 	"/>
	<polygon fill="#B1B3B5" points="46.509,63.231 44.421,65.286 44.421,22.3 46.509,24.381 	"/>
	<polygon fill="#B1B3B5" points="22.383,21.543 20.237,19.458 65.873,19.458 63.174,21.543 	"/>
	<polygon fill="#B1B3B5" points="66.981,30.008 64.893,28.017 64.893,22.709 66.981,20.563 	"/>
	<path fill="#5D0025" d="M90.411,86.252c0-0.965,0.787-1.75,1.75-1.75c0.964,0,1.751,0.785,1.751,1.75
		c0,0.964-0.787,1.748-1.751,1.748C91.198,88,90.411,87.216,90.411,86.252 M93.486,86.252c0-0.82-0.592-1.412-1.325-1.412
		c-0.732,0-1.322,0.591-1.322,1.412c0,0.819,0.59,1.409,1.322,1.409C92.895,87.661,93.486,87.071,93.486,86.252 M91.488,85.251
		h0.739c0.474,0,0.731,0.166,0.731,0.583c0,0.339-0.194,0.504-0.52,0.533l0.535,0.867h-0.38l-0.513-0.853h-0.223v0.853h-0.369
		V85.251z M91.857,86.1h0.324c0.219,0,0.407-0.029,0.407-0.294c0-0.233-0.213-0.272-0.402-0.272h-0.329V86.1z"/>
	<g>
		<path fill="#231F20" d="M117.671,25.471h-2.187V13.968h-3.935v-1.876h10.057v1.876h-3.935V25.471z"/>
		<path fill="#231F20" d="M132.161,25.471h-7.568V12.092h7.568v1.849h-5.381v3.642h5.042v1.831h-5.042v4.2h5.381V25.471z"/>
		<path fill="#231F20" d="M145.826,25.471h-2.517l-3.349-5.472l-3.376,5.472h-2.343l4.438-6.936l-4.154-6.442h2.434l3.093,5.061
			l3.093-5.061h2.361l-4.182,6.479L145.826,25.471z"/>
		<path fill="#231F20" d="M156.847,25.471l-1.336-3.715h-5.115l-1.309,3.715h-2.306l5.005-13.433h2.379l5.005,13.433H156.847z
			 M154.934,19.871l-1.253-3.642c-0.092-0.244-0.218-0.628-0.38-1.153c-0.162-0.525-0.273-0.909-0.334-1.153
			c-0.165,0.75-0.406,1.571-0.723,2.461l-1.208,3.487H154.934z"/>
		<path fill="#231F20" d="M169.569,21.838c0,1.189-0.43,2.123-1.29,2.8c-0.86,0.677-2.047,1.016-3.56,1.016
			c-1.513,0-2.751-0.235-3.715-0.705v-2.068c0.61,0.287,1.258,0.513,1.944,0.677c0.687,0.165,1.326,0.247,1.917,0.247
			c0.866,0,1.505-0.165,1.917-0.494c0.412-0.329,0.618-0.771,0.618-1.327c0-0.5-0.189-0.924-0.567-1.272
			c-0.378-0.348-1.159-0.76-2.343-1.235c-1.22-0.494-2.08-1.059-2.581-1.693c-0.5-0.634-0.75-1.397-0.75-2.288
			c0-1.117,0.396-1.995,1.189-2.636s1.857-0.961,3.193-0.961c1.281,0,2.556,0.281,3.825,0.842l-0.695,1.784
			c-1.189-0.5-2.251-0.75-3.185-0.75c-0.708,0-1.245,0.154-1.61,0.462c-0.366,0.308-0.549,0.715-0.549,1.222
			c0,0.348,0.073,0.645,0.22,0.892s0.387,0.48,0.723,0.7c0.335,0.219,0.939,0.509,1.812,0.869c0.982,0.409,1.702,0.79,2.16,1.144
			c0.458,0.354,0.793,0.754,1.006,1.199C169.463,20.709,169.569,21.234,169.569,21.838z"/>
		<path fill="#231F20" d="M187.201,25.471l-1.336-3.715h-5.115l-1.309,3.715h-2.306l5.005-13.433h2.379l5.006,13.433H187.201z
			 M185.289,19.871l-1.254-3.642c-0.092-0.244-0.219-0.628-0.38-1.153c-0.161-0.525-0.273-0.909-0.334-1.153
			c-0.165,0.75-0.405,1.571-0.724,2.461l-1.207,3.487H185.289z"/>
		<path fill="#231F20" d="M191.322,21.929c0-0.799,0.195-1.496,0.586-2.091s1.095-1.185,2.113-1.771
			c-0.579-0.677-0.975-1.249-1.185-1.716s-0.315-0.95-0.315-1.451c0-0.927,0.33-1.659,0.992-2.196
			c0.662-0.537,1.551-0.806,2.668-0.806c1.08,0,1.928,0.261,2.543,0.783c0.617,0.521,0.925,1.225,0.925,2.109
			c0,0.695-0.206,1.327-0.618,1.894c-0.411,0.567-1.1,1.135-2.062,1.702l3.166,3.056c0.494-0.653,0.906-1.61,1.234-2.874h2.215
			c-0.427,1.733-1.109,3.145-2.049,4.237l2.754,2.663h-2.773l-1.363-1.327c-0.621,0.5-1.285,0.877-1.99,1.13
			c-0.704,0.253-1.483,0.38-2.338,0.38c-1.402,0-2.504-0.333-3.303-0.998C191.722,23.991,191.322,23.083,191.322,21.929z
			 M195.934,23.805c1.117,0,2.072-0.326,2.865-0.979l-3.505-3.45c-0.647,0.415-1.093,0.804-1.337,1.167
			c-0.243,0.363-0.365,0.776-0.365,1.24c0,0.598,0.212,1.084,0.636,1.46C194.652,23.618,195.221,23.805,195.934,23.805z
			 M194.57,14.975c0,0.384,0.103,0.748,0.307,1.089c0.205,0.341,0.49,0.705,0.855,1.089c0.689-0.391,1.174-0.755,1.451-1.094
			c0.277-0.338,0.416-0.718,0.416-1.139c0-0.396-0.133-0.714-0.398-0.952c-0.265-0.238-0.617-0.357-1.057-0.357
			c-0.482,0-0.865,0.124-1.148,0.371S194.57,14.56,194.57,14.975z"/>
		<path fill="#231F20" d="M212.783,25.471l-3.879-11.173h-0.074c0.104,1.659,0.156,3.215,0.156,4.667v6.506H207V12.092h3.084
			l3.715,10.643h0.056l3.825-10.643h3.093v13.378h-2.104v-6.616c0-0.665,0.017-1.531,0.05-2.599c0.034-1.067,0.062-1.714,0.087-1.94
			h-0.072l-4.018,11.155H212.783z"/>
		<path fill="#231F20" d="M241.524,12.092v8.657c0,0.988-0.212,1.853-0.636,2.594s-1.037,1.312-1.84,1.711
			c-0.803,0.4-1.762,0.6-2.877,0.6c-1.66,0-2.95-0.439-3.871-1.318c-0.922-0.878-1.383-2.086-1.383-3.624v-8.62h2.197v8.464
			c0,1.104,0.256,1.919,0.768,2.443c0.514,0.525,1.301,0.787,2.361,0.787c2.062,0,3.094-1.083,3.094-3.249v-8.446H241.524z"/>
		<path fill="#231F20" d="M257.011,25.471h-2.681l-6.58-10.661h-0.072l0.045,0.595c0.086,1.135,0.129,2.172,0.129,3.111v6.955
			h-1.986V12.092h2.654l6.561,10.606h0.055c-0.012-0.141-0.037-0.651-0.073-1.533c-0.036-0.881-0.055-1.569-0.055-2.063v-7.009
			h2.004V25.471z"/>
		<path fill="#231F20" d="M261.461,25.471V12.092h2.188v13.378H261.461z"/>
		<path fill="#231F20" d="M275.721,12.092h2.27l-4.686,13.378H271l-4.668-13.378h2.252l2.791,8.318
			c0.146,0.397,0.302,0.908,0.467,1.533c0.164,0.625,0.271,1.091,0.32,1.396c0.078-0.463,0.201-1,0.365-1.61
			c0.165-0.61,0.299-1.062,0.402-1.354L275.721,12.092z"/>
		<path fill="#231F20" d="M288.243,25.471h-7.567V12.092h7.567v1.849h-5.381v3.642h5.042v1.831h-5.042v4.2h5.381V25.471z"/>
		<path fill="#231F20" d="M294.24,20.126v5.344h-2.188V12.092h3.779c1.727,0,3.004,0.323,3.834,0.97
			c0.83,0.646,1.244,1.623,1.244,2.928c0,1.665-0.865,2.852-2.598,3.56l3.779,5.92h-2.49l-3.202-5.344H294.24z M294.24,18.315h1.519
			c1.019,0,1.757-0.189,2.214-0.567c0.458-0.378,0.688-0.939,0.688-1.684c0-0.757-0.248-1.3-0.742-1.629
			c-0.494-0.33-1.238-0.494-2.232-0.494h-1.445V18.315z"/>
		<path fill="#231F20" d="M312.663,21.838c0,1.189-0.43,2.123-1.29,2.8c-0.86,0.677-2.047,1.016-3.56,1.016
			s-2.751-0.235-3.716-0.705v-2.068c0.61,0.287,1.259,0.513,1.945,0.677c0.686,0.165,1.325,0.247,1.917,0.247
			c0.866,0,1.505-0.165,1.917-0.494c0.412-0.329,0.617-0.771,0.617-1.327c0-0.5-0.189-0.924-0.566-1.272
			c-0.379-0.348-1.16-0.76-2.344-1.235c-1.22-0.494-2.08-1.059-2.58-1.693s-0.75-1.397-0.75-2.288c0-1.117,0.396-1.995,1.189-2.636
			s1.857-0.961,3.193-0.961c1.281,0,2.557,0.281,3.825,0.842l-0.695,1.784c-1.189-0.5-2.251-0.75-3.185-0.75
			c-0.707,0-1.244,0.154-1.61,0.462s-0.55,0.715-0.55,1.222c0,0.348,0.074,0.645,0.221,0.892s0.387,0.48,0.723,0.7
			c0.335,0.219,0.939,0.509,1.812,0.869c0.982,0.409,1.702,0.79,2.159,1.144c0.458,0.354,0.793,0.754,1.007,1.199
			S312.663,21.234,312.663,21.838z"/>
		<path fill="#231F20" d="M316.189,25.471V12.092h2.188v13.378H316.189z"/>
		<path fill="#231F20" d="M327.449,25.471h-2.188V13.968h-3.936v-1.876h10.058v1.876h-3.935V25.471z"/>
		<path fill="#231F20" d="M338.149,18.196l3.167-6.104h2.379l-4.456,8.19v5.188h-2.196v-5.115l-4.438-8.263h2.379L338.149,18.196z"
			/>
	</g>
	<g>
		<path fill="#231F20" d="M126.419,45.194c-2.94,0-5.262,0.979-6.964,2.938c-1.702,1.958-2.553,4.639-2.553,8.043
			c0,3.502,0.82,6.208,2.461,8.117c1.641,1.91,3.98,2.864,7.019,2.864c1.867,0,3.996-0.335,6.387-1.007v2.727
			c-1.854,0.695-4.142,1.043-6.863,1.043c-3.941,0-6.982-1.196-9.124-3.587c-2.141-2.391-3.212-5.789-3.212-10.194
			c0-2.757,0.516-5.173,1.546-7.248c1.031-2.074,2.52-3.672,4.466-4.795c1.946-1.122,4.237-1.684,6.872-1.684
			c2.806,0,5.259,0.512,7.357,1.537l-1.318,2.672C130.47,45.67,128.445,45.194,126.419,45.194z"/>
		<path fill="#231F20" d="M155.464,59.506c0,3.27-0.823,5.823-2.471,7.659c-1.647,1.836-3.923,2.754-6.826,2.754
			c-1.794,0-3.386-0.421-4.777-1.263c-1.391-0.842-2.465-2.05-3.221-3.624s-1.135-3.416-1.135-5.527c0-3.27,0.817-5.817,2.453-7.641
			c1.635-1.824,3.904-2.736,6.808-2.736c2.806,0,5.036,0.933,6.689,2.8S155.464,56.322,155.464,59.506z M140.182,59.506
			c0,2.562,0.513,4.514,1.538,5.856s2.531,2.013,4.521,2.013c1.988,0,3.498-0.668,4.529-2.004c1.031-1.336,1.546-3.291,1.546-5.865
			c0-2.55-0.516-4.487-1.546-5.811c-1.031-1.324-2.553-1.985-4.566-1.985c-1.989,0-3.49,0.653-4.502,1.958
			C140.688,54.974,140.182,56.919,140.182,59.506z"/>
		<path fill="#231F20" d="M163.828,69.554h-3.038V41.077h3.038V69.554z"/>
		<path fill="#231F20" d="M173.308,69.554h-3.038V41.077h3.038V69.554z"/>
		<path fill="#231F20" d="M188.224,69.92c-2.965,0-5.305-0.903-7.019-2.709c-1.714-1.805-2.572-4.312-2.572-7.522
			c0-3.233,0.796-5.801,2.388-7.705c1.593-1.903,3.73-2.855,6.415-2.855c2.513,0,4.502,0.827,5.966,2.479
			c1.465,1.654,2.197,3.834,2.197,6.543v1.922h-13.818c0.061,2.354,0.656,4.142,1.785,5.362c1.128,1.22,2.717,1.83,4.768,1.83
			c2.158,0,4.294-0.451,6.404-1.354v2.708c-1.073,0.464-2.089,0.796-3.047,0.998S189.578,69.92,188.224,69.92z M187.4,51.673
			c-1.611,0-2.896,0.524-3.854,1.574c-0.957,1.049-1.521,2.501-1.692,4.356h10.487c0-1.916-0.428-3.383-1.281-4.402
			C190.206,52.183,188.986,51.673,187.4,51.673z"/>
		<path fill="#231F20" d="M217.195,49.495v1.922l-3.715,0.439c0.341,0.427,0.646,0.986,0.914,1.675
			c0.269,0.689,0.403,1.467,0.403,2.333c0,1.964-0.671,3.532-2.013,4.704c-1.343,1.171-3.186,1.757-5.527,1.757
			c-0.598,0-1.16-0.049-1.684-0.146c-1.294,0.684-1.94,1.543-1.94,2.581c0,0.549,0.226,0.955,0.677,1.217
			c0.451,0.263,1.227,0.394,2.324,0.394h3.551c2.172,0,3.84,0.458,5.006,1.373c1.164,0.915,1.748,2.245,1.748,3.99
			c0,2.221-0.891,3.914-2.672,5.079c-1.782,1.165-4.381,1.748-7.797,1.748c-2.623,0-4.646-0.488-6.067-1.464
			s-2.132-2.354-2.132-4.136c0-1.22,0.391-2.276,1.172-3.167c0.779-0.89,1.878-1.494,3.293-1.812
			c-0.512-0.232-0.941-0.592-1.289-1.08c-0.348-0.488-0.521-1.055-0.521-1.702c0-0.732,0.194-1.373,0.585-1.921
			c0.39-0.549,1.007-1.08,1.849-1.592c-1.037-0.427-1.883-1.153-2.535-2.178s-0.979-2.196-0.979-3.514
			c0-2.196,0.658-3.889,1.977-5.079c1.317-1.189,3.184-1.784,5.6-1.784c1.049,0,1.995,0.122,2.837,0.366H217.195z M201.199,72.921
			c0,1.085,0.458,1.909,1.373,2.471c0.915,0.561,2.227,0.842,3.935,0.842c2.55,0,4.438-0.382,5.665-1.144
			c1.226-0.763,1.839-1.796,1.839-3.102c0-1.086-0.336-1.839-1.007-2.26s-1.934-0.631-3.788-0.631h-3.642
			c-1.379,0-2.453,0.33-3.222,0.988S201.199,71.688,201.199,72.921z M202.847,55.919c0,1.403,0.396,2.465,1.189,3.185
			c0.793,0.72,1.897,1.08,3.313,1.08c2.965,0,4.447-1.439,4.447-4.319c0-3.014-1.502-4.521-4.503-4.521
			c-1.427,0-2.525,0.384-3.294,1.153C203.23,53.265,202.847,54.406,202.847,55.919z"/>
		<path fill="#231F20" d="M229.787,69.92c-2.965,0-5.305-0.903-7.02-2.709c-1.714-1.805-2.571-4.312-2.571-7.522
			c0-3.233,0.796-5.801,2.389-7.705s3.729-2.855,6.415-2.855c2.513,0,4.502,0.827,5.966,2.479c1.464,1.654,2.196,3.834,2.196,6.543
			v1.922h-13.818c0.062,2.354,0.656,4.142,1.785,5.362s2.718,1.83,4.768,1.83c2.159,0,4.295-0.451,6.405-1.354v2.708
			c-1.073,0.464-2.089,0.796-3.048,0.998C232.297,69.819,231.141,69.92,229.787,69.92z M228.963,51.673
			c-1.61,0-2.895,0.524-3.853,1.574s-1.522,2.501-1.692,4.356h10.486c0-1.916-0.428-3.383-1.281-4.402
			C231.77,52.183,230.549,51.673,228.963,51.673z"/>
		<path fill="#231F20" d="M269.391,59.506c0,3.27-0.823,5.823-2.471,7.659c-1.646,1.836-3.923,2.754-6.826,2.754
			c-1.794,0-3.386-0.421-4.777-1.263c-1.391-0.842-2.465-2.05-3.221-3.624s-1.135-3.416-1.135-5.527c0-3.27,0.817-5.817,2.453-7.641
			c1.635-1.824,3.904-2.736,6.808-2.736c2.806,0,5.036,0.933,6.688,2.8C268.564,53.796,269.391,56.322,269.391,59.506z
			 M254.109,59.506c0,2.562,0.512,4.514,1.537,5.856s2.531,2.013,4.521,2.013c1.988,0,3.498-0.668,4.529-2.004
			c1.03-1.336,1.546-3.291,1.546-5.865c0-2.55-0.516-4.487-1.546-5.811c-1.031-1.324-2.553-1.985-4.565-1.985
			c-1.99,0-3.49,0.653-4.503,1.958C254.615,54.974,254.109,56.919,254.109,59.506z"/>
		<path fill="#231F20" d="M283.758,51.856h-5.106v17.698h-3.038V51.856h-3.587v-1.373l3.587-1.098v-1.116
			c0-4.929,2.153-7.394,6.461-7.394c1.061,0,2.306,0.213,3.733,0.64l-0.787,2.434c-1.171-0.378-2.172-0.567-3.001-0.567
			c-1.147,0-1.996,0.382-2.545,1.144c-0.549,0.763-0.823,1.986-0.823,3.669v1.299h5.106V51.856z"/>
		<path fill="#231F20" d="M314.431,69.554l-3.331-8.51h-10.725l-3.294,8.51h-3.147l10.578-26.867h2.617l10.523,26.867H314.431z
			 M310.13,58.243l-3.111-8.291c-0.402-1.049-0.817-2.336-1.244-3.861c-0.269,1.171-0.653,2.458-1.153,3.861l-3.148,8.291H310.13z"
			/>
		<path fill="#231F20" d="M337.289,49.495v1.922l-3.715,0.439c0.342,0.427,0.646,0.986,0.914,1.675
			c0.27,0.689,0.404,1.467,0.404,2.333c0,1.964-0.672,3.532-2.014,4.704c-1.342,1.171-3.185,1.757-5.527,1.757
			c-0.598,0-1.159-0.049-1.684-0.146c-1.293,0.684-1.939,1.543-1.939,2.581c0,0.549,0.225,0.955,0.677,1.217
			c0.451,0.263,1.226,0.394,2.324,0.394h3.55c2.172,0,3.84,0.458,5.006,1.373s1.748,2.245,1.748,3.99
			c0,2.221-0.891,3.914-2.672,5.079s-4.381,1.748-7.797,1.748c-2.623,0-4.646-0.488-6.066-1.464
			c-1.422-0.976-2.133-2.354-2.133-4.136c0-1.22,0.391-2.276,1.172-3.167c0.78-0.89,1.879-1.494,3.294-1.812
			c-0.513-0.232-0.942-0.592-1.29-1.08c-0.348-0.488-0.521-1.055-0.521-1.702c0-0.732,0.195-1.373,0.586-1.921
			c0.39-0.549,1.006-1.08,1.848-1.592c-1.037-0.427-1.882-1.153-2.535-2.178c-0.652-1.025-0.979-2.196-0.979-3.514
			c0-2.196,0.659-3.889,1.977-5.079c1.318-1.189,3.185-1.784,5.601-1.784c1.049,0,1.995,0.122,2.837,0.366H337.289z M321.294,72.921
			c0,1.085,0.458,1.909,1.372,2.471c0.916,0.561,2.227,0.842,3.936,0.842c2.55,0,4.438-0.382,5.664-1.144
			c1.227-0.763,1.84-1.796,1.84-3.102c0-1.086-0.336-1.839-1.008-2.26c-0.67-0.421-1.934-0.631-3.787-0.631h-3.643
			c-1.379,0-2.453,0.33-3.221,0.988C321.678,70.743,321.294,71.688,321.294,72.921z M322.941,55.919
			c0,1.403,0.396,2.465,1.189,3.185c0.793,0.72,1.896,1.08,3.312,1.08c2.965,0,4.447-1.439,4.447-4.319
			c0-3.014-1.501-4.521-4.502-4.521c-1.428,0-2.525,0.384-3.295,1.153C323.325,53.265,322.941,54.406,322.941,55.919z"/>
		<path fill="#231F20" d="M350.559,49.129c0.891,0,1.689,0.073,2.397,0.219l-0.421,2.819c-0.83-0.183-1.562-0.275-2.196-0.275
			c-1.623,0-3.011,0.659-4.164,1.977c-1.152,1.318-1.729,2.959-1.729,4.923v10.761h-3.038V49.495h2.508l0.348,3.715h0.146
			c0.744-1.305,1.641-2.312,2.69-3.02C348.148,49.483,349.302,49.129,350.559,49.129z"/>
		<path fill="#231F20" d="M356.451,44.06c0-0.695,0.171-1.205,0.513-1.528c0.341-0.323,0.769-0.485,1.281-0.485
			c0.487,0,0.908,0.165,1.263,0.494c0.354,0.33,0.53,0.836,0.53,1.519c0,0.684-0.177,1.193-0.53,1.528
			c-0.354,0.336-0.775,0.503-1.263,0.503c-0.513,0-0.94-0.167-1.281-0.503C356.622,45.252,356.451,44.743,356.451,44.06z
			 M359.745,69.554h-3.038V49.495h3.038V69.554z"/>
		<path fill="#231F20" d="M374.203,69.92c-2.904,0-5.152-0.894-6.744-2.681c-1.593-1.788-2.389-4.316-2.389-7.586
			c0-3.355,0.809-5.948,2.425-7.778c1.617-1.83,3.92-2.745,6.909-2.745c0.964,0,1.928,0.104,2.892,0.311s1.721,0.452,2.27,0.732
			l-0.934,2.581c-0.671-0.268-1.403-0.491-2.196-0.668s-1.494-0.266-2.104-0.266c-4.075,0-6.112,2.599-6.112,7.797
			c0,2.464,0.497,4.355,1.491,5.673c0.994,1.317,2.468,1.977,4.42,1.977c1.671,0,3.386-0.36,5.143-1.08v2.69
			C377.93,69.572,376.24,69.92,374.203,69.92z"/>
		<path fill="#231F20" d="M386.887,49.495v13.013c0,1.635,0.372,2.855,1.116,3.66s1.909,1.208,3.496,1.208
			c2.098,0,3.633-0.574,4.603-1.721c0.97-1.146,1.455-3.02,1.455-5.618V49.495h3.038v20.059h-2.508l-0.439-2.69h-0.164
			c-0.622,0.988-1.485,1.745-2.59,2.27s-2.364,0.787-3.779,0.787c-2.44,0-4.268-0.58-5.481-1.739s-1.821-3.014-1.821-5.563V49.495
			H386.887z"/>
		<path fill="#231F20" d="M410.074,69.554h-3.038V41.077h3.038V69.554z"/>
		<path fill="#231F20" d="M422.995,67.413c0.536,0,1.055-0.04,1.556-0.119c0.5-0.079,0.896-0.162,1.189-0.247v2.324
			c-0.33,0.159-0.814,0.29-1.455,0.394c-0.641,0.104-1.217,0.156-1.729,0.156c-3.88,0-5.82-2.043-5.82-6.131V51.856h-2.873v-1.464
			l2.873-1.263l1.281-4.283h1.757v4.648h5.82v2.361h-5.82v11.805c0,1.208,0.287,2.135,0.86,2.782
			C421.207,67.089,421.994,67.413,422.995,67.413z"/>
		<path fill="#231F20" d="M432.604,49.495v13.013c0,1.635,0.372,2.855,1.116,3.66s1.909,1.208,3.496,1.208
			c2.098,0,3.633-0.574,4.603-1.721c0.97-1.146,1.455-3.02,1.455-5.618V49.495h3.038v20.059h-2.508l-0.439-2.69H443.2
			c-0.622,0.988-1.485,1.745-2.59,2.27s-2.364,0.787-3.779,0.787c-2.44,0-4.268-0.58-5.481-1.739s-1.821-3.014-1.821-5.563V49.495
			H432.604z"/>
		<path fill="#231F20" d="M461.904,49.129c0.891,0,1.689,0.073,2.397,0.219l-0.421,2.819c-0.83-0.183-1.562-0.275-2.196-0.275
			c-1.623,0-3.011,0.659-4.164,1.977c-1.152,1.318-1.729,2.959-1.729,4.923v10.761h-3.038V49.495h2.508l0.348,3.715h0.146
			c0.744-1.305,1.641-2.312,2.69-3.02C459.494,49.483,460.647,49.129,461.904,49.129z"/>
		<path fill="#231F20" d="M476.526,69.92c-2.965,0-5.305-0.903-7.019-2.709c-1.714-1.805-2.571-4.312-2.571-7.522
			c0-3.233,0.796-5.801,2.389-7.705c1.592-1.903,3.73-2.855,6.414-2.855c2.514,0,4.503,0.827,5.967,2.479
			c1.464,1.654,2.196,3.834,2.196,6.543v1.922h-13.817c0.061,2.354,0.655,4.142,1.784,5.362c1.128,1.22,2.718,1.83,4.768,1.83
			c2.159,0,4.294-0.451,6.405-1.354v2.708c-1.074,0.464-2.09,0.796-3.047,0.998C479.037,69.819,477.881,69.92,476.526,69.92z
			 M475.703,51.673c-1.61,0-2.895,0.524-3.853,1.574s-1.522,2.501-1.692,4.356h10.486c0-1.916-0.427-3.383-1.281-4.402
			C478.509,52.183,477.289,51.673,475.703,51.673z"/>
		<path fill="#231F20" d="M497.666,62.618c0-1.586,0.424-2.989,1.271-4.209s2.37-2.453,4.566-3.697
			c-1.037-1.159-1.742-2.038-2.114-2.636c-0.372-0.598-0.668-1.22-0.887-1.867c-0.22-0.646-0.33-1.318-0.33-2.013
			c0-1.83,0.598-3.258,1.794-4.283c1.195-1.025,2.86-1.537,4.996-1.537c1.977,0,3.532,0.51,4.667,1.528s1.702,2.437,1.702,4.255
			c0,1.306-0.415,2.511-1.245,3.615c-0.829,1.104-2.202,2.224-4.117,3.358l7.448,7.156c0.684-0.756,1.229-1.644,1.639-2.663
			c0.408-1.019,0.753-2.132,1.033-3.34h3.075c-0.83,3.49-2.08,6.137-3.752,7.943l5.472,5.326h-4.19l-3.386-3.258
			c-1.44,1.293-2.904,2.221-4.393,2.782c-1.488,0.562-3.147,0.842-4.978,0.842c-2.624,0-4.658-0.647-6.104-1.94
			C498.389,66.687,497.666,64.899,497.666,62.618z M506.011,67.193c2.94,0,5.381-0.939,7.321-2.818l-7.998-7.76
			c-1.354,0.83-2.312,1.516-2.873,2.059c-0.562,0.543-0.977,1.125-1.245,1.748c-0.269,0.622-0.402,1.33-0.402,2.123
			c0,1.427,0.473,2.559,1.419,3.395C503.178,66.775,504.438,67.193,506.011,67.193z M503.175,48.123c0,0.842,0.22,1.645,0.658,2.407
			c0.439,0.763,1.189,1.681,2.251,2.754c1.574-0.915,2.669-1.76,3.285-2.535s0.925-1.668,0.925-2.681
			c0-0.939-0.314-1.705-0.942-2.297c-0.629-0.592-1.468-0.888-2.517-0.888c-1.086,0-1.968,0.293-2.645,0.878
			C503.513,46.347,503.175,47.134,503.175,48.123z"/>
		<path fill="#231F20" d="M536.373,69.554V42.797h3.111v23.938h11.805v2.818H536.373z"/>
		<path fill="#231F20" d="M555.113,44.06c0-0.695,0.171-1.205,0.513-1.528c0.341-0.323,0.769-0.485,1.281-0.485
			c0.487,0,0.908,0.165,1.263,0.494c0.354,0.33,0.53,0.836,0.53,1.519c0,0.684-0.177,1.193-0.53,1.528
			c-0.354,0.336-0.775,0.503-1.263,0.503c-0.513,0-0.94-0.167-1.281-0.503C555.284,45.252,555.113,44.743,555.113,44.06z
			 M558.407,69.554h-3.038V49.495h3.038V69.554z"/>
		<path fill="#231F20" d="M573.891,51.856h-5.105v17.698h-3.038V51.856h-3.588v-1.373l3.588-1.098v-1.116
			c0-4.929,2.153-7.394,6.46-7.394c1.062,0,2.306,0.213,3.733,0.64l-0.787,2.434c-1.171-0.378-2.172-0.567-3.001-0.567
			c-1.147,0-1.995,0.382-2.544,1.144c-0.549,0.763-0.823,1.986-0.823,3.669v1.299h5.105V51.856z"/>
		<path fill="#231F20" d="M586.024,69.92c-2.965,0-5.305-0.903-7.019-2.709c-1.714-1.805-2.571-4.312-2.571-7.522
			c0-3.233,0.796-5.801,2.389-7.705c1.592-1.903,3.73-2.855,6.414-2.855c2.514,0,4.503,0.827,5.967,2.479
			c1.464,1.654,2.196,3.834,2.196,6.543v1.922h-13.817c0.061,2.354,0.655,4.142,1.784,5.362c1.128,1.22,2.718,1.83,4.768,1.83
			c2.159,0,4.294-0.451,6.405-1.354v2.708c-1.074,0.464-2.09,0.796-3.047,0.998C588.535,69.819,587.379,69.92,586.024,69.92z
			 M585.201,51.673c-1.61,0-2.895,0.524-3.853,1.574s-1.522,2.501-1.692,4.356h10.486c0-1.916-0.427-3.383-1.281-4.402
			C588.007,52.183,586.787,51.673,585.201,51.673z"/>
		<path fill="#231F20" d="M623.872,62.435c0,2.355-0.854,4.191-2.562,5.509c-1.708,1.317-4.026,1.977-6.954,1.977
			c-3.173,0-5.612-0.409-7.32-1.227v-3.001c1.098,0.464,2.293,0.83,3.587,1.098c1.293,0.269,2.574,0.403,3.843,0.403
			c2.074,0,3.636-0.394,4.686-1.181c1.049-0.787,1.574-1.882,1.574-3.285c0-0.927-0.187-1.687-0.559-2.278s-0.994-1.138-1.867-1.638
			c-0.872-0.5-2.199-1.067-3.98-1.702c-2.488-0.891-4.267-1.946-5.335-3.167c-1.067-1.22-1.601-2.812-1.601-4.776
			c0-2.062,0.774-3.703,2.324-4.923c1.549-1.22,3.599-1.83,6.149-1.83c2.659,0,5.105,0.488,7.339,1.464l-0.971,2.709
			c-2.208-0.927-4.355-1.391-6.441-1.391c-1.647,0-2.935,0.354-3.862,1.062c-0.927,0.708-1.391,1.69-1.391,2.947
			c0,0.927,0.171,1.687,0.513,2.278c0.341,0.592,0.918,1.135,1.729,1.629c0.811,0.494,2.053,1.04,3.724,1.638
			c2.807,1.001,4.737,2.075,5.793,3.221C623.344,59.116,623.872,60.604,623.872,62.435z"/>
		<path fill="#231F20" d="M636.903,69.92c-2.904,0-5.152-0.894-6.744-2.681c-1.593-1.788-2.389-4.316-2.389-7.586
			c0-3.355,0.809-5.948,2.425-7.778c1.617-1.83,3.92-2.745,6.909-2.745c0.964,0,1.928,0.104,2.892,0.311s1.721,0.452,2.27,0.732
			l-0.934,2.581c-0.671-0.268-1.403-0.491-2.196-0.668s-1.494-0.266-2.104-0.266c-4.075,0-6.112,2.599-6.112,7.797
			c0,2.464,0.497,4.355,1.491,5.673c0.994,1.317,2.468,1.977,4.42,1.977c1.671,0,3.386-0.36,5.143-1.08v2.69
			C640.63,69.572,638.94,69.92,636.903,69.92z"/>
		<path fill="#231F20" d="M646.475,44.06c0-0.695,0.171-1.205,0.513-1.528c0.341-0.323,0.769-0.485,1.281-0.485
			c0.487,0,0.908,0.165,1.263,0.494c0.354,0.33,0.53,0.836,0.53,1.519c0,0.684-0.177,1.193-0.53,1.528
			c-0.354,0.336-0.775,0.503-1.263,0.503c-0.513,0-0.94-0.167-1.281-0.503C646.646,45.252,646.475,44.743,646.475,44.06z
			 M649.769,69.554h-3.038V49.495h3.038V69.554z"/>
		<path fill="#231F20" d="M664.685,69.92c-2.965,0-5.305-0.903-7.019-2.709c-1.714-1.805-2.571-4.312-2.571-7.522
			c0-3.233,0.796-5.801,2.389-7.705c1.592-1.903,3.73-2.855,6.414-2.855c2.514,0,4.503,0.827,5.967,2.479
			c1.464,1.654,2.196,3.834,2.196,6.543v1.922h-13.817c0.061,2.354,0.655,4.142,1.784,5.362c1.128,1.22,2.718,1.83,4.768,1.83
			c2.159,0,4.294-0.451,6.405-1.354v2.708c-1.074,0.464-2.09,0.796-3.047,0.998C667.195,69.819,666.039,69.92,664.685,69.92z
			 M663.861,51.673c-1.61,0-2.895,0.524-3.853,1.574s-1.522,2.501-1.692,4.356h10.486c0-1.916-0.427-3.383-1.281-4.402
			C666.667,52.183,665.447,51.673,663.861,51.673z"/>
		<path fill="#231F20" d="M690.966,69.554V56.578c0-1.635-0.372-2.855-1.116-3.661c-0.744-0.805-1.91-1.208-3.496-1.208
			c-2.099,0-3.636,0.567-4.611,1.702c-0.977,1.135-1.465,3.008-1.465,5.619v10.523h-3.038V49.495h2.471l0.494,2.746h0.146
			c0.622-0.988,1.495-1.754,2.617-2.297c1.123-0.543,2.373-0.814,3.752-0.814c2.416,0,4.233,0.583,5.454,1.748
			c1.22,1.166,1.83,3.029,1.83,5.591v13.085H690.966z"/>
		<path fill="#231F20" d="M708.261,69.92c-2.904,0-5.152-0.894-6.744-2.681c-1.593-1.788-2.389-4.316-2.389-7.586
			c0-3.355,0.809-5.948,2.425-7.778c1.617-1.83,3.92-2.745,6.909-2.745c0.964,0,1.928,0.104,2.892,0.311s1.721,0.452,2.27,0.732
			l-0.934,2.581c-0.671-0.268-1.403-0.491-2.196-0.668s-1.494-0.266-2.104-0.266c-4.075,0-6.112,2.599-6.112,7.797
			c0,2.464,0.497,4.355,1.491,5.673c0.994,1.317,2.468,1.977,4.42,1.977c1.671,0,3.386-0.36,5.143-1.08v2.69
			C711.987,69.572,710.298,69.92,708.261,69.92z"/>
		<path fill="#231F20" d="M726.562,69.92c-2.965,0-5.305-0.903-7.019-2.709c-1.714-1.805-2.571-4.312-2.571-7.522
			c0-3.233,0.796-5.801,2.389-7.705c1.592-1.903,3.73-2.855,6.414-2.855c2.514,0,4.503,0.827,5.967,2.479
			c1.464,1.654,2.196,3.834,2.196,6.543v1.922H720.12c0.061,2.354,0.655,4.142,1.784,5.362c1.128,1.22,2.718,1.83,4.768,1.83
			c2.159,0,4.294-0.451,6.405-1.354v2.708c-1.074,0.464-2.09,0.796-3.047,0.998C729.072,69.819,727.916,69.92,726.562,69.92z
			 M725.738,51.673c-1.61,0-2.895,0.524-3.853,1.574s-1.522,2.501-1.692,4.356h10.486c0-1.916-0.427-3.383-1.281-4.402
			C728.544,52.183,727.324,51.673,725.738,51.673z"/>
	</g>
</g>
</svg>
