<?xml version="1.0" encoding="utf-8"?>
<!-- Generator: Adobe Illustrator 23.0.6, SVG Export Plug-In . SVG Version: 6.00 Build 0)  -->
<svg version="1.1" id="Layer_1" xmlns="http://www.w3.org/2000/svg" xmlns:xlink="http://www.w3.org/1999/xlink" x="0px" y="0px"
	 viewBox="0 0 244.4 54" style="enable-background:new 0 0 244.4 54;" xml:space="preserve">
<style type="text/css">
	.st0{display:none;}
	.st1{display:inline;fill:#4B1111;}
	.st2{display:inline;fill:#FFFFFF;}
	.st3{display:inline;fill:#B1B3B5;}
	.st4{display:inline;fill:#010101;}
	.st5{fill:#231F20;}
	.st6{fill:#4B1111;}
	.st7{fill:#FFFFFF;}
	.st8{fill:#B1B3B6;}
	.st9{fill:#5D0025;}
</style>
<g class="st0">
	<rect class="st1" width="53.6" height="54"/>
	<polygon class="st2" points="46.5,21.5 42.5,21.5 42.3,21.5 42.1,21.7 39.3,27.7 36.4,21.7 36.3,21.5 36,21.5 32.2,21.5 31.8,21.5 
		31.8,21.9 31.8,23.9 31.8,24.3 32.2,24.3 32.9,24.3 32.9,32.9 32.1,32.9 31.8,32.9 31.8,33.2 31.8,35.3 31.8,35.7 32.1,35.7 
		36.5,35.7 36.8,35.7 36.8,35.3 36.8,33.2 36.8,32.9 36.5,32.9 35.7,32.9 35.7,26.8 38.9,33.4 39.3,34.1 39.6,33.4 42.9,26.8 
		42.9,32.9 42.1,32.9 41.8,32.9 41.8,33.2 41.8,35.3 41.8,35.7 42.1,35.7 46.5,35.7 46.8,35.7 46.8,35.3 46.8,33.2 46.8,32.9 
		46.5,32.9 45.7,32.9 45.7,24.3 46.5,24.3 46.8,24.3 46.8,23.9 46.8,21.9 46.8,21.5 	"/>
	<path class="st2" d="M21.4,32.9h-1.1l-3.7-8.6h0.4h0.4v-0.4v-2.1v-0.4h-0.4h-5.3h-0.4v0.4v2.1v0.4h0.4H12l-3.7,8.6H7.1H6.7v0.4v2
		v0.4h0.4h4.7h0.4v-0.4v-2v-0.4h-0.4h-0.4l0.6-1.4h4.5l0.6,1.4h-0.5h-0.4v0.4v2v0.4h0.4h4.7h0.4v-0.4v-2v-0.4H21.4z M15.3,28.6h-2.1
		l1-2.4L15.3,28.6z"/>
	<polygon class="st2" points="41.9,10.7 11.6,10.7 11.2,10.7 11.2,11.1 11.2,19.2 11.2,19.6 11.6,19.6 16.8,19.6 17.2,19.6 
		17.2,19.2 17.2,16.2 23.7,16.2 23.7,37.5 20.7,37.5 20.3,37.5 20.3,38 20.3,43.2 20.3,43.6 20.7,43.6 32.8,43.6 33.2,43.6 
		33.2,43.2 33.2,38 33.2,37.5 32.8,37.5 29.8,37.5 29.8,16.2 36.2,16.2 36.2,19.2 36.2,19.6 36.6,19.6 41.9,19.6 42.3,19.6 
		42.3,19.2 42.3,11.1 42.3,10.7 	"/>
	<polygon class="st3" points="30.7,40 32,38.7 32,42.3 30.7,41.1 	"/>
	<polygon class="st3" points="28.5,38.8 27.3,40.1 27.3,13.7 28.5,15 	"/>
	<polygon class="st3" points="13.7,13.2 12.4,11.9 40.4,11.9 38.8,13.2 	"/>
	<polygon class="st3" points="41.1,18.4 39.8,17.2 39.8,13.9 41.1,12.6 	"/>
	<path class="st1" d="M55.5,52.9c0-0.6,0.5-1.1,1.1-1.1c0.6,0,1.1,0.5,1.1,1.1S57.1,54,56.6,54S55.5,53.5,55.5,52.9 M57.4,52.9
		c0-0.5-0.4-0.9-0.8-0.9c-0.4,0-0.8,0.4-0.8,0.9c0,0.5,0.4,0.9,0.8,0.9C57,53.8,57.4,53.4,57.4,52.9 M56.1,52.3h0.5
		c0.3,0,0.4,0.1,0.4,0.4c0,0.2-0.1,0.3-0.3,0.3l0.3,0.5h-0.2L56.5,53h-0.1v0.5h-0.2C56.1,53.5,56.1,52.3,56.1,52.3z M56.4,52.8h0.2
		c0.1,0,0.2,0,0.2-0.2c0-0.1-0.1-0.2-0.2-0.2h-0.2V52.8z"/>
	<polygon class="st4" points="71.7,8.5 70.5,8.5 70.5,2.4 68.4,2.4 68.4,1.4 73.8,1.4 73.8,2.4 71.7,2.4 	"/>
	<polygon class="st4" points="79.5,8.5 75.5,8.5 75.5,1.4 79.5,1.4 79.5,2.3 76.6,2.3 76.6,4.3 79.3,4.3 79.3,5.3 76.6,5.3 
		76.6,7.5 79.5,7.5 	"/>
	<polygon class="st4" points="86.7,8.5 85.4,8.5 83.6,5.6 81.8,8.5 80.5,8.5 82.9,4.8 80.7,1.4 82,1.4 83.6,4.1 85.3,1.4 86.6,1.4 
		84.3,4.8 	"/>
	<path class="st4" d="M92.6,8.5l-0.7-2h-2.7l-0.7,2h-1.2l2.7-7.2h1.3l2.7,7.2H92.6z M91.6,5.5L91,3.6c0-0.1-0.1-0.3-0.2-0.6
		c-0.1-0.3-0.1-0.5-0.2-0.6c-0.1,0.4-0.2,0.8-0.4,1.3l-0.6,1.9C89.5,5.5,91.6,5.5,91.6,5.5z"/>
	<path class="st4" d="M99.3,6.6c0,0.6-0.2,1.1-0.7,1.5c-0.5,0.4-1.1,0.5-1.9,0.5c-0.8,0-1.5-0.1-2-0.4V7.1c0.3,0.2,0.7,0.3,1,0.4
		c0.4,0.1,0.7,0.1,1,0.1c0.5,0,0.8-0.1,1-0.3c0.2-0.2,0.3-0.4,0.3-0.7c0-0.3-0.1-0.5-0.3-0.7c-0.2-0.2-0.6-0.4-1.2-0.7
		C96,5,95.5,4.7,95.2,4.4c-0.3-0.3-0.4-0.7-0.4-1.2c0-0.6,0.2-1.1,0.6-1.4s1-0.5,1.7-0.5c0.7,0,1.4,0.2,2,0.4l-0.4,1
		c-0.6-0.3-1.2-0.4-1.7-0.4c-0.4,0-0.7,0.1-0.9,0.2C96.1,2.7,96,2.9,96,3.2c0,0.2,0,0.3,0.1,0.5c0.1,0.1,0.2,0.3,0.4,0.4
		c0.2,0.1,0.5,0.3,1,0.5c0.5,0.2,0.9,0.4,1.2,0.6s0.4,0.4,0.5,0.6C99.3,6,99.3,6.2,99.3,6.6"/>
	<path class="st4" d="M108.6,8.5l-0.7-2h-2.7l-0.7,2h-1.2l2.7-7.2h1.3l2.7,7.2H108.6z M107.6,5.5l-0.7-1.9c0-0.1-0.1-0.3-0.2-0.6
		c-0.1-0.3-0.1-0.5-0.2-0.6c-0.1,0.4-0.2,0.8-0.4,1.3l-0.6,1.9C105.5,5.5,107.6,5.5,107.6,5.5z"/>
	<path class="st4" d="M110.7,6.6c0-0.4,0.1-0.8,0.3-1.1c0.2-0.3,0.6-0.6,1.1-0.9c-0.3-0.4-0.5-0.7-0.6-0.9c-0.1-0.2-0.2-0.5-0.2-0.8
		c0-0.5,0.2-0.9,0.5-1.2c0.4-0.3,0.8-0.4,1.4-0.4c0.6,0,1,0.1,1.4,0.4c0.3,0.3,0.5,0.7,0.5,1.1c0,0.4-0.1,0.7-0.3,1
		s-0.6,0.6-1.1,0.9l1.7,1.6c0.3-0.3,0.5-0.9,0.7-1.5h1.2c-0.2,0.9-0.6,1.7-1.1,2.3l1.5,1.4h-1.5l-0.7-0.7c-0.3,0.3-0.7,0.5-1.1,0.6
		c-0.4,0.1-0.8,0.2-1.2,0.2c-0.7,0-1.3-0.2-1.8-0.5C110.9,7.7,110.7,7.2,110.7,6.6 M113.2,7.6c0.6,0,1.1-0.2,1.5-0.5l-1.9-1.8
		c-0.3,0.2-0.6,0.4-0.7,0.6c-0.1,0.2-0.2,0.4-0.2,0.7c0,0.3,0.1,0.6,0.3,0.8C112.5,7.5,112.8,7.6,113.2,7.6 M112.4,2.9
		c0,0.2,0.1,0.4,0.2,0.6c0.1,0.2,0.3,0.4,0.5,0.6c0.4-0.2,0.6-0.4,0.8-0.6s0.2-0.4,0.2-0.6c0-0.2-0.1-0.4-0.2-0.5
		c-0.1-0.1-0.3-0.2-0.6-0.2c-0.3,0-0.5,0.1-0.6,0.2C112.5,2.5,112.4,2.7,112.4,2.9"/>
	<path class="st4" d="M122.3,8.5l-2.1-6h0c0.1,0.9,0.1,1.7,0.1,2.5v3.5h-1.1V1.4h1.6l2,5.7h0l2-5.7h1.7v7.1h-1.1V5
		c0-0.4,0-0.8,0-1.4c0-0.6,0-0.9,0-1h0l-2.1,6H122.3z"/>
	<path class="st4" d="M137.5,1.4V6c0,0.5-0.1,1-0.3,1.4c-0.2,0.4-0.6,0.7-1,0.9c-0.4,0.2-0.9,0.3-1.5,0.3c-0.9,0-1.6-0.2-2.1-0.7
		c-0.5-0.5-0.7-1.1-0.7-1.9V1.4h1.2v4.5c0,0.6,0.1,1,0.4,1.3c0.3,0.3,0.7,0.4,1.3,0.4c1.1,0,1.6-0.6,1.6-1.7V1.4H137.5z"/>
	<path class="st4" d="M145.9,8.5h-1.4l-3.5-5.7h0l0,0.3c0,0.6,0.1,1.2,0.1,1.7v3.7h-1.1V1.4h1.4l3.5,5.7h0c0-0.1,0-0.3,0-0.8
		c0-0.5,0-0.8,0-1.1V1.4h1.1L145.9,8.5L145.9,8.5z"/>
	<rect x="148.2" y="1.4" class="st4" width="1.2" height="7.1"/>
	<path class="st4" d="M155.7,1.4h1.2l-2.5,7.1h-1.2l-2.5-7.1h1.2l1.5,4.4c0.1,0.2,0.2,0.5,0.2,0.8c0.1,0.3,0.1,0.6,0.2,0.7
		c0-0.2,0.1-0.5,0.2-0.9c0.1-0.3,0.2-0.6,0.2-0.7L155.7,1.4z"/>
	<polygon class="st4" points="162.4,8.5 158.4,8.5 158.4,1.4 162.4,1.4 162.4,2.3 159.6,2.3 159.6,4.3 162.3,4.3 162.3,5.3 
		159.6,5.3 159.6,7.5 162.4,7.5 	"/>
	<path class="st4" d="M165.6,5.6v2.9h-1.2V1.4h2c0.9,0,1.6,0.2,2,0.5c0.4,0.3,0.7,0.9,0.7,1.6c0,0.9-0.5,1.5-1.4,1.9l2,3.2h-1.3
		l-1.7-2.9C166.7,5.6,165.6,5.6,165.6,5.6z M165.6,4.7h0.8c0.5,0,0.9-0.1,1.2-0.3c0.2-0.2,0.4-0.5,0.4-0.9c0-0.4-0.1-0.7-0.4-0.9
		c-0.3-0.2-0.7-0.3-1.2-0.3h-0.8V4.7z"/>
	<path class="st4" d="M175.5,6.6c0,0.6-0.2,1.1-0.7,1.5s-1.1,0.5-1.9,0.5s-1.5-0.1-2-0.4V7.1c0.3,0.2,0.7,0.3,1,0.4
		c0.4,0.1,0.7,0.1,1,0.1c0.5,0,0.8-0.1,1-0.3c0.2-0.2,0.3-0.4,0.3-0.7c0-0.3-0.1-0.5-0.3-0.7c-0.2-0.2-0.6-0.4-1.2-0.7
		c-0.7-0.3-1.1-0.6-1.4-0.9c-0.3-0.3-0.4-0.7-0.4-1.2c0-0.6,0.2-1.1,0.6-1.4c0.4-0.3,1-0.5,1.7-0.5c0.7,0,1.4,0.2,2,0.4l-0.4,1
		c-0.6-0.3-1.2-0.4-1.7-0.4c-0.4,0-0.7,0.1-0.9,0.2c-0.2,0.2-0.3,0.4-0.3,0.7c0,0.2,0,0.3,0.1,0.5s0.2,0.3,0.4,0.4
		c0.2,0.1,0.5,0.3,1,0.5c0.5,0.2,0.9,0.4,1.2,0.6c0.2,0.2,0.4,0.4,0.5,0.6C175.4,6,175.5,6.2,175.5,6.6"/>
	<rect x="177.4" y="1.4" class="st4" width="1.2" height="7.1"/>
	<polygon class="st4" points="183.3,8.5 182.2,8.5 182.2,2.4 180.1,2.4 180.1,1.4 185.4,1.4 185.4,2.4 183.3,2.4 	"/>
	<polygon class="st4" points="189.1,4.6 190.8,1.4 192.1,1.4 189.7,5.7 189.7,8.5 188.5,8.5 188.5,5.8 186.2,1.4 187.4,1.4 	"/>
	<path class="st4" d="M75.6,19c-1.4,0-2.5,0.5-3.3,1.4c-0.8,0.9-1.2,2.2-1.2,3.9c0,1.7,0.4,3,1.2,3.9s1.9,1.4,3.4,1.4
		c0.9,0,1.9-0.2,3.1-0.5v1.3c-0.9,0.3-2,0.5-3.3,0.5c-1.9,0-3.4-0.6-4.4-1.7c-1-1.1-1.5-2.8-1.5-4.9c0-1.3,0.2-2.5,0.7-3.5
		c0.5-1,1.2-1.8,2.1-2.3c0.9-0.5,2-0.8,3.3-0.8c1.3,0,2.5,0.2,3.5,0.7l-0.6,1.3C77.5,19.3,76.5,19,75.6,19"/>
	<path class="st4" d="M89.2,25.9c0,1.6-0.4,2.8-1.2,3.7c-0.8,0.9-1.9,1.3-3.3,1.3c-0.9,0-1.6-0.2-2.3-0.6s-1.2-1-1.5-1.7
		s-0.5-1.6-0.5-2.7c0-1.6,0.4-2.8,1.2-3.7c0.8-0.9,1.9-1.3,3.3-1.3c1.3,0,2.4,0.4,3.2,1.3C88.8,23.2,89.2,24.4,89.2,25.9 M81.8,25.9
		c0,1.2,0.2,2.2,0.7,2.8c0.5,0.6,1.2,1,2.2,1c1,0,1.7-0.3,2.2-1c0.5-0.6,0.7-1.6,0.7-2.8c0-1.2-0.2-2.2-0.7-2.8
		c-0.5-0.6-1.2-1-2.2-1c-1,0-1.7,0.3-2.2,0.9C82.1,23.7,81.8,24.7,81.8,25.9"/>
	<rect x="91.4" y="17.1" class="st4" width="1.5" height="13.7"/>
	<rect x="95.6" y="17.1" class="st4" width="1.5" height="13.7"/>
	<path class="st4" d="M104,30.9c-1.4,0-2.5-0.4-3.4-1.3c-0.8-0.9-1.2-2.1-1.2-3.6c0-1.6,0.4-2.8,1.1-3.7c0.8-0.9,1.8-1.4,3.1-1.4
		c1.2,0,2.2,0.4,2.9,1.2c0.7,0.8,1.1,1.8,1.1,3.1v0.9h-6.6c0,1.1,0.3,2,0.9,2.6s1.3,0.9,2.3,0.9c1,0,2.1-0.2,3.1-0.6v1.3
		c-0.5,0.2-1,0.4-1.5,0.5C105.2,30.9,104.6,30.9,104,30.9 M103.6,22.1c-0.8,0-1.4,0.3-1.9,0.8s-0.7,1.2-0.8,2.1h5
		c0-0.9-0.2-1.6-0.6-2.1C104.9,22.4,104.3,22.1,103.6,22.1"/>
	<path class="st4" d="M117.5,21.1V22l-1.8,0.2c0.2,0.2,0.3,0.5,0.4,0.8c0.1,0.3,0.2,0.7,0.2,1.1c0,0.9-0.3,1.7-1,2.3
		c-0.6,0.6-1.5,0.8-2.7,0.8c-0.3,0-0.6,0-0.8-0.1c-0.6,0.3-0.9,0.7-0.9,1.2c0,0.3,0.1,0.5,0.3,0.6c0.2,0.1,0.6,0.2,1.1,0.2h1.7
		c1,0,1.8,0.2,2.4,0.7c0.6,0.4,0.8,1.1,0.8,1.9c0,1.1-0.4,1.9-1.3,2.4c-0.9,0.6-2.1,0.8-3.7,0.8c-1.3,0-2.2-0.2-2.9-0.7
		c-0.7-0.5-1-1.1-1-2c0-0.6,0.2-1.1,0.6-1.5s0.9-0.7,1.6-0.9c-0.2-0.1-0.5-0.3-0.6-0.5c-0.2-0.2-0.3-0.5-0.3-0.8
		c0-0.4,0.1-0.7,0.3-0.9c0.2-0.3,0.5-0.5,0.9-0.8c-0.5-0.2-0.9-0.6-1.2-1c-0.3-0.5-0.5-1.1-0.5-1.7c0-1.1,0.3-1.9,0.9-2.4
		c0.6-0.6,1.5-0.9,2.7-0.9c0.5,0,1,0.1,1.4,0.2C114.2,21.1,117.5,21.1,117.5,21.1z M109.8,32.4c0,0.5,0.2,0.9,0.7,1.2
		c0.4,0.3,1.1,0.4,1.9,0.4c1.2,0,2.1-0.2,2.7-0.5c0.6-0.4,0.9-0.9,0.9-1.5c0-0.5-0.2-0.9-0.5-1.1c-0.3-0.2-0.9-0.3-1.8-0.3h-1.7
		c-0.7,0-1.2,0.2-1.5,0.5C110,31.3,109.8,31.8,109.8,32.4 M110.6,24.2c0,0.7,0.2,1.2,0.6,1.5c0.4,0.3,0.9,0.5,1.6,0.5
		c1.4,0,2.1-0.7,2.1-2.1c0-1.4-0.7-2.2-2.2-2.2c-0.7,0-1.2,0.2-1.6,0.6C110.8,22.9,110.6,23.5,110.6,24.2"/>
	<path class="st4" d="M123.2,30.9c-1.4,0-2.5-0.4-3.4-1.3c-0.8-0.9-1.2-2.1-1.2-3.6c0-1.6,0.4-2.8,1.1-3.7c0.8-0.9,1.8-1.4,3.1-1.4
		c1.2,0,2.2,0.4,2.9,1.2c0.7,0.8,1.1,1.8,1.1,3.1v0.9h-6.6c0,1.1,0.3,2,0.9,2.6s1.3,0.9,2.3,0.9c1,0,2.1-0.2,3.1-0.6v1.3
		c-0.5,0.2-1,0.4-1.5,0.5C124.4,30.9,123.9,30.9,123.2,30.9 M122.8,22.1c-0.8,0-1.4,0.3-1.9,0.8s-0.7,1.2-0.8,2.1h5
		c0-0.9-0.2-1.6-0.6-2.1C124.2,22.4,123.6,22.1,122.8,22.1"/>
	<path class="st4" d="M141.5,25.9c0,1.6-0.4,2.8-1.2,3.7c-0.8,0.9-1.9,1.3-3.3,1.3c-0.9,0-1.6-0.2-2.3-0.6s-1.2-1-1.5-1.7
		c-0.4-0.8-0.5-1.6-0.5-2.7c0-1.6,0.4-2.8,1.2-3.7s1.9-1.3,3.3-1.3c1.3,0,2.4,0.4,3.2,1.3C141.1,23.2,141.5,24.4,141.5,25.9
		 M134.1,25.9c0,1.2,0.2,2.2,0.7,2.8s1.2,1,2.2,1c1,0,1.7-0.3,2.2-1c0.5-0.6,0.7-1.6,0.7-2.8c0-1.2-0.2-2.2-0.7-2.8
		c-0.5-0.6-1.2-1-2.2-1c-1,0-1.7,0.3-2.2,0.9C134.4,23.7,134.1,24.7,134.1,25.9"/>
	<path class="st4" d="M148,22.2h-2.5v8.5h-1.5v-8.5h-1.7v-0.7l1.7-0.5v-0.5c0-2.4,1-3.5,3.1-3.5c0.5,0,1.1,0.1,1.8,0.3l-0.4,1.2
		c-0.6-0.2-1-0.3-1.4-0.3c-0.6,0-1,0.2-1.2,0.5c-0.3,0.4-0.4,1-0.4,1.8v0.6h2.5L148,22.2L148,22.2z"/>
	<path class="st4" d="M162,30.7l-1.6-4.1h-5.1l-1.6,4.1h-1.5l5.1-12.9h1.3l5.1,12.9H162z M159.9,25.3l-1.5-4
		c-0.2-0.5-0.4-1.1-0.6-1.9c-0.1,0.6-0.3,1.2-0.6,1.9l-1.5,4C155.8,25.3,159.9,25.3,159.9,25.3z"/>
	<path class="st4" d="M172.6,21.1V22l-1.8,0.2c0.2,0.2,0.3,0.5,0.4,0.8c0.1,0.3,0.2,0.7,0.2,1.1c0,0.9-0.3,1.7-1,2.3
		c-0.6,0.6-1.5,0.8-2.7,0.8c-0.3,0-0.6,0-0.8-0.1c-0.6,0.3-0.9,0.7-0.9,1.2c0,0.3,0.1,0.5,0.3,0.6c0.2,0.1,0.6,0.2,1.1,0.2h1.7
		c1,0,1.8,0.2,2.4,0.7c0.6,0.4,0.8,1.1,0.8,1.9c0,1.1-0.4,1.9-1.3,2.4c-0.9,0.6-2.1,0.8-3.7,0.8c-1.3,0-2.2-0.2-2.9-0.7
		c-0.7-0.5-1-1.1-1-2c0-0.6,0.2-1.1,0.6-1.5s0.9-0.7,1.6-0.9c-0.2-0.1-0.5-0.3-0.6-0.5c-0.2-0.2-0.2-0.5-0.2-0.8
		c0-0.4,0.1-0.7,0.3-0.9c0.2-0.3,0.5-0.5,0.9-0.8c-0.5-0.2-0.9-0.6-1.2-1c-0.3-0.5-0.5-1.1-0.5-1.7c0-1.1,0.3-1.9,0.9-2.4
		c0.6-0.6,1.5-0.9,2.7-0.9c0.5,0,1,0.1,1.4,0.2C169.3,21.1,172.6,21.1,172.6,21.1z M164.9,32.4c0,0.5,0.2,0.9,0.7,1.2
		c0.4,0.3,1.1,0.4,1.9,0.4c1.2,0,2.1-0.2,2.7-0.5c0.6-0.4,0.9-0.9,0.9-1.5c0-0.5-0.2-0.9-0.5-1.1c-0.3-0.2-0.9-0.3-1.8-0.3H167
		c-0.7,0-1.2,0.2-1.5,0.5C165.1,31.3,164.9,31.8,164.9,32.4 M165.7,24.2c0,0.7,0.2,1.2,0.6,1.5c0.4,0.3,0.9,0.5,1.6,0.5
		c1.4,0,2.1-0.7,2.1-2.1c0-1.4-0.7-2.2-2.2-2.2c-0.7,0-1.2,0.2-1.6,0.6C165.9,22.9,165.7,23.5,165.7,24.2"/>
	<path class="st4" d="M178.6,20.9c0.4,0,0.8,0,1.2,0.1l-0.2,1.4c-0.4-0.1-0.8-0.1-1.1-0.1c-0.8,0-1.4,0.3-2,0.9
		c-0.6,0.6-0.8,1.4-0.8,2.4v5.2h-1.5v-9.6h1.2l0.2,1.8h0.1c0.4-0.6,0.8-1.1,1.3-1.5C177.4,21.1,178,20.9,178.6,20.9"/>
	<path class="st4" d="M181.1,18.5c0-0.3,0.1-0.6,0.2-0.7c0.2-0.2,0.4-0.2,0.6-0.2c0.2,0,0.4,0.1,0.6,0.2c0.2,0.2,0.3,0.4,0.3,0.7
		s-0.1,0.6-0.3,0.7s-0.4,0.2-0.6,0.2c-0.2,0-0.5-0.1-0.6-0.2C181.2,19.1,181.1,18.8,181.1,18.5 M182.7,30.7h-1.5v-9.6h1.5V30.7z"/>
	<path class="st4" d="M189.3,30.9c-1.4,0-2.5-0.4-3.2-1.3c-0.8-0.9-1.1-2.1-1.1-3.6c0-1.6,0.4-2.9,1.2-3.7s1.9-1.3,3.3-1.3
		c0.5,0,0.9,0,1.4,0.1s0.8,0.2,1.1,0.4l-0.4,1.2c-0.3-0.1-0.7-0.2-1.1-0.3s-0.7-0.1-1-0.1c-2,0-2.9,1.2-2.9,3.7
		c0,1.2,0.2,2.1,0.7,2.7c0.5,0.6,1.2,0.9,2.1,0.9c0.8,0,1.6-0.2,2.5-0.5v1.3C191.1,30.7,190.3,30.9,189.3,30.9"/>
	<path class="st4" d="M195.1,21.1v6.2c0,0.8,0.2,1.4,0.5,1.8s0.9,0.6,1.7,0.6c1,0,1.7-0.3,2.2-0.8c0.5-0.6,0.7-1.5,0.7-2.7v-5.1h1.5
		v9.6h-1.2l-0.2-1.3h-0.1c-0.3,0.5-0.7,0.8-1.2,1.1c-0.5,0.3-1.1,0.4-1.8,0.4c-1.2,0-2.1-0.3-2.6-0.8c-0.6-0.6-0.9-1.4-0.9-2.7v-6.3
		H195.1z"/>
	<rect x="204.5" y="17.1" class="st4" width="1.5" height="13.7"/>
	<path class="st4" d="M211.9,29.7c0.3,0,0.5,0,0.7-0.1c0.2,0,0.4-0.1,0.6-0.1v1.1c-0.2,0.1-0.4,0.1-0.7,0.2c-0.3,0-0.6,0.1-0.8,0.1
		c-1.9,0-2.8-1-2.8-2.9v-5.7h-1.4v-0.7l1.4-0.6l0.6-2.1h0.8v2.2h2.8v1.1h-2.8v5.7c0,0.6,0.1,1,0.4,1.3
		C211,29.6,211.4,29.7,211.9,29.7"/>
	<path class="st4" d="M216.2,21.1v6.2c0,0.8,0.2,1.4,0.5,1.8s0.9,0.6,1.7,0.6c1,0,1.7-0.3,2.2-0.8c0.5-0.6,0.7-1.5,0.7-2.7v-5.1h1.5
		v9.6h-1.2l-0.2-1.3h-0.1c-0.3,0.5-0.7,0.8-1.2,1.1c-0.5,0.3-1.1,0.4-1.8,0.4c-1.2,0-2.1-0.3-2.6-0.8c-0.6-0.6-0.9-1.4-0.9-2.7v-6.3
		H216.2z"/>
	<path class="st4" d="M229.9,20.9c0.4,0,0.8,0,1.2,0.1l-0.2,1.4c-0.4-0.1-0.8-0.1-1.1-0.1c-0.8,0-1.4,0.3-2,0.9
		c-0.6,0.6-0.8,1.4-0.8,2.4v5.2h-1.5v-9.6h1.2l0.2,1.8h0.1c0.4-0.6,0.8-1.1,1.3-1.5C228.8,21.1,229.3,20.9,229.9,20.9"/>
	<path class="st4" d="M236.6,30.9c-1.4,0-2.5-0.4-3.4-1.3c-0.8-0.9-1.2-2.1-1.2-3.6c0-1.6,0.4-2.8,1.1-3.7c0.8-0.9,1.8-1.4,3.1-1.4
		c1.2,0,2.2,0.4,2.9,1.2c0.7,0.8,1.1,1.8,1.1,3.1v0.9h-6.6c0,1.1,0.3,2,0.9,2.6c0.5,0.6,1.3,0.9,2.3,0.9c1,0,2.1-0.2,3.1-0.6v1.3
		c-0.5,0.2-1,0.4-1.5,0.5C237.8,30.9,237.3,30.9,236.6,30.9 M236.2,22.1c-0.8,0-1.4,0.3-1.9,0.8c-0.5,0.5-0.7,1.2-0.8,2.1h5
		c0-0.9-0.2-1.6-0.6-2.1C237.6,22.4,237,22.1,236.2,22.1"/>
	<path class="st4" d="M69.3,50.7c0-0.8,0.2-1.4,0.6-2c0.4-0.6,1.1-1.2,2.2-1.8c-0.5-0.6-0.8-1-1-1.3c-0.2-0.3-0.3-0.6-0.4-0.9
		c-0.1-0.3-0.2-0.6-0.2-1c0-0.9,0.3-1.6,0.9-2.1c0.6-0.5,1.4-0.7,2.4-0.7c0.9,0,1.7,0.2,2.2,0.7c0.5,0.5,0.8,1.2,0.8,2
		c0,0.6-0.2,1.2-0.6,1.7c-0.4,0.5-1.1,1.1-2,1.6l3.6,3.4c0.3-0.4,0.6-0.8,0.8-1.3c0.2-0.5,0.4-1,0.5-1.6h1.5c-0.4,1.7-1,2.9-1.8,3.8
		l2.6,2.6h-2l-1.6-1.6c-0.7,0.6-1.4,1.1-2.1,1.3c-0.7,0.3-1.5,0.4-2.4,0.4c-1.3,0-2.2-0.3-2.9-0.9C69.6,52.6,69.3,51.8,69.3,50.7
		 M73.3,52.9c1.4,0,2.6-0.5,3.5-1.4L73,47.8c-0.7,0.4-1.1,0.7-1.4,1c-0.3,0.3-0.5,0.5-0.6,0.8c-0.1,0.3-0.2,0.6-0.2,1
		c0,0.7,0.2,1.2,0.7,1.6S72.5,52.9,73.3,52.9 M71.9,43.7c0,0.4,0.1,0.8,0.3,1.2c0.2,0.4,0.6,0.8,1.1,1.3c0.8-0.4,1.3-0.8,1.6-1.2
		c0.3-0.4,0.4-0.8,0.4-1.3c0-0.5-0.2-0.8-0.5-1.1c-0.3-0.3-0.7-0.4-1.2-0.4c-0.5,0-0.9,0.1-1.3,0.4C72.1,42.9,71.9,43.2,71.9,43.7"
		/>
	<polygon class="st4" points="87.1,54 87.1,41.1 88.6,41.1 88.6,52.6 94.2,52.6 94.2,54 	"/>
	<path class="st4" d="M95.7,41.8c0-0.3,0.1-0.6,0.2-0.7s0.4-0.2,0.6-0.2c0.2,0,0.4,0.1,0.6,0.2c0.2,0.2,0.3,0.4,0.3,0.7
		s-0.1,0.6-0.3,0.7c-0.2,0.2-0.4,0.2-0.6,0.2c-0.2,0-0.5-0.1-0.6-0.2C95.8,42.3,95.7,42.1,95.7,41.8 M97.3,54h-1.5v-9.6h1.5V54z"/>
	<path class="st4" d="M104.5,45.5H102V54h-1.5v-8.5h-1.7v-0.7l1.7-0.5v-0.5c0-2.4,1-3.6,3.1-3.6c0.5,0,1.1,0.1,1.8,0.3l-0.4,1.2
		c-0.6-0.2-1-0.3-1.4-0.3c-0.6,0-1,0.2-1.2,0.5c-0.3,0.4-0.4,1-0.4,1.8v0.6h2.5V45.5z"/>
	<path class="st4" d="M110,54.2c-1.4,0-2.5-0.4-3.4-1.3c-0.8-0.9-1.2-2.1-1.2-3.6c0-1.6,0.4-2.8,1.1-3.7c0.8-0.9,1.8-1.4,3.1-1.4
		c1.2,0,2.2,0.4,2.9,1.2c0.7,0.8,1.1,1.8,1.1,3.1v0.9h-6.6c0,1.1,0.3,2,0.9,2.6s1.3,0.9,2.3,0.9c1,0,2.1-0.2,3.1-0.7v1.3
		c-0.5,0.2-1,0.4-1.5,0.5C111.2,54.1,110.6,54.2,110,54.2 M109.6,45.4c-0.8,0-1.4,0.3-1.9,0.8s-0.7,1.2-0.8,2.1h5
		c0-0.9-0.2-1.6-0.6-2.1C110.9,45.7,110.3,45.4,109.6,45.4"/>
	<path class="st4" d="M127.4,50.6c0,1.1-0.4,2-1.2,2.6c-0.8,0.6-1.9,0.9-3.3,0.9c-1.5,0-2.7-0.2-3.5-0.6v-1.4
		c0.5,0.2,1.1,0.4,1.7,0.5s1.2,0.2,1.8,0.2c1,0,1.7-0.2,2.2-0.6c0.5-0.4,0.8-0.9,0.8-1.6c0-0.4-0.1-0.8-0.3-1.1
		c-0.2-0.3-0.5-0.5-0.9-0.8c-0.4-0.2-1.1-0.5-1.9-0.8c-1.2-0.4-2.1-0.9-2.6-1.5c-0.5-0.6-0.8-1.4-0.8-2.3c0-1,0.4-1.8,1.1-2.4
		c0.7-0.6,1.7-0.9,3-0.9c1.3,0,2.5,0.2,3.5,0.7l-0.5,1.3c-1.1-0.4-2.1-0.7-3.1-0.7c-0.8,0-1.4,0.2-1.9,0.5s-0.7,0.8-0.7,1.4
		c0,0.4,0.1,0.8,0.2,1.1c0.2,0.3,0.4,0.5,0.8,0.8c0.4,0.2,1,0.5,1.8,0.8c1.3,0.5,2.3,1,2.8,1.5C127.1,49,127.4,49.7,127.4,50.6"/>
	<path class="st4" d="M133.2,54.2c-1.4,0-2.5-0.4-3.2-1.3c-0.8-0.9-1.1-2.1-1.1-3.6c0-1.6,0.4-2.9,1.2-3.7s1.9-1.3,3.3-1.3
		c0.5,0,0.9,0,1.4,0.1s0.8,0.2,1.1,0.4l-0.4,1.2c-0.3-0.1-0.7-0.2-1.1-0.3c-0.4-0.1-0.7-0.1-1-0.1c-2,0-2.9,1.2-2.9,3.7
		c0,1.2,0.2,2.1,0.7,2.7c0.5,0.6,1.2,0.9,2.1,0.9c0.8,0,1.6-0.2,2.5-0.5v1.3C135,54,134.2,54.2,133.2,54.2"/>
	<path class="st4" d="M137.5,41.8c0-0.3,0.1-0.6,0.2-0.7c0.2-0.2,0.4-0.2,0.6-0.2c0.2,0,0.4,0.1,0.6,0.2c0.2,0.2,0.3,0.4,0.3,0.7
		s-0.1,0.6-0.3,0.7c-0.2,0.2-0.4,0.2-0.6,0.2c-0.2,0-0.5-0.1-0.6-0.2C137.6,42.3,137.5,42.1,137.5,41.8 M139.1,54h-1.5v-9.6h1.5V54z
		"/>
	<path class="st4" d="M146,54.2c-1.4,0-2.5-0.4-3.4-1.3c-0.8-0.9-1.2-2.1-1.2-3.6c0-1.6,0.4-2.8,1.1-3.7c0.8-0.9,1.8-1.4,3.1-1.4
		c1.2,0,2.2,0.4,2.9,1.2c0.7,0.8,1.1,1.8,1.1,3.1v0.9h-6.6c0,1.1,0.3,2,0.9,2.6s1.3,0.9,2.3,0.9c1,0,2.1-0.2,3.1-0.7v1.3
		c-0.5,0.2-1,0.4-1.5,0.5C147.2,54.1,146.6,54.2,146,54.2 M145.6,45.4c-0.8,0-1.4,0.3-1.9,0.8c-0.5,0.5-0.7,1.2-0.8,2.1h5
		c0-0.9-0.2-1.6-0.6-2.1C146.9,45.7,146.4,45.4,145.6,45.4"/>
	<path class="st4" d="M158.3,54v-6.2c0-0.8-0.2-1.4-0.5-1.8s-0.9-0.6-1.7-0.6c-1,0-1.7,0.3-2.2,0.8c-0.5,0.5-0.7,1.4-0.7,2.7V54
		h-1.5v-9.6h1.2l0.2,1.3h0.1c0.3-0.5,0.7-0.8,1.3-1.1c0.5-0.3,1.1-0.4,1.8-0.4c1.2,0,2,0.3,2.6,0.8c0.6,0.6,0.9,1.5,0.9,2.7V54
		H158.3z"/>
	<path class="st4" d="M166.3,54.2c-1.4,0-2.5-0.4-3.2-1.3c-0.8-0.9-1.1-2.1-1.1-3.6c0-1.6,0.4-2.9,1.2-3.7s1.9-1.3,3.3-1.3
		c0.5,0,0.9,0,1.4,0.1s0.8,0.2,1.1,0.4l-0.4,1.2c-0.3-0.1-0.7-0.2-1.1-0.3c-0.4-0.1-0.7-0.1-1-0.1c-2,0-2.9,1.2-2.9,3.7
		c0,1.2,0.2,2.1,0.7,2.7c0.5,0.6,1.2,0.9,2.1,0.9c0.8,0,1.6-0.2,2.5-0.5v1.3C168.1,54,167.3,54.2,166.3,54.2"/>
	<path class="st4" d="M174.8,54.2c-1.4,0-2.5-0.4-3.4-1.3c-0.8-0.9-1.2-2.1-1.2-3.6c0-1.6,0.4-2.8,1.1-3.7c0.8-0.9,1.8-1.4,3.1-1.4
		c1.2,0,2.2,0.4,2.9,1.2c0.7,0.8,1.1,1.8,1.1,3.1v0.9h-6.6c0,1.1,0.3,2,0.9,2.6s1.3,0.9,2.3,0.9c1,0,2.1-0.2,3.1-0.7v1.3
		c-0.5,0.2-1,0.4-1.5,0.5C176,54.1,175.4,54.2,174.8,54.2 M174.4,45.4c-0.8,0-1.4,0.3-1.9,0.8c-0.5,0.5-0.7,1.2-0.8,2.1h5
		c0-0.9-0.2-1.6-0.6-2.1C175.7,45.7,175.1,45.4,174.4,45.4"/>
	<path class="st4" d="M186.7,51.4c0,0.9-0.3,1.6-1,2.1s-1.6,0.7-2.8,0.7c-1.3,0-2.3-0.2-3-0.6v-1.4c0.5,0.2,1,0.4,1.5,0.6
		c0.5,0.1,1,0.2,1.5,0.2c0.8,0,1.3-0.1,1.8-0.4c0.4-0.2,0.6-0.6,0.6-1.1c0-0.4-0.2-0.7-0.5-1c-0.3-0.3-1-0.6-1.9-0.9
		c-0.9-0.3-1.5-0.6-1.9-0.9c-0.4-0.2-0.7-0.5-0.8-0.8c-0.2-0.3-0.3-0.7-0.3-1.1c0-0.8,0.3-1.4,1-1.9c0.6-0.5,1.5-0.7,2.6-0.7
		c1,0,2.1,0.2,3,0.6L186,46c-1-0.4-1.8-0.6-2.6-0.6c-0.7,0-1.2,0.1-1.6,0.3c-0.4,0.2-0.5,0.5-0.5,0.9c0,0.3,0.1,0.5,0.2,0.7
		c0.1,0.2,0.3,0.4,0.6,0.5s0.9,0.4,1.7,0.7c1.1,0.4,1.9,0.8,2.3,1.3C186.5,50.2,186.7,50.7,186.7,51.4"/>
</g>
<g>
	<g>
		<path class="st5" d="M71.7,8.2h-1.2V2.1h-2.1v-1h5.4v1h-2.1V8.2z"/>
		<path class="st5" d="M79.4,8.2h-4V1.1h4v1h-2.9V4h2.7v1h-2.7v2.2h2.9V8.2z"/>
		<path class="st5" d="M86.7,8.2h-1.3l-1.8-2.9l-1.8,2.9h-1.2l2.4-3.7l-2.2-3.4H82l1.7,2.7l1.7-2.7h1.3l-2.2,3.5L86.7,8.2z"/>
		<path class="st5" d="M92.6,8.2l-0.7-2h-2.7l-0.7,2h-1.2L89.9,1h1.3l2.7,7.2H92.6z M91.6,5.2l-0.7-1.9c0-0.1-0.1-0.3-0.2-0.6
			c-0.1-0.3-0.1-0.5-0.2-0.6c-0.1,0.4-0.2,0.8-0.4,1.3l-0.6,1.9H91.6z"/>
		<path class="st5" d="M99.4,6.3c0,0.6-0.2,1.1-0.7,1.5s-1.1,0.5-1.9,0.5s-1.5-0.1-2-0.4V6.8c0.3,0.2,0.7,0.3,1,0.4
			c0.4,0.1,0.7,0.1,1,0.1c0.5,0,0.8-0.1,1-0.3c0.2-0.2,0.3-0.4,0.3-0.7c0-0.3-0.1-0.5-0.3-0.7S97.3,5.3,96.7,5
			c-0.7-0.3-1.1-0.6-1.4-0.9s-0.4-0.7-0.4-1.2c0-0.6,0.2-1.1,0.6-1.4s1-0.5,1.7-0.5c0.7,0,1.4,0.1,2,0.4l-0.4,1
			C98.3,2.1,97.7,2,97.2,2c-0.4,0-0.7,0.1-0.9,0.2c-0.2,0.2-0.3,0.4-0.3,0.7c0,0.2,0,0.3,0.1,0.5c0.1,0.1,0.2,0.3,0.4,0.4
			s0.5,0.3,1,0.5c0.5,0.2,0.9,0.4,1.2,0.6s0.4,0.4,0.5,0.6S99.4,6,99.4,6.3z"/>
		<path class="st5" d="M108.8,8.2l-0.7-2h-2.7l-0.7,2h-1.2l2.7-7.2h1.3l2.7,7.2H108.8z M107.8,5.2l-0.7-1.9c0-0.1-0.1-0.3-0.2-0.6
			c-0.1-0.3-0.1-0.5-0.2-0.6c-0.1,0.4-0.2,0.8-0.4,1.3l-0.6,1.9H107.8z"/>
		<path class="st5" d="M111,6.3c0-0.4,0.1-0.8,0.3-1.1c0.2-0.3,0.6-0.6,1.1-0.9c-0.3-0.4-0.5-0.7-0.6-0.9c-0.1-0.2-0.2-0.5-0.2-0.8
			c0-0.5,0.2-0.9,0.5-1.2c0.4-0.3,0.8-0.4,1.4-0.4c0.6,0,1,0.1,1.4,0.4c0.3,0.3,0.5,0.7,0.5,1.1c0,0.4-0.1,0.7-0.3,1
			c-0.2,0.3-0.6,0.6-1.1,0.9l1.7,1.6c0.3-0.3,0.5-0.9,0.7-1.5h1.2c-0.2,0.9-0.6,1.7-1.1,2.3l1.5,1.4h-1.5l-0.7-0.7
			c-0.3,0.3-0.7,0.5-1.1,0.6c-0.4,0.1-0.8,0.2-1.2,0.2c-0.7,0-1.3-0.2-1.8-0.5S111,6.9,111,6.3z M113.5,7.3c0.6,0,1.1-0.2,1.5-0.5
			L113.2,5c-0.3,0.2-0.6,0.4-0.7,0.6c-0.1,0.2-0.2,0.4-0.2,0.7c0,0.3,0.1,0.6,0.3,0.8C112.8,7.2,113.1,7.3,113.5,7.3z M112.8,2.6
			c0,0.2,0.1,0.4,0.2,0.6c0.1,0.2,0.3,0.4,0.5,0.6c0.4-0.2,0.6-0.4,0.8-0.6c0.1-0.2,0.2-0.4,0.2-0.6c0-0.2-0.1-0.4-0.2-0.5
			c-0.1-0.1-0.3-0.2-0.6-0.2c-0.3,0-0.5,0.1-0.6,0.2C112.8,2.2,112.8,2.4,112.8,2.6z"/>
		<path class="st5" d="M122.5,8.2l-2.1-6h0c0.1,0.9,0.1,1.7,0.1,2.5v3.5h-1.1V1.1h1.6l2,5.7h0l2-5.7h1.7v7.1h-1.1V4.7
			c0-0.4,0-0.8,0-1.4c0-0.6,0-0.9,0-1h0l-2.1,6H122.5z"/>
		<path class="st5" d="M137.8,1.1v4.6c0,0.5-0.1,1-0.3,1.4c-0.2,0.4-0.6,0.7-1,0.9c-0.4,0.2-0.9,0.3-1.5,0.3c-0.9,0-1.6-0.2-2.1-0.7
			s-0.7-1.1-0.7-1.9V1.1h1.2v4.5c0,0.6,0.1,1,0.4,1.3s0.7,0.4,1.3,0.4c1.1,0,1.7-0.6,1.7-1.7V1.1H137.8z"/>
		<path class="st5" d="M146.1,8.2h-1.4l-3.5-5.7h0l0,0.3c0,0.6,0.1,1.2,0.1,1.7v3.7h-1.1V1.1h1.4l3.5,5.7h0c0-0.1,0-0.3,0-0.8
			c0-0.5,0-0.8,0-1.1V1.1h1.1V8.2z"/>
		<path class="st5" d="M148.5,8.2V1.1h1.2v7.1H148.5z"/>
		<path class="st5" d="M156.1,1.1h1.2l-2.5,7.1h-1.2l-2.5-7.1h1.2l1.5,4.4c0.1,0.2,0.2,0.5,0.2,0.8c0.1,0.3,0.1,0.6,0.2,0.7
			c0-0.2,0.1-0.5,0.2-0.9s0.2-0.6,0.2-0.7L156.1,1.1z"/>
		<path class="st5" d="M162.8,8.2h-4V1.1h4v1h-2.9V4h2.7v1h-2.7v2.2h2.9V8.2z"/>
		<path class="st5" d="M166,5.4v2.9h-1.2V1.1h2c0.9,0,1.6,0.2,2,0.5s0.7,0.9,0.7,1.6c0,0.9-0.5,1.5-1.4,1.9l2,3.2h-1.3l-1.7-2.9H166
			z M166,4.4h0.8c0.5,0,0.9-0.1,1.2-0.3s0.4-0.5,0.4-0.9c0-0.4-0.1-0.7-0.4-0.9s-0.7-0.3-1.2-0.3H166V4.4z"/>
		<path class="st5" d="M175.9,6.3c0,0.6-0.2,1.1-0.7,1.5s-1.1,0.5-1.9,0.5s-1.5-0.1-2-0.4V6.8c0.3,0.2,0.7,0.3,1,0.4
			c0.4,0.1,0.7,0.1,1,0.1c0.5,0,0.8-0.1,1-0.3c0.2-0.2,0.3-0.4,0.3-0.7c0-0.3-0.1-0.5-0.3-0.7s-0.6-0.4-1.2-0.7
			c-0.7-0.3-1.1-0.6-1.4-0.9s-0.4-0.7-0.4-1.2c0-0.6,0.2-1.1,0.6-1.4s1-0.5,1.7-0.5c0.7,0,1.4,0.1,2,0.4l-0.4,1
			c-0.6-0.3-1.2-0.4-1.7-0.4c-0.4,0-0.7,0.1-0.9,0.2c-0.2,0.2-0.3,0.4-0.3,0.7c0,0.2,0,0.3,0.1,0.5c0.1,0.1,0.2,0.3,0.4,0.4
			s0.5,0.3,1,0.5c0.5,0.2,0.9,0.4,1.2,0.6s0.4,0.4,0.5,0.6S175.9,6,175.9,6.3z"/>
		<path class="st5" d="M177.7,8.2V1.1h1.2v7.1H177.7z"/>
		<path class="st5" d="M183.8,8.2h-1.2V2.1h-2.1v-1h5.4v1h-2.1V8.2z"/>
		<path class="st5" d="M189.5,4.3l1.7-3.3h1.3L190,5.4v2.8h-1.2V5.5l-2.4-4.4h1.3L189.5,4.3z"/>
	</g>
	<g>
		<path class="st5" d="M75.7,18.4c-1.4,0-2.6,0.5-3.4,1.4c-0.8,1-1.3,2.3-1.3,3.9c0,1.7,0.4,3,1.2,4c0.8,0.9,2,1.4,3.4,1.4
			c0.9,0,2-0.2,3.1-0.5V30c-0.9,0.3-2,0.5-3.4,0.5c-1.9,0-3.4-0.6-4.5-1.8c-1.1-1.2-1.6-2.8-1.6-5c0-1.4,0.3-2.5,0.8-3.6
			s1.2-1.8,2.2-2.4s2.1-0.8,3.4-0.8c1.4,0,2.6,0.3,3.6,0.8l-0.6,1.3C77.7,18.6,76.7,18.4,75.7,18.4z"/>
		<path class="st5" d="M89.6,25.4c0,1.6-0.4,2.9-1.2,3.8s-1.9,1.4-3.3,1.4c-0.9,0-1.7-0.2-2.3-0.6s-1.2-1-1.6-1.8
			c-0.4-0.8-0.6-1.7-0.6-2.7c0-1.6,0.4-2.9,1.2-3.8c0.8-0.9,1.9-1.3,3.3-1.3c1.4,0,2.5,0.5,3.3,1.4C89.2,22.6,89.6,23.8,89.6,25.4z
			 M82.1,25.4c0,1.3,0.3,2.2,0.8,2.9c0.5,0.7,1.2,1,2.2,1s1.7-0.3,2.2-1c0.5-0.7,0.8-1.6,0.8-2.9c0-1.3-0.3-2.2-0.8-2.9
			s-1.3-1-2.2-1c-1,0-1.7,0.3-2.2,1S82.1,24.1,82.1,25.4z"/>
		<path class="st5" d="M93.4,30.3h-1.5v-14h1.5V30.3z"/>
		<path class="st5" d="M97.7,30.3h-1.5v-14h1.5V30.3z"/>
		<path class="st5" d="M104.7,30.5c-1.5,0-2.6-0.4-3.4-1.3c-0.8-0.9-1.3-2.1-1.3-3.7c0-1.6,0.4-2.8,1.2-3.8c0.8-0.9,1.8-1.4,3.1-1.4
			c1.2,0,2.2,0.4,2.9,1.2c0.7,0.8,1.1,1.9,1.1,3.2v0.9h-6.8c0,1.2,0.3,2,0.9,2.6c0.6,0.6,1.3,0.9,2.3,0.9c1.1,0,2.1-0.2,3.1-0.7v1.3
			c-0.5,0.2-1,0.4-1.5,0.5C105.9,30.4,105.4,30.5,104.7,30.5z M104.3,21.5c-0.8,0-1.4,0.3-1.9,0.8c-0.5,0.5-0.7,1.2-0.8,2.1h5.1
			c0-0.9-0.2-1.7-0.6-2.2S105.1,21.5,104.3,21.5z"/>
		<path class="st5" d="M118.6,20.5v0.9l-1.8,0.2c0.2,0.2,0.3,0.5,0.4,0.8c0.1,0.3,0.2,0.7,0.2,1.1c0,1-0.3,1.7-1,2.3
			c-0.7,0.6-1.6,0.9-2.7,0.9c-0.3,0-0.6,0-0.8-0.1c-0.6,0.3-1,0.8-1,1.3c0,0.3,0.1,0.5,0.3,0.6s0.6,0.2,1.1,0.2h1.7
			c1.1,0,1.9,0.2,2.5,0.7c0.6,0.4,0.9,1.1,0.9,2c0,1.1-0.4,1.9-1.3,2.5c-0.9,0.6-2.1,0.9-3.8,0.9c-1.3,0-2.3-0.2-3-0.7
			c-0.7-0.5-1-1.2-1-2c0-0.6,0.2-1.1,0.6-1.6c0.4-0.4,0.9-0.7,1.6-0.9c-0.3-0.1-0.5-0.3-0.6-0.5s-0.3-0.5-0.3-0.8
			c0-0.4,0.1-0.7,0.3-0.9s0.5-0.5,0.9-0.8c-0.5-0.2-0.9-0.6-1.2-1.1s-0.5-1.1-0.5-1.7c0-1.1,0.3-1.9,1-2.5c0.6-0.6,1.6-0.9,2.7-0.9
			c0.5,0,1,0.1,1.4,0.2H118.6z M110.8,32c0,0.5,0.2,0.9,0.7,1.2c0.4,0.3,1.1,0.4,1.9,0.4c1.3,0,2.2-0.2,2.8-0.6
			c0.6-0.4,0.9-0.9,0.9-1.5c0-0.5-0.2-0.9-0.5-1.1c-0.3-0.2-0.9-0.3-1.9-0.3h-1.8c-0.7,0-1.2,0.2-1.6,0.5S110.8,31.4,110.8,32z
			 M111.6,23.6c0,0.7,0.2,1.2,0.6,1.6c0.4,0.4,0.9,0.5,1.6,0.5c1.5,0,2.2-0.7,2.2-2.1c0-1.5-0.7-2.2-2.2-2.2c-0.7,0-1.2,0.2-1.6,0.6
			C111.7,22.3,111.6,22.9,111.6,23.6z"/>
		<path class="st5" d="M124.4,30.5c-1.5,0-2.6-0.4-3.4-1.3c-0.8-0.9-1.3-2.1-1.3-3.7c0-1.6,0.4-2.8,1.2-3.8c0.8-0.9,1.8-1.4,3.1-1.4
			c1.2,0,2.2,0.4,2.9,1.2c0.7,0.8,1.1,1.9,1.1,3.2v0.9h-6.8c0,1.2,0.3,2,0.9,2.6c0.6,0.6,1.3,0.9,2.3,0.9c1.1,0,2.1-0.2,3.1-0.7v1.3
			c-0.5,0.2-1,0.4-1.5,0.5C125.7,30.4,125.1,30.5,124.4,30.5z M124,21.5c-0.8,0-1.4,0.3-1.9,0.8c-0.5,0.5-0.7,1.2-0.8,2.1h5.1
			c0-0.9-0.2-1.7-0.6-2.2S124.8,21.5,124,21.5z"/>
		<path class="st5" d="M143.2,25.4c0,1.6-0.4,2.9-1.2,3.8s-1.9,1.4-3.3,1.4c-0.9,0-1.7-0.2-2.3-0.6s-1.2-1-1.6-1.8
			c-0.4-0.8-0.6-1.7-0.6-2.7c0-1.6,0.4-2.9,1.2-3.8c0.8-0.9,1.9-1.3,3.3-1.3c1.4,0,2.5,0.5,3.3,1.4
			C142.8,22.6,143.2,23.8,143.2,25.4z M135.7,25.4c0,1.3,0.3,2.2,0.8,2.9c0.5,0.7,1.2,1,2.2,1s1.7-0.3,2.2-1
			c0.5-0.7,0.8-1.6,0.8-2.9c0-1.3-0.3-2.2-0.8-2.9s-1.3-1-2.2-1c-1,0-1.7,0.3-2.2,1S135.7,24.1,135.7,25.4z"/>
		<path class="st5" d="M149.9,21.6h-2.5v8.7h-1.5v-8.7h-1.8V21l1.8-0.5v-0.5c0-2.4,1.1-3.6,3.2-3.6c0.5,0,1.1,0.1,1.8,0.3l-0.4,1.2
			c-0.6-0.2-1.1-0.3-1.5-0.3c-0.6,0-1,0.2-1.2,0.6s-0.4,1-0.4,1.8v0.6h2.5V21.6z"/>
		<path class="st5" d="M164.3,30.3l-1.6-4.2h-5.3l-1.6,4.2h-1.5l5.2-13.2h1.3l5.2,13.2H164.3z M162.2,24.8l-1.5-4.1
			c-0.2-0.5-0.4-1.1-0.6-1.9c-0.1,0.6-0.3,1.2-0.6,1.9l-1.5,4.1H162.2z"/>
		<path class="st5" d="M175.2,20.5v0.9l-1.8,0.2c0.2,0.2,0.3,0.5,0.4,0.8c0.1,0.3,0.2,0.7,0.2,1.1c0,1-0.3,1.7-1,2.3
			c-0.7,0.6-1.6,0.9-2.7,0.9c-0.3,0-0.6,0-0.8-0.1c-0.6,0.3-1,0.8-1,1.3c0,0.3,0.1,0.5,0.3,0.6s0.6,0.2,1.1,0.2h1.7
			c1.1,0,1.9,0.2,2.5,0.7c0.6,0.4,0.9,1.1,0.9,2c0,1.1-0.4,1.9-1.3,2.5c-0.9,0.6-2.1,0.9-3.8,0.9c-1.3,0-2.3-0.2-3-0.7
			c-0.7-0.5-1-1.2-1-2c0-0.6,0.2-1.1,0.6-1.6c0.4-0.4,0.9-0.7,1.6-0.9c-0.3-0.1-0.5-0.3-0.6-0.5s-0.3-0.5-0.3-0.8
			c0-0.4,0.1-0.7,0.3-0.9s0.5-0.5,0.9-0.8c-0.5-0.2-0.9-0.6-1.2-1.1s-0.5-1.1-0.5-1.7c0-1.1,0.3-1.9,1-2.5c0.6-0.6,1.6-0.9,2.7-0.9
			c0.5,0,1,0.1,1.4,0.2H175.2z M167.4,32c0,0.5,0.2,0.9,0.7,1.2c0.4,0.3,1.1,0.4,1.9,0.4c1.3,0,2.2-0.2,2.8-0.6
			c0.6-0.4,0.9-0.9,0.9-1.5c0-0.5-0.2-0.9-0.5-1.1c-0.3-0.2-0.9-0.3-1.9-0.3h-1.8c-0.7,0-1.2,0.2-1.6,0.5S167.4,31.4,167.4,32z
			 M168.2,23.6c0,0.7,0.2,1.2,0.6,1.6c0.4,0.4,0.9,0.5,1.6,0.5c1.5,0,2.2-0.7,2.2-2.1c0-1.5-0.7-2.2-2.2-2.2c-0.7,0-1.2,0.2-1.6,0.6
			C168.4,22.3,168.2,22.9,168.2,23.6z"/>
		<path class="st5" d="M181.4,20.3c0.4,0,0.8,0,1.2,0.1l-0.2,1.4c-0.4-0.1-0.8-0.1-1.1-0.1c-0.8,0-1.5,0.3-2,1s-0.8,1.5-0.8,2.4v5.3
			h-1.5v-9.8h1.2l0.2,1.8h0.1c0.4-0.6,0.8-1.1,1.3-1.5C180.2,20.5,180.8,20.3,181.4,20.3z"/>
		<path class="st5" d="M184,17.8c0-0.3,0.1-0.6,0.3-0.7c0.2-0.2,0.4-0.2,0.6-0.2c0.2,0,0.4,0.1,0.6,0.2c0.2,0.2,0.3,0.4,0.3,0.7
			c0,0.3-0.1,0.6-0.3,0.8c-0.2,0.2-0.4,0.2-0.6,0.2c-0.3,0-0.5-0.1-0.6-0.2C184,18.4,184,18.1,184,17.8z M185.6,30.3h-1.5v-9.8h1.5
			V30.3z"/>
		<path class="st5" d="M192.3,30.5c-1.4,0-2.5-0.4-3.3-1.3s-1.2-2.1-1.2-3.7c0-1.6,0.4-2.9,1.2-3.8s1.9-1.3,3.4-1.3
			c0.5,0,0.9,0.1,1.4,0.2s0.8,0.2,1.1,0.4l-0.5,1.3c-0.3-0.1-0.7-0.2-1.1-0.3c-0.4-0.1-0.7-0.1-1-0.1c-2,0-3,1.3-3,3.8
			c0,1.2,0.2,2.1,0.7,2.8c0.5,0.6,1.2,1,2.2,1c0.8,0,1.7-0.2,2.5-0.5V30C194.2,30.3,193.3,30.5,192.3,30.5z"/>
		<path class="st5" d="M198.2,20.5v6.4c0,0.8,0.2,1.4,0.5,1.8c0.4,0.4,0.9,0.6,1.7,0.6c1,0,1.8-0.3,2.3-0.8c0.5-0.6,0.7-1.5,0.7-2.8
			v-5.2h1.5v9.8h-1.2l-0.2-1.3h-0.1c-0.3,0.5-0.7,0.9-1.3,1.1c-0.5,0.3-1.2,0.4-1.9,0.4c-1.2,0-2.1-0.3-2.7-0.9
			c-0.6-0.6-0.9-1.5-0.9-2.7v-6.4H198.2z"/>
		<path class="st5" d="M209.3,30.3h-1.5v-14h1.5V30.3z"/>
		<path class="st5" d="M215.3,29.3c0.3,0,0.5,0,0.8-0.1c0.2,0,0.4-0.1,0.6-0.1v1.1c-0.2,0.1-0.4,0.1-0.7,0.2s-0.6,0.1-0.8,0.1
			c-1.9,0-2.9-1-2.9-3v-5.9h-1.4v-0.7l1.4-0.6l0.6-2.1h0.9v2.3h2.9v1.2h-2.9v5.8c0,0.6,0.1,1,0.4,1.4
			C214.4,29.1,214.8,29.3,215.3,29.3z"/>
		<path class="st5" d="M219.7,20.5v6.4c0,0.8,0.2,1.4,0.5,1.8c0.4,0.4,0.9,0.6,1.7,0.6c1,0,1.8-0.3,2.3-0.8c0.5-0.6,0.7-1.5,0.7-2.8
			v-5.2h1.5v9.8h-1.2l-0.2-1.3h-0.1c-0.3,0.5-0.7,0.9-1.3,1.1c-0.5,0.3-1.2,0.4-1.9,0.4c-1.2,0-2.1-0.3-2.7-0.9
			c-0.6-0.6-0.9-1.5-0.9-2.7v-6.4H219.7z"/>
		<path class="st5" d="M233.7,20.3c0.4,0,0.8,0,1.2,0.1l-0.2,1.4c-0.4-0.1-0.8-0.1-1.1-0.1c-0.8,0-1.5,0.3-2,1s-0.8,1.5-0.8,2.4v5.3
			h-1.5v-9.8h1.2l0.2,1.8h0.1c0.4-0.6,0.8-1.1,1.3-1.5C232.5,20.5,233.1,20.3,233.7,20.3z"/>
		<path class="st5" d="M240.6,30.5c-1.5,0-2.6-0.4-3.4-1.3c-0.8-0.9-1.3-2.1-1.3-3.7c0-1.6,0.4-2.8,1.2-3.8c0.8-0.9,1.8-1.4,3.1-1.4
			c1.2,0,2.2,0.4,2.9,1.2c0.7,0.8,1.1,1.9,1.1,3.2v0.9h-6.8c0,1.2,0.3,2,0.9,2.6c0.6,0.6,1.3,0.9,2.3,0.9c1.1,0,2.1-0.2,3.1-0.7v1.3
			c-0.5,0.2-1,0.4-1.5,0.5C241.8,30.4,241.2,30.5,240.6,30.5z M240.1,21.5c-0.8,0-1.4,0.3-1.9,0.8c-0.5,0.5-0.7,1.2-0.8,2.1h5.1
			c0-0.9-0.2-1.7-0.6-2.2S240.9,21.5,240.1,21.5z"/>
	</g>
	<g>
		<path class="st5" d="M69.3,50.3c0-0.8,0.2-1.5,0.6-2.1s1.2-1.2,2.2-1.8c-0.5-0.6-0.9-1-1-1.3c-0.2-0.3-0.3-0.6-0.4-0.9
			c-0.1-0.3-0.2-0.6-0.2-1c0-0.9,0.3-1.6,0.9-2.1s1.4-0.8,2.5-0.8c1,0,1.7,0.3,2.3,0.8c0.6,0.5,0.8,1.2,0.8,2.1
			c0,0.6-0.2,1.2-0.6,1.8c-0.4,0.5-1.1,1.1-2,1.6l3.7,3.5c0.3-0.4,0.6-0.8,0.8-1.3c0.2-0.5,0.4-1,0.5-1.6h1.5c-0.4,1.7-1,3-1.8,3.9
			l2.7,2.6h-2.1L78,52.1c-0.7,0.6-1.4,1.1-2.2,1.4s-1.5,0.4-2.4,0.4c-1.3,0-2.3-0.3-3-1C69.7,52.3,69.3,51.4,69.3,50.3z M73.4,52.6
			c1.4,0,2.6-0.5,3.6-1.4l-3.9-3.8c-0.7,0.4-1.1,0.7-1.4,1s-0.5,0.6-0.6,0.9c-0.1,0.3-0.2,0.7-0.2,1c0,0.7,0.2,1.3,0.7,1.7
			S72.6,52.6,73.4,52.6z M72,43.2c0,0.4,0.1,0.8,0.3,1.2s0.6,0.8,1.1,1.4c0.8-0.4,1.3-0.9,1.6-1.2c0.3-0.4,0.5-0.8,0.5-1.3
			c0-0.5-0.2-0.8-0.5-1.1c-0.3-0.3-0.7-0.4-1.2-0.4c-0.5,0-1,0.1-1.3,0.4C72.2,42.3,72,42.7,72,43.2z"/>
		<path class="st5" d="M87.6,53.7V40.6h1.5v11.7H95v1.4H87.6z"/>
		<path class="st5" d="M96.5,41.2c0-0.3,0.1-0.6,0.3-0.7c0.2-0.2,0.4-0.2,0.6-0.2c0.2,0,0.4,0.1,0.6,0.2c0.2,0.2,0.3,0.4,0.3,0.7
			c0,0.3-0.1,0.6-0.3,0.8c-0.2,0.2-0.4,0.2-0.6,0.2c-0.3,0-0.5-0.1-0.6-0.2C96.6,41.8,96.5,41.5,96.5,41.2z M98.1,53.7h-1.5v-9.8
			h1.5V53.7z"/>
		<path class="st5" d="M105.4,45h-2.5v8.7h-1.5V45h-1.8v-0.7l1.8-0.5v-0.5c0-2.4,1.1-3.6,3.2-3.6c0.5,0,1.1,0.1,1.8,0.3l-0.4,1.2
			c-0.6-0.2-1.1-0.3-1.5-0.3c-0.6,0-1,0.2-1.2,0.6s-0.4,1-0.4,1.8v0.6h2.5V45z"/>
		<path class="st5" d="M111,53.9c-1.5,0-2.6-0.4-3.4-1.3c-0.8-0.9-1.3-2.1-1.3-3.7c0-1.6,0.4-2.8,1.2-3.8c0.8-0.9,1.8-1.4,3.1-1.4
			c1.2,0,2.2,0.4,2.9,1.2c0.7,0.8,1.1,1.9,1.1,3.2v0.9h-6.8c0,1.2,0.3,2,0.9,2.6s1.3,0.9,2.3,0.9c1.1,0,2.1-0.2,3.1-0.7v1.3
			c-0.5,0.2-1,0.4-1.5,0.5C112.2,53.9,111.7,53.9,111,53.9z M110.6,45c-0.8,0-1.4,0.3-1.9,0.8c-0.5,0.5-0.7,1.2-0.8,2.1h5.1
			c0-0.9-0.2-1.7-0.6-2.2S111.4,45,110.6,45z"/>
		<path class="st5" d="M128.9,50.2c0,1.2-0.4,2.1-1.3,2.7c-0.8,0.6-2,1-3.4,1c-1.6,0-2.8-0.2-3.6-0.6v-1.5c0.5,0.2,1.1,0.4,1.8,0.5
			c0.6,0.1,1.3,0.2,1.9,0.2c1,0,1.8-0.2,2.3-0.6c0.5-0.4,0.8-0.9,0.8-1.6c0-0.5-0.1-0.8-0.3-1.1c-0.2-0.3-0.5-0.6-0.9-0.8
			c-0.4-0.2-1.1-0.5-2-0.8c-1.2-0.4-2.1-1-2.6-1.6s-0.8-1.4-0.8-2.3c0-1,0.4-1.8,1.1-2.4c0.8-0.6,1.8-0.9,3-0.9
			c1.3,0,2.5,0.2,3.6,0.7l-0.5,1.3c-1.1-0.5-2.1-0.7-3.2-0.7c-0.8,0-1.4,0.2-1.9,0.5s-0.7,0.8-0.7,1.4c0,0.5,0.1,0.8,0.3,1.1
			c0.2,0.3,0.5,0.6,0.8,0.8c0.4,0.2,1,0.5,1.8,0.8c1.4,0.5,2.3,1,2.8,1.6C128.7,48.6,128.9,49.3,128.9,50.2z"/>
		<path class="st5" d="M135,53.9c-1.4,0-2.5-0.4-3.3-1.3s-1.2-2.1-1.2-3.7c0-1.6,0.4-2.9,1.2-3.8s1.9-1.3,3.4-1.3
			c0.5,0,0.9,0.1,1.4,0.2s0.8,0.2,1.1,0.4l-0.5,1.3c-0.3-0.1-0.7-0.2-1.1-0.3c-0.4-0.1-0.7-0.1-1-0.1c-2,0-3,1.3-3,3.8
			c0,1.2,0.2,2.1,0.7,2.8c0.5,0.6,1.2,1,2.2,1c0.8,0,1.7-0.2,2.5-0.5v1.3C136.8,53.7,136,53.9,135,53.9z"/>
		<path class="st5" d="M139.3,41.2c0-0.3,0.1-0.6,0.3-0.7c0.2-0.2,0.4-0.2,0.6-0.2c0.2,0,0.4,0.1,0.6,0.2c0.2,0.2,0.3,0.4,0.3,0.7
			c0,0.3-0.1,0.6-0.3,0.8c-0.2,0.2-0.4,0.2-0.6,0.2c-0.3,0-0.5-0.1-0.6-0.2C139.4,41.8,139.3,41.5,139.3,41.2z M141,53.7h-1.5v-9.8
			h1.5V53.7z"/>
		<path class="st5" d="M147.9,53.9c-1.5,0-2.6-0.4-3.4-1.3c-0.8-0.9-1.3-2.1-1.3-3.7c0-1.6,0.4-2.8,1.2-3.8c0.8-0.9,1.8-1.4,3.1-1.4
			c1.2,0,2.2,0.4,2.9,1.2c0.7,0.8,1.1,1.9,1.1,3.2v0.9h-6.8c0,1.2,0.3,2,0.9,2.6s1.3,0.9,2.3,0.9c1.1,0,2.1-0.2,3.1-0.7v1.3
			c-0.5,0.2-1,0.4-1.5,0.5C149.2,53.9,148.6,53.9,147.9,53.9z M147.5,45c-0.8,0-1.4,0.3-1.9,0.8c-0.5,0.5-0.7,1.2-0.8,2.1h5.1
			c0-0.9-0.2-1.7-0.6-2.2S148.3,45,147.5,45z"/>
		<path class="st5" d="M160.5,53.7v-6.4c0-0.8-0.2-1.4-0.5-1.8c-0.4-0.4-0.9-0.6-1.7-0.6c-1,0-1.8,0.3-2.3,0.8
			c-0.5,0.6-0.7,1.5-0.7,2.8v5.2h-1.5v-9.8h1.2l0.2,1.3h0.1c0.3-0.5,0.7-0.9,1.3-1.1s1.2-0.4,1.8-0.4c1.2,0,2.1,0.3,2.7,0.9
			c0.6,0.6,0.9,1.5,0.9,2.7v6.4H160.5z"/>
		<path class="st5" d="M168.7,53.9c-1.4,0-2.5-0.4-3.3-1.3s-1.2-2.1-1.2-3.7c0-1.6,0.4-2.9,1.2-3.8s1.9-1.3,3.4-1.3
			c0.5,0,0.9,0.1,1.4,0.2s0.8,0.2,1.1,0.4l-0.5,1.3c-0.3-0.1-0.7-0.2-1.1-0.3c-0.4-0.1-0.7-0.1-1-0.1c-2,0-3,1.3-3,3.8
			c0,1.2,0.2,2.1,0.7,2.8c0.5,0.6,1.2,1,2.2,1c0.8,0,1.7-0.2,2.5-0.5v1.3C170.5,53.7,169.7,53.9,168.7,53.9z"/>
		<path class="st5" d="M177.3,53.9c-1.5,0-2.6-0.4-3.4-1.3c-0.8-0.9-1.3-2.1-1.3-3.7c0-1.6,0.4-2.8,1.2-3.8c0.8-0.9,1.8-1.4,3.1-1.4
			c1.2,0,2.2,0.4,2.9,1.2c0.7,0.8,1.1,1.9,1.1,3.2v0.9h-6.8c0,1.2,0.3,2,0.9,2.6s1.3,0.9,2.3,0.9c1.1,0,2.1-0.2,3.1-0.7v1.3
			c-0.5,0.2-1,0.4-1.5,0.5C178.5,53.9,178,53.9,177.3,53.9z M176.9,45c-0.8,0-1.4,0.3-1.9,0.8c-0.5,0.5-0.7,1.2-0.8,2.1h5.1
			c0-0.9-0.2-1.7-0.6-2.2S177.7,45,176.9,45z"/>
		<path class="st5" d="M189.5,51c0,0.9-0.3,1.6-1,2.1c-0.7,0.5-1.6,0.7-2.9,0.7c-1.3,0-2.3-0.2-3.1-0.6v-1.4c0.5,0.2,1,0.4,1.5,0.6
			s1.1,0.2,1.6,0.2c0.8,0,1.4-0.1,1.8-0.4c0.4-0.2,0.6-0.6,0.6-1.1c0-0.4-0.2-0.7-0.5-1s-1-0.6-1.9-1c-0.9-0.3-1.6-0.6-2-0.9
			c-0.4-0.3-0.7-0.5-0.9-0.9c-0.2-0.3-0.3-0.7-0.3-1.2c0-0.8,0.3-1.4,1-1.9s1.5-0.7,2.7-0.7c1.1,0,2.1,0.2,3.1,0.6l-0.5,1.2
			c-1-0.4-1.9-0.6-2.7-0.6c-0.7,0-1.2,0.1-1.6,0.3c-0.4,0.2-0.5,0.5-0.5,0.9c0,0.3,0.1,0.5,0.2,0.7c0.1,0.2,0.4,0.4,0.7,0.5
			c0.3,0.2,0.9,0.4,1.7,0.7c1.2,0.4,2,0.9,2.4,1.3S189.5,50.4,189.5,51z"/>
	</g>
	<g>
		<rect class="st6" width="53.6" height="54"/>
		<g>
			<polygon class="st7" points="46.5,21.5 42.5,21.5 42.3,21.5 42.2,21.7 39.3,27.7 36.4,21.7 36.3,21.5 36,21.5 32.2,21.5 
				31.8,21.5 31.8,21.9 31.8,23.9 31.8,24.3 32.2,24.3 32.9,24.3 32.9,32.9 32.1,32.9 31.8,32.9 31.8,33.2 31.8,35.3 31.8,35.7 
				32.1,35.7 36.5,35.7 36.8,35.7 36.8,35.3 36.8,33.2 36.8,32.9 36.5,32.9 35.7,32.9 35.7,26.8 38.9,33.4 39.3,34.1 39.6,33.4 
				42.9,26.8 42.9,32.9 42.1,32.9 41.8,32.9 41.8,33.2 41.8,35.3 41.8,35.7 42.1,35.7 46.5,35.7 46.8,35.7 46.8,35.3 46.8,33.2 
				46.8,32.9 46.5,32.9 45.7,32.9 45.7,24.3 46.5,24.3 46.8,24.3 46.8,23.9 46.8,21.9 46.8,21.5 			"/>
			<path class="st7" d="M21.4,32.9h-1.1l-3.7-8.6h0.4h0.4v-0.4v-2.1v-0.4h-0.4h-5.3h-0.4v0.4v2.1v0.4h0.4H12l-3.7,8.6H7.1H6.7v0.4v2
				v0.4h0.4h4.7h0.4v-0.4v-2v-0.4h-0.4h-0.4l0.6-1.4h4.5l0.6,1.4h-0.5h-0.4v0.4v2v0.4h0.4h4.7h0.4v-0.4v-2v-0.4H21.4z M15.3,28.6
				h-2.1l1-2.4L15.3,28.6z"/>
			<polygon class="st7" points="41.9,10.7 11.6,10.7 11.2,10.7 11.2,11.1 11.2,19.2 11.2,19.6 11.6,19.6 16.8,19.6 17.2,19.6 
				17.2,19.2 17.2,16.2 23.7,16.2 23.7,37.5 20.7,37.5 20.3,37.5 20.3,38 20.3,43.2 20.3,43.6 20.7,43.6 32.8,43.6 33.2,43.6 
				33.2,43.2 33.2,38 33.2,37.5 32.8,37.5 29.8,37.5 29.8,16.2 36.2,16.2 36.2,19.2 36.2,19.6 36.6,19.6 41.9,19.6 42.3,19.6 
				42.3,19.2 42.3,11.1 42.3,10.7 			"/>
			<g>
				<polygon class="st8" points="30.7,40 32,38.7 32,42.3 30.7,41.1 				"/>
				<polygon class="st8" points="28.5,38.8 27.3,40.1 27.3,13.7 28.5,15 				"/>
				<polygon class="st8" points="13.7,13.2 12.4,11.9 40.4,11.9 38.8,13.2 				"/>
				<polygon class="st8" points="41.1,18.4 39.8,17.2 39.8,13.9 41.1,12.6 				"/>
			</g>
		</g>
		<path class="st9" d="M55.5,52.9c0-0.6,0.5-1.1,1.1-1.1c0.6,0,1.1,0.5,1.1,1.1c0,0.6-0.5,1.1-1.1,1.1C56,54,55.5,53.5,55.5,52.9z
			 M57.4,52.9c0-0.5-0.4-0.9-0.8-0.9c-0.4,0-0.8,0.4-0.8,0.9c0,0.5,0.4,0.9,0.8,0.9C57,53.8,57.4,53.4,57.4,52.9z M56.1,52.3h0.5
			c0.3,0,0.4,0.1,0.4,0.4c0,0.2-0.1,0.3-0.3,0.3l0.3,0.5h-0.2L56.5,53h-0.1v0.5h-0.2V52.3z M56.4,52.8h0.2c0.1,0,0.2,0,0.2-0.2
			c0-0.1-0.1-0.2-0.2-0.2h-0.2V52.8z"/>
	</g>
</g>
</svg>
