<?xml version="1.0" encoding="utf-8"?>
<!-- Generator: Adobe Illustrator 16.0.4, SVG Export Plug-In . SVG Version: 6.00 Build 0)  -->
<!DOCTYPE svg PUBLIC "-//W3C//DTD SVG 1.1//EN" "http://www.w3.org/Graphics/SVG/1.1/DTD/svg11.dtd">
<svg version="1.1" id="Layer_1" xmlns="http://www.w3.org/2000/svg" xmlns:xlink="http://www.w3.org/1999/xlink" x="0px" y="0px"
	 width="240px" height="197.083px" viewBox="39.5 60.771 240 197.083" enable-background="new 39.5 60.771 240 197.083"
	 xml:space="preserve">
<title>Artboard 1</title>
<polygon fill="#FFFFFF" points="277.307,125.451 253.479,125.451 252.106,125.451 251.484,126.697 234.212,162.665 216.871,126.68 
	216.265,125.451 214.894,125.451 191.865,125.451 189.691,125.451 189.691,127.643 189.691,139.904 189.691,142.097 
	191.865,142.097 195.805,142.097 195.805,193.604 191.546,193.604 189.354,193.604 189.354,195.796 189.354,208.059 189.354,210.25 
	191.546,210.25 217.406,210.25 219.599,210.25 219.599,208.059 219.599,195.796 219.599,193.604 217.406,193.604 212.932,193.604 
	212.932,157.05 232.252,196.885 234.212,200.949 236.209,196.885 255.726,156.961 255.726,193.604 251.465,193.604 249.256,193.604 
	249.256,195.796 249.256,208.059 249.256,210.25 251.465,210.25 277.307,210.25 279.5,210.25 279.5,208.059 279.5,195.796 
	279.5,193.604 277.307,193.604 272.853,193.604 272.853,142.097 277.307,142.097 279.5,142.097 279.5,139.904 279.5,127.643 
	279.5,125.451 "/>
<path fill="#FFFFFF" d="M127.116,193.552h-6.88l-22.386-51.688h4.313v-16.717H66.233v16.664h4.955L48.82,193.497H39.5v16.665h32.615
	v-16.665h-4.741l3.726-8.607h26.912l3.708,8.607H96.71v16.665h32.633v-16.665L127.116,193.552z M90.792,168.297H78.317l6.239-14.456
	L90.792,168.297z"/>
<polygon fill="#FFFFFF" points="249.932,60.771 68.478,60.771 65.966,60.771 65.966,63.285 65.966,111.762 65.966,114.275 
	68.478,114.275 99.811,114.275 102.325,114.275 102.325,111.762 102.325,93.761 141.035,93.761 141.035,221.497 123.017,221.497 
	120.521,221.497 120.521,224.012 120.521,255.343 120.521,257.854 123.017,257.854 195.376,257.854 197.89,257.854 197.89,255.343 
	197.89,224.012 197.89,221.497 195.376,221.497 177.393,221.497 177.393,93.761 215.873,93.761 215.873,111.531 215.873,114.043 
	218.387,114.043 249.932,114.043 252.445,114.043 252.445,111.531 252.445,63.285 252.445,60.771 "/>
<polygon fill="#B1B3B6" points="182.758,236.416 190.422,228.521 190.422,250.157 182.758,242.83 "/>
<polygon fill="#B1B3B6" points="169.997,229.089 162.315,236.646 162.315,78.702 169.997,86.347 "/>
<polygon fill="#B1B3B6" points="81.329,75.92 73.451,68.258 241.147,68.258 231.235,75.92 "/>
<polygon fill="#B1B3B6" points="245.208,107.021 237.547,99.697 237.547,80.198 245.208,72.321 "/>
</svg>
