<?xml version="1.0" encoding="utf-8"?>
<!-- Generator: Adobe Illustrator 23.0.6, SVG Export Plug-In . SVG Version: 6.00 Build 0)  -->
<svg version="1.1" id="Layer_1" xmlns="http://www.w3.org/2000/svg" xmlns:xlink="http://www.w3.org/1999/xlink" x="0px" y="0px"
	 viewBox="0 0 752.1 88" style="enable-background:new 0 0 752.1 88;" xml:space="preserve">
<style type="text/css">
	.st0{fill:#4B1111;}
	.st1{fill:#FFFFFF;}
	.st2{fill:#B1B3B6;}
	.st3{fill:#5D0025;}
	.st4{fill:#231F20;}
</style>
<g>
	<g>
		<rect class="st0" width="87.3" height="88"/>
		<g>
			<polygon class="st1" points="75.7,35 69.2,35 68.9,35 68.7,35.4 64,45.2 59.3,35.4 59.1,35 58.7,35 52.5,35 51.9,35 51.9,35.6 
				51.9,39 51.9,39.6 52.5,39.6 53.5,39.6 53.5,53.6 52.4,53.6 51.8,53.6 51.8,54.2 51.8,57.5 51.8,58.1 52.4,58.1 59.4,58.1 
				60,58.1 60,57.5 60,54.2 60,53.6 59.4,53.6 58.2,53.6 58.2,43.6 63.5,54.5 64,55.6 64.5,54.5 69.8,43.6 69.8,53.6 68.7,53.6 
				68.1,53.6 68.1,54.2 68.1,57.5 68.1,58.1 68.7,58.1 75.7,58.1 76.3,58.1 76.3,57.5 76.3,54.2 76.3,53.6 75.7,53.6 74.5,53.6 
				74.5,39.6 75.7,39.6 76.3,39.6 76.3,39 76.3,35.6 76.3,35 			"/>
			<path class="st1" d="M34.8,53.6H33l-6.1-14.1h0.6h0.6v-0.6v-3.3v-0.6h-0.6h-8.6h-0.6v0.6v3.3v0.6h0.6h0.7l-6.1,14.1h-1.9H11v0.6
				v3.3v0.6h0.6h7.7h0.6v-0.6v-3.3v-0.6h-0.6h-0.7l1-2.3h7.3l1,2.3h-0.8h-0.6v0.6v3.3v0.6h0.6h7.7h0.6v-0.6v-3.3v-0.6H34.8z
				 M25,46.7h-3.4l1.7-3.9L25,46.7z"/>
			<polygon class="st1" points="68.3,17.4 18.9,17.4 18.2,17.4 18.2,18.1 18.2,31.3 18.2,32 18.9,32 27.4,32 28.1,32 28.1,31.3 
				28.1,26.4 38.6,26.4 38.6,61.2 33.7,61.2 33,61.2 33,61.8 33,70.4 33,71.1 33.7,71.1 53.4,71.1 54.1,71.1 54.1,70.4 54.1,61.8 
				54.1,61.2 53.4,61.2 48.5,61.2 48.5,26.4 59,26.4 59,31.2 59,31.9 59.7,31.9 68.3,31.9 68.9,31.9 68.9,31.2 68.9,18.1 68.9,17.4 
							"/>
			<g>
				<polygon class="st2" points="50,65.2 52.1,63.1 52.1,69 50,67 				"/>
				<polygon class="st2" points="46.5,63.2 44.4,65.3 44.4,22.3 46.5,24.4 				"/>
				<polygon class="st2" points="22.4,21.5 20.2,19.5 65.9,19.5 63.2,21.5 				"/>
				<polygon class="st2" points="67,30 64.9,28 64.9,22.7 67,20.6 				"/>
			</g>
		</g>
		<path class="st3" d="M90.4,86.2c0-1,0.8-1.7,1.8-1.7c1,0,1.7,0.8,1.7,1.7c0,1-0.8,1.8-1.7,1.8C91.2,88,90.4,87.2,90.4,86.2z
			 M93.5,86.2c0-0.8-0.6-1.4-1.3-1.4c-0.7,0-1.3,0.6-1.3,1.4c0,0.8,0.6,1.4,1.3,1.4C92.9,87.7,93.5,87.1,93.5,86.2z M91.5,85.3h0.7
			c0.5,0,0.7,0.2,0.7,0.6c0,0.3-0.2,0.5-0.5,0.5l0.5,0.9h-0.4l-0.5-0.9h-0.2v0.9h-0.4V85.3z M91.9,86.1h0.3c0.2,0,0.4,0,0.4-0.3
			c0-0.2-0.2-0.3-0.4-0.3h-0.3V86.1z"/>
	</g>
	<g>
		<path class="st4" d="M117.7,25.5h-2.2V14h-3.9v-1.9h10.1V14h-3.9V25.5z"/>
		<path class="st4" d="M132.2,25.5h-7.6V12.1h7.6v1.8h-5.4v3.6h5v1.8h-5v4.2h5.4V25.5z"/>
		<path class="st4" d="M145.8,25.5h-2.5L140,20l-3.4,5.5h-2.3l4.4-6.9l-4.2-6.4h2.4l3.1,5.1l3.1-5.1h2.4l-4.2,6.5L145.8,25.5z"/>
		<path class="st4" d="M156.9,25.5l-1.3-3.7h-5.1l-1.3,3.7h-2.3l5-13.4h2.4l5,13.4H156.9z M155,19.9l-1.3-3.6
			c-0.1-0.2-0.2-0.6-0.4-1.2c-0.2-0.5-0.3-0.9-0.3-1.2c-0.2,0.8-0.4,1.6-0.7,2.5l-1.2,3.5H155z"/>
		<path class="st4" d="M169.6,21.8c0,1.2-0.4,2.1-1.3,2.8c-0.9,0.7-2,1-3.6,1c-1.5,0-2.8-0.2-3.7-0.7v-2.1c0.6,0.3,1.3,0.5,1.9,0.7
			c0.7,0.2,1.3,0.2,1.9,0.2c0.9,0,1.5-0.2,1.9-0.5c0.4-0.3,0.6-0.8,0.6-1.3c0-0.5-0.2-0.9-0.6-1.3c-0.4-0.3-1.2-0.8-2.3-1.2
			c-1.2-0.5-2.1-1.1-2.6-1.7c-0.5-0.6-0.8-1.4-0.8-2.3c0-1.1,0.4-2,1.2-2.6s1.9-1,3.2-1c1.3,0,2.6,0.3,3.8,0.8l-0.7,1.8
			c-1.2-0.5-2.3-0.8-3.2-0.8c-0.7,0-1.2,0.2-1.6,0.5c-0.4,0.3-0.5,0.7-0.5,1.2c0,0.3,0.1,0.6,0.2,0.9s0.4,0.5,0.7,0.7
			s0.9,0.5,1.8,0.9c1,0.4,1.7,0.8,2.2,1.1s0.8,0.8,1,1.2C169.5,20.7,169.6,21.2,169.6,21.8z"/>
		<path class="st4" d="M187.3,25.5l-1.3-3.7h-5.1l-1.3,3.7h-2.3l5-13.4h2.4l5,13.4H187.3z M185.3,19.9l-1.3-3.6
			c-0.1-0.2-0.2-0.6-0.4-1.2c-0.2-0.5-0.3-0.9-0.3-1.2c-0.2,0.8-0.4,1.6-0.7,2.5l-1.2,3.5H185.3z"/>
		<path class="st4" d="M191.4,21.9c0-0.8,0.2-1.5,0.6-2.1c0.4-0.6,1.1-1.2,2.1-1.8c-0.6-0.7-1-1.2-1.2-1.7c-0.2-0.5-0.3-0.9-0.3-1.5
			c0-0.9,0.3-1.7,1-2.2c0.7-0.5,1.6-0.8,2.7-0.8c1.1,0,1.9,0.3,2.5,0.8c0.6,0.5,0.9,1.2,0.9,2.1c0,0.7-0.2,1.3-0.6,1.9
			c-0.4,0.6-1.1,1.1-2.1,1.7l3.2,3.1c0.5-0.7,0.9-1.6,1.2-2.9h2.2c-0.4,1.7-1.1,3.1-2,4.2l2.8,2.7h-2.8l-1.4-1.3
			c-0.6,0.5-1.3,0.9-2,1.1s-1.5,0.4-2.3,0.4c-1.4,0-2.5-0.3-3.3-1C191.8,24,191.4,23.1,191.4,21.9z M196,23.8c1.1,0,2.1-0.3,2.9-1
			l-3.5-3.4c-0.6,0.4-1.1,0.8-1.3,1.2c-0.2,0.4-0.4,0.8-0.4,1.2c0,0.6,0.2,1.1,0.6,1.5C194.7,23.6,195.3,23.8,196,23.8z M194.6,15
			c0,0.4,0.1,0.7,0.3,1.1c0.2,0.3,0.5,0.7,0.9,1.1c0.7-0.4,1.2-0.8,1.5-1.1c0.3-0.3,0.4-0.7,0.4-1.1c0-0.4-0.1-0.7-0.4-1
			c-0.3-0.2-0.6-0.4-1.1-0.4c-0.5,0-0.9,0.1-1.1,0.4S194.6,14.6,194.6,15z"/>
		<path class="st4" d="M212.9,25.5L209,14.3h-0.1c0.1,1.7,0.2,3.2,0.2,4.7v6.5h-2V12.1h3.1l3.7,10.6h0.1l3.8-10.6h3.1v13.4h-2.1
			v-6.6c0-0.7,0-1.5,0.1-2.6s0.1-1.7,0.1-1.9h-0.1l-4,11.2H212.9z"/>
		<path class="st4" d="M241.6,12.1v8.7c0,1-0.2,1.9-0.6,2.6s-1,1.3-1.8,1.7c-0.8,0.4-1.8,0.6-2.9,0.6c-1.7,0-2.9-0.4-3.9-1.3
			c-0.9-0.9-1.4-2.1-1.4-3.6v-8.6h2.2v8.5c0,1.1,0.3,1.9,0.8,2.4c0.5,0.5,1.3,0.8,2.4,0.8c2.1,0,3.1-1.1,3.1-3.2v-8.4H241.6z"/>
		<path class="st4" d="M257.1,25.5h-2.7l-6.6-10.7h-0.1l0,0.6c0.1,1.1,0.1,2.2,0.1,3.1v7h-2V12.1h2.7l6.6,10.6h0.1
			c0-0.1,0-0.7-0.1-1.5s-0.1-1.6-0.1-2.1v-7h2V25.5z"/>
		<path class="st4" d="M261.6,25.5V12.1h2.2v13.4H261.6z"/>
		<path class="st4" d="M275.9,12.1h2.3l-4.7,13.4h-2.3l-4.7-13.4h2.3l2.8,8.3c0.1,0.4,0.3,0.9,0.5,1.5c0.2,0.6,0.3,1.1,0.3,1.4
			c0.1-0.5,0.2-1,0.4-1.6c0.2-0.6,0.3-1.1,0.4-1.4L275.9,12.1z"/>
		<path class="st4" d="M288.4,25.5h-7.6V12.1h7.6v1.8H283v3.6h5v1.8h-5v4.2h5.4V25.5z"/>
		<path class="st4" d="M294.4,20.1v5.3h-2.2V12.1h3.8c1.7,0,3,0.3,3.8,1c0.8,0.6,1.2,1.6,1.2,2.9c0,1.7-0.9,2.9-2.6,3.6l3.8,5.9
			h-2.5l-3.2-5.3H294.4z M294.4,18.3h1.5c1,0,1.8-0.2,2.2-0.6c0.5-0.4,0.7-0.9,0.7-1.7c0-0.8-0.2-1.3-0.7-1.6
			c-0.5-0.3-1.2-0.5-2.2-0.5h-1.4V18.3z"/>
		<path class="st4" d="M312.9,21.8c0,1.2-0.4,2.1-1.3,2.8c-0.9,0.7-2,1-3.6,1c-1.5,0-2.8-0.2-3.7-0.7v-2.1c0.6,0.3,1.3,0.5,1.9,0.7
			c0.7,0.2,1.3,0.2,1.9,0.2c0.9,0,1.5-0.2,1.9-0.5c0.4-0.3,0.6-0.8,0.6-1.3c0-0.5-0.2-0.9-0.6-1.3c-0.4-0.3-1.2-0.8-2.3-1.2
			c-1.2-0.5-2.1-1.1-2.6-1.7c-0.5-0.6-0.8-1.4-0.8-2.3c0-1.1,0.4-2,1.2-2.6s1.9-1,3.2-1c1.3,0,2.6,0.3,3.8,0.8l-0.7,1.8
			c-1.2-0.5-2.3-0.8-3.2-0.8c-0.7,0-1.2,0.2-1.6,0.5c-0.4,0.3-0.5,0.7-0.5,1.2c0,0.3,0.1,0.6,0.2,0.9s0.4,0.5,0.7,0.7
			s0.9,0.5,1.8,0.9c1,0.4,1.7,0.8,2.2,1.1s0.8,0.8,1,1.2C312.8,20.7,312.9,21.2,312.9,21.8z"/>
		<path class="st4" d="M316.4,25.5V12.1h2.2v13.4H316.4z"/>
		<path class="st4" d="M327.7,25.5h-2.2V14h-3.9v-1.9h10.1V14h-3.9V25.5z"/>
		<path class="st4" d="M338.4,18.2l3.2-6.1h2.4l-4.5,8.2v5.2h-2.2v-5.1l-4.4-8.3h2.4L338.4,18.2z"/>
	</g>
	<g>
		<path class="st4" d="M126.4,45.2c-2.9,0-5.3,1-7,2.9c-1.7,2-2.6,4.6-2.6,8c0,3.5,0.8,6.2,2.5,8.1c1.6,1.9,4,2.9,7,2.9
			c1.9,0,4-0.3,6.4-1v2.7c-1.9,0.7-4.1,1-6.9,1c-3.9,0-7-1.2-9.1-3.6s-3.2-5.8-3.2-10.2c0-2.8,0.5-5.2,1.5-7.2
			c1-2.1,2.5-3.7,4.5-4.8c1.9-1.1,4.2-1.7,6.9-1.7c2.8,0,5.3,0.5,7.4,1.5l-1.3,2.7C130.5,45.7,128.4,45.2,126.4,45.2z"/>
		<path class="st4" d="M155.5,59.5c0,3.3-0.8,5.8-2.5,7.7c-1.6,1.8-3.9,2.8-6.8,2.8c-1.8,0-3.4-0.4-4.8-1.3c-1.4-0.8-2.5-2-3.2-3.6
			c-0.8-1.6-1.1-3.4-1.1-5.5c0-3.3,0.8-5.8,2.5-7.6c1.6-1.8,3.9-2.7,6.8-2.7c2.8,0,5,0.9,6.7,2.8C154.6,53.8,155.5,56.3,155.5,59.5z
			 M140.2,59.5c0,2.6,0.5,4.5,1.5,5.9c1,1.3,2.5,2,4.5,2s3.5-0.7,4.5-2c1-1.3,1.5-3.3,1.5-5.9c0-2.5-0.5-4.5-1.5-5.8
			c-1-1.3-2.6-2-4.6-2c-2,0-3.5,0.7-4.5,2S140.2,56.9,140.2,59.5z"/>
		<path class="st4" d="M163.8,69.6h-3V41.1h3V69.6z"/>
		<path class="st4" d="M173.3,69.6h-3V41.1h3V69.6z"/>
		<path class="st4" d="M188.2,69.9c-3,0-5.3-0.9-7-2.7c-1.7-1.8-2.6-4.3-2.6-7.5c0-3.2,0.8-5.8,2.4-7.7c1.6-1.9,3.7-2.9,6.4-2.9
			c2.5,0,4.5,0.8,6,2.5c1.5,1.7,2.2,3.8,2.2,6.5v1.9h-13.8c0.1,2.4,0.7,4.1,1.8,5.4c1.1,1.2,2.7,1.8,4.8,1.8c2.2,0,4.3-0.5,6.4-1.4
			v2.7c-1.1,0.5-2.1,0.8-3,1C190.7,69.8,189.6,69.9,188.2,69.9z M187.4,51.7c-1.6,0-2.9,0.5-3.9,1.6c-1,1-1.5,2.5-1.7,4.4h10.5
			c0-1.9-0.4-3.4-1.3-4.4S189,51.7,187.4,51.7z"/>
		<path class="st4" d="M217.2,49.5v1.9l-3.7,0.4c0.3,0.4,0.6,1,0.9,1.7c0.3,0.7,0.4,1.5,0.4,2.3c0,2-0.7,3.5-2,4.7
			c-1.3,1.2-3.2,1.8-5.5,1.8c-0.6,0-1.2,0-1.7-0.1c-1.3,0.7-1.9,1.5-1.9,2.6c0,0.5,0.2,1,0.7,1.2c0.5,0.3,1.2,0.4,2.3,0.4h3.6
			c2.2,0,3.8,0.5,5,1.4s1.7,2.2,1.7,4c0,2.2-0.9,3.9-2.7,5.1s-4.4,1.7-7.8,1.7c-2.6,0-4.6-0.5-6.1-1.5c-1.4-1-2.1-2.4-2.1-4.1
			c0-1.2,0.4-2.3,1.2-3.2c0.8-0.9,1.9-1.5,3.3-1.8c-0.5-0.2-0.9-0.6-1.3-1.1s-0.5-1.1-0.5-1.7c0-0.7,0.2-1.4,0.6-1.9
			c0.4-0.5,1-1.1,1.8-1.6c-1-0.4-1.9-1.2-2.5-2.2c-0.7-1-1-2.2-1-3.5c0-2.2,0.7-3.9,2-5.1s3.2-1.8,5.6-1.8c1,0,2,0.1,2.8,0.4H217.2z
			 M201.2,72.9c0,1.1,0.5,1.9,1.4,2.5s2.2,0.8,3.9,0.8c2.5,0,4.4-0.4,5.7-1.1c1.2-0.8,1.8-1.8,1.8-3.1c0-1.1-0.3-1.8-1-2.3
			s-1.9-0.6-3.8-0.6h-3.6c-1.4,0-2.5,0.3-3.2,1C201.6,70.7,201.2,71.7,201.2,72.9z M202.8,55.9c0,1.4,0.4,2.5,1.2,3.2
			c0.8,0.7,1.9,1.1,3.3,1.1c3,0,4.4-1.4,4.4-4.3c0-3-1.5-4.5-4.5-4.5c-1.4,0-2.5,0.4-3.3,1.2C203.2,53.3,202.8,54.4,202.8,55.9z"/>
		<path class="st4" d="M229.8,69.9c-3,0-5.3-0.9-7-2.7c-1.7-1.8-2.6-4.3-2.6-7.5c0-3.2,0.8-5.8,2.4-7.7c1.6-1.9,3.7-2.9,6.4-2.9
			c2.5,0,4.5,0.8,6,2.5c1.5,1.7,2.2,3.8,2.2,6.5v1.9h-13.8c0.1,2.4,0.7,4.1,1.8,5.4c1.1,1.2,2.7,1.8,4.8,1.8c2.2,0,4.3-0.5,6.4-1.4
			v2.7c-1.1,0.5-2.1,0.8-3,1C232.3,69.8,231.1,69.9,229.8,69.9z M229,51.7c-1.6,0-2.9,0.5-3.9,1.6c-1,1-1.5,2.5-1.7,4.4h10.5
			c0-1.9-0.4-3.4-1.3-4.4S230.5,51.7,229,51.7z"/>
		<path class="st4" d="M269.4,59.5c0,3.3-0.8,5.8-2.5,7.7c-1.6,1.8-3.9,2.8-6.8,2.8c-1.8,0-3.4-0.4-4.8-1.3c-1.4-0.8-2.5-2-3.2-3.6
			c-0.8-1.6-1.1-3.4-1.1-5.5c0-3.3,0.8-5.8,2.5-7.6c1.6-1.8,3.9-2.7,6.8-2.7c2.8,0,5,0.9,6.7,2.8C268.6,53.8,269.4,56.3,269.4,59.5z
			 M254.1,59.5c0,2.6,0.5,4.5,1.5,5.9c1,1.3,2.5,2,4.5,2s3.5-0.7,4.5-2c1-1.3,1.5-3.3,1.5-5.9c0-2.5-0.5-4.5-1.5-5.8
			c-1-1.3-2.6-2-4.6-2c-2,0-3.5,0.7-4.5,2S254.1,56.9,254.1,59.5z"/>
		<path class="st4" d="M283.8,51.9h-5.1v17.7h-3V51.9H272v-1.4l3.6-1.1v-1.1c0-4.9,2.2-7.4,6.5-7.4c1.1,0,2.3,0.2,3.7,0.6L285,44
			c-1.2-0.4-2.2-0.6-3-0.6c-1.1,0-2,0.4-2.5,1.1c-0.5,0.8-0.8,2-0.8,3.7v1.3h5.1V51.9z"/>
		<path class="st4" d="M314.4,69.6l-3.3-8.5h-10.7l-3.3,8.5h-3.1l10.6-26.9h2.6l10.5,26.9H314.4z M310.1,58.2L307,50
			c-0.4-1-0.8-2.3-1.2-3.9c-0.3,1.2-0.7,2.5-1.2,3.9l-3.1,8.3H310.1z"/>
		<path class="st4" d="M337.3,49.5v1.9l-3.7,0.4c0.3,0.4,0.6,1,0.9,1.7c0.3,0.7,0.4,1.5,0.4,2.3c0,2-0.7,3.5-2,4.7
			c-1.3,1.2-3.2,1.8-5.5,1.8c-0.6,0-1.2,0-1.7-0.1c-1.3,0.7-1.9,1.5-1.9,2.6c0,0.5,0.2,1,0.7,1.2c0.5,0.3,1.2,0.4,2.3,0.4h3.6
			c2.2,0,3.8,0.5,5,1.4s1.7,2.2,1.7,4c0,2.2-0.9,3.9-2.7,5.1s-4.4,1.7-7.8,1.7c-2.6,0-4.6-0.5-6.1-1.5c-1.4-1-2.1-2.4-2.1-4.1
			c0-1.2,0.4-2.3,1.2-3.2c0.8-0.9,1.9-1.5,3.3-1.8c-0.5-0.2-0.9-0.6-1.3-1.1s-0.5-1.1-0.5-1.7c0-0.7,0.2-1.4,0.6-1.9
			c0.4-0.5,1-1.1,1.8-1.6c-1-0.4-1.9-1.2-2.5-2.2c-0.7-1-1-2.2-1-3.5c0-2.2,0.7-3.9,2-5.1s3.2-1.8,5.6-1.8c1,0,2,0.1,2.8,0.4H337.3z
			 M321.3,72.9c0,1.1,0.5,1.9,1.4,2.5s2.2,0.8,3.9,0.8c2.5,0,4.4-0.4,5.7-1.1c1.2-0.8,1.8-1.8,1.8-3.1c0-1.1-0.3-1.8-1-2.3
			s-1.9-0.6-3.8-0.6h-3.6c-1.4,0-2.5,0.3-3.2,1C321.7,70.7,321.3,71.7,321.3,72.9z M322.9,55.9c0,1.4,0.4,2.5,1.2,3.2
			c0.8,0.7,1.9,1.1,3.3,1.1c3,0,4.4-1.4,4.4-4.3c0-3-1.5-4.5-4.5-4.5c-1.4,0-2.5,0.4-3.3,1.2C323.3,53.3,322.9,54.4,322.9,55.9z"/>
		<path class="st4" d="M350.6,49.1c0.9,0,1.7,0.1,2.4,0.2l-0.4,2.8c-0.8-0.2-1.6-0.3-2.2-0.3c-1.6,0-3,0.7-4.2,2
			c-1.2,1.3-1.7,3-1.7,4.9v10.8h-3V49.5h2.5l0.3,3.7h0.1c0.7-1.3,1.6-2.3,2.7-3C348.1,49.5,349.3,49.1,350.6,49.1z"/>
		<path class="st4" d="M356.4,44.1c0-0.7,0.2-1.2,0.5-1.5c0.3-0.3,0.8-0.5,1.3-0.5c0.5,0,0.9,0.2,1.3,0.5s0.5,0.8,0.5,1.5
			c0,0.7-0.2,1.2-0.5,1.5s-0.8,0.5-1.3,0.5c-0.5,0-0.9-0.2-1.3-0.5C356.6,45.3,356.4,44.7,356.4,44.1z M359.7,69.6h-3V49.5h3V69.6z"
			/>
		<path class="st4" d="M374.2,69.9c-2.9,0-5.2-0.9-6.7-2.7c-1.6-1.8-2.4-4.3-2.4-7.6c0-3.4,0.8-5.9,2.4-7.8s3.9-2.7,6.9-2.7
			c1,0,1.9,0.1,2.9,0.3c1,0.2,1.7,0.5,2.3,0.7l-0.9,2.6c-0.7-0.3-1.4-0.5-2.2-0.7s-1.5-0.3-2.1-0.3c-4.1,0-6.1,2.6-6.1,7.8
			c0,2.5,0.5,4.4,1.5,5.7c1,1.3,2.5,2,4.4,2c1.7,0,3.4-0.4,5.1-1.1v2.7C377.9,69.6,376.2,69.9,374.2,69.9z"/>
		<path class="st4" d="M386.9,49.5v13c0,1.6,0.4,2.9,1.1,3.7c0.7,0.8,1.9,1.2,3.5,1.2c2.1,0,3.6-0.6,4.6-1.7c1-1.1,1.5-3,1.5-5.6
			V49.5h3v20.1h-2.5l-0.4-2.7h-0.2c-0.6,1-1.5,1.7-2.6,2.3c-1.1,0.5-2.4,0.8-3.8,0.8c-2.4,0-4.3-0.6-5.5-1.7c-1.2-1.2-1.8-3-1.8-5.6
			V49.5H386.9z"/>
		<path class="st4" d="M410.1,69.6h-3V41.1h3V69.6z"/>
		<path class="st4" d="M423,67.4c0.5,0,1.1,0,1.6-0.1c0.5-0.1,0.9-0.2,1.2-0.2v2.3c-0.3,0.2-0.8,0.3-1.5,0.4
			c-0.6,0.1-1.2,0.2-1.7,0.2c-3.9,0-5.8-2-5.8-6.1V51.9h-2.9v-1.5l2.9-1.3l1.3-4.3h1.8v4.6h5.8v2.4h-5.8v11.8c0,1.2,0.3,2.1,0.9,2.8
			C421.2,67.1,422,67.4,423,67.4z"/>
		<path class="st4" d="M432.6,49.5v13c0,1.6,0.4,2.9,1.1,3.7c0.7,0.8,1.9,1.2,3.5,1.2c2.1,0,3.6-0.6,4.6-1.7c1-1.1,1.5-3,1.5-5.6
			V49.5h3v20.1h-2.5l-0.4-2.7h-0.2c-0.6,1-1.5,1.7-2.6,2.3c-1.1,0.5-2.4,0.8-3.8,0.8c-2.4,0-4.3-0.6-5.5-1.7c-1.2-1.2-1.8-3-1.8-5.6
			V49.5H432.6z"/>
		<path class="st4" d="M461.9,49.1c0.9,0,1.7,0.1,2.4,0.2l-0.4,2.8c-0.8-0.2-1.6-0.3-2.2-0.3c-1.6,0-3,0.7-4.2,2
			c-1.2,1.3-1.7,3-1.7,4.9v10.8h-3V49.5h2.5l0.3,3.7h0.1c0.7-1.3,1.6-2.3,2.7-3C459.5,49.5,460.6,49.1,461.9,49.1z"/>
		<path class="st4" d="M476.5,69.9c-3,0-5.3-0.9-7-2.7s-2.6-4.3-2.6-7.5c0-3.2,0.8-5.8,2.4-7.7c1.6-1.9,3.7-2.9,6.4-2.9
			c2.5,0,4.5,0.8,6,2.5c1.5,1.7,2.2,3.8,2.2,6.5v1.9h-13.8c0.1,2.4,0.7,4.1,1.8,5.4c1.1,1.2,2.7,1.8,4.8,1.8c2.2,0,4.3-0.5,6.4-1.4
			v2.7c-1.1,0.5-2.1,0.8-3,1C479,69.8,477.9,69.9,476.5,69.9z M475.7,51.7c-1.6,0-2.9,0.5-3.9,1.6c-1,1-1.5,2.5-1.7,4.4h10.5
			c0-1.9-0.4-3.4-1.3-4.4C478.5,52.2,477.3,51.7,475.7,51.7z"/>
		<path class="st4" d="M497.7,62.6c0-1.6,0.4-3,1.3-4.2c0.8-1.2,2.4-2.5,4.6-3.7c-1-1.2-1.7-2-2.1-2.6s-0.7-1.2-0.9-1.9
			c-0.2-0.6-0.3-1.3-0.3-2c0-1.8,0.6-3.3,1.8-4.3c1.2-1,2.9-1.5,5-1.5c2,0,3.5,0.5,4.7,1.5c1.1,1,1.7,2.4,1.7,4.3
			c0,1.3-0.4,2.5-1.2,3.6c-0.8,1.1-2.2,2.2-4.1,3.4l7.4,7.2c0.7-0.8,1.2-1.6,1.6-2.7c0.4-1,0.8-2.1,1-3.3h3.1
			c-0.8,3.5-2.1,6.1-3.8,7.9l5.5,5.3h-4.2l-3.4-3.3c-1.4,1.3-2.9,2.2-4.4,2.8c-1.5,0.6-3.1,0.8-5,0.8c-2.6,0-4.7-0.6-6.1-1.9
			C498.4,66.7,497.7,64.9,497.7,62.6z M506,67.2c2.9,0,5.4-0.9,7.3-2.8l-8-7.8c-1.4,0.8-2.3,1.5-2.9,2.1c-0.6,0.5-1,1.1-1.2,1.7
			s-0.4,1.3-0.4,2.1c0,1.4,0.5,2.6,1.4,3.4C503.2,66.8,504.4,67.2,506,67.2z M503.2,48.1c0,0.8,0.2,1.6,0.7,2.4s1.2,1.7,2.3,2.8
			c1.6-0.9,2.7-1.8,3.3-2.5c0.6-0.8,0.9-1.7,0.9-2.7c0-0.9-0.3-1.7-0.9-2.3c-0.6-0.6-1.5-0.9-2.5-0.9c-1.1,0-2,0.3-2.6,0.9
			C503.5,46.3,503.2,47.1,503.2,48.1z"/>
		<path class="st4" d="M536.4,69.6V42.8h3.1v23.9h11.8v2.8H536.4z"/>
		<path class="st4" d="M555.1,44.1c0-0.7,0.2-1.2,0.5-1.5c0.3-0.3,0.8-0.5,1.3-0.5c0.5,0,0.9,0.2,1.3,0.5c0.4,0.3,0.5,0.8,0.5,1.5
			c0,0.7-0.2,1.2-0.5,1.5c-0.4,0.3-0.8,0.5-1.3,0.5c-0.5,0-0.9-0.2-1.3-0.5C555.3,45.3,555.1,44.7,555.1,44.1z M558.4,69.6h-3V49.5
			h3V69.6z"/>
		<path class="st4" d="M573.9,51.9h-5.1v17.7h-3V51.9h-3.6v-1.4l3.6-1.1v-1.1c0-4.9,2.2-7.4,6.5-7.4c1.1,0,2.3,0.2,3.7,0.6l-0.8,2.4
			c-1.2-0.4-2.2-0.6-3-0.6c-1.1,0-2,0.4-2.5,1.1s-0.8,2-0.8,3.7v1.3h5.1V51.9z"/>
		<path class="st4" d="M586,69.9c-3,0-5.3-0.9-7-2.7s-2.6-4.3-2.6-7.5c0-3.2,0.8-5.8,2.4-7.7c1.6-1.9,3.7-2.9,6.4-2.9
			c2.5,0,4.5,0.8,6,2.5c1.5,1.7,2.2,3.8,2.2,6.5v1.9h-13.8c0.1,2.4,0.7,4.1,1.8,5.4c1.1,1.2,2.7,1.8,4.8,1.8c2.2,0,4.3-0.5,6.4-1.4
			v2.7c-1.1,0.5-2.1,0.8-3,1C588.5,69.8,587.4,69.9,586,69.9z M585.2,51.7c-1.6,0-2.9,0.5-3.9,1.6c-1,1-1.5,2.5-1.7,4.4h10.5
			c0-1.9-0.4-3.4-1.3-4.4C588,52.2,586.8,51.7,585.2,51.7z"/>
		<path class="st4" d="M623.9,62.4c0,2.4-0.9,4.2-2.6,5.5s-4,2-7,2c-3.2,0-5.6-0.4-7.3-1.2v-3c1.1,0.5,2.3,0.8,3.6,1.1
			c1.3,0.3,2.6,0.4,3.8,0.4c2.1,0,3.6-0.4,4.7-1.2c1-0.8,1.6-1.9,1.6-3.3c0-0.9-0.2-1.7-0.6-2.3s-1-1.1-1.9-1.6
			c-0.9-0.5-2.2-1.1-4-1.7c-2.5-0.9-4.3-1.9-5.3-3.2s-1.6-2.8-1.6-4.8c0-2.1,0.8-3.7,2.3-4.9c1.5-1.2,3.6-1.8,6.1-1.8
			c2.7,0,5.1,0.5,7.3,1.5l-1,2.7c-2.2-0.9-4.4-1.4-6.4-1.4c-1.6,0-2.9,0.4-3.9,1.1c-0.9,0.7-1.4,1.7-1.4,2.9c0,0.9,0.2,1.7,0.5,2.3
			c0.3,0.6,0.9,1.1,1.7,1.6c0.8,0.5,2.1,1,3.7,1.6c2.8,1,4.7,2.1,5.8,3.2C623.3,59.1,623.9,60.6,623.9,62.4z"/>
		<path class="st4" d="M636.9,69.9c-2.9,0-5.2-0.9-6.7-2.7c-1.6-1.8-2.4-4.3-2.4-7.6c0-3.4,0.8-5.9,2.4-7.8c1.6-1.8,3.9-2.7,6.9-2.7
			c1,0,1.9,0.1,2.9,0.3c1,0.2,1.7,0.5,2.3,0.7l-0.9,2.6c-0.7-0.3-1.4-0.5-2.2-0.7s-1.5-0.3-2.1-0.3c-4.1,0-6.1,2.6-6.1,7.8
			c0,2.5,0.5,4.4,1.5,5.7c1,1.3,2.5,2,4.4,2c1.7,0,3.4-0.4,5.1-1.1v2.7C640.6,69.6,638.9,69.9,636.9,69.9z"/>
		<path class="st4" d="M646.5,44.1c0-0.7,0.2-1.2,0.5-1.5c0.3-0.3,0.8-0.5,1.3-0.5c0.5,0,0.9,0.2,1.3,0.5c0.4,0.3,0.5,0.8,0.5,1.5
			c0,0.7-0.2,1.2-0.5,1.5c-0.4,0.3-0.8,0.5-1.3,0.5c-0.5,0-0.9-0.2-1.3-0.5C646.6,45.3,646.5,44.7,646.5,44.1z M649.8,69.6h-3V49.5
			h3V69.6z"/>
		<path class="st4" d="M664.7,69.9c-3,0-5.3-0.9-7-2.7s-2.6-4.3-2.6-7.5c0-3.2,0.8-5.8,2.4-7.7c1.6-1.9,3.7-2.9,6.4-2.9
			c2.5,0,4.5,0.8,6,2.5c1.5,1.7,2.2,3.8,2.2,6.5v1.9h-13.8c0.1,2.4,0.7,4.1,1.8,5.4c1.1,1.2,2.7,1.8,4.8,1.8c2.2,0,4.3-0.5,6.4-1.4
			v2.7c-1.1,0.5-2.1,0.8-3,1C667.2,69.8,666,69.9,664.7,69.9z M663.9,51.7c-1.6,0-2.9,0.5-3.9,1.6c-1,1-1.5,2.5-1.7,4.4h10.5
			c0-1.9-0.4-3.4-1.3-4.4C666.7,52.2,665.4,51.7,663.9,51.7z"/>
		<path class="st4" d="M691,69.6v-13c0-1.6-0.4-2.9-1.1-3.7c-0.7-0.8-1.9-1.2-3.5-1.2c-2.1,0-3.6,0.6-4.6,1.7c-1,1.1-1.5,3-1.5,5.6
			v10.5h-3V49.5h2.5l0.5,2.7h0.1c0.6-1,1.5-1.8,2.6-2.3s2.4-0.8,3.8-0.8c2.4,0,4.2,0.6,5.5,1.7c1.2,1.2,1.8,3,1.8,5.6v13.1H691z"/>
		<path class="st4" d="M708.3,69.9c-2.9,0-5.2-0.9-6.7-2.7c-1.6-1.8-2.4-4.3-2.4-7.6c0-3.4,0.8-5.9,2.4-7.8c1.6-1.8,3.9-2.7,6.9-2.7
			c1,0,1.9,0.1,2.9,0.3c1,0.2,1.7,0.5,2.3,0.7l-0.9,2.6c-0.7-0.3-1.4-0.5-2.2-0.7s-1.5-0.3-2.1-0.3c-4.1,0-6.1,2.6-6.1,7.8
			c0,2.5,0.5,4.4,1.5,5.7c1,1.3,2.5,2,4.4,2c1.7,0,3.4-0.4,5.1-1.1v2.7C712,69.6,710.3,69.9,708.3,69.9z"/>
		<path class="st4" d="M726.6,69.9c-3,0-5.3-0.9-7-2.7s-2.6-4.3-2.6-7.5c0-3.2,0.8-5.8,2.4-7.7c1.6-1.9,3.7-2.9,6.4-2.9
			c2.5,0,4.5,0.8,6,2.5c1.5,1.7,2.2,3.8,2.2,6.5v1.9h-13.8c0.1,2.4,0.7,4.1,1.8,5.4c1.1,1.2,2.7,1.8,4.8,1.8c2.2,0,4.3-0.5,6.4-1.4
			v2.7c-1.1,0.5-2.1,0.8-3,1C729.1,69.8,727.9,69.9,726.6,69.9z M725.7,51.7c-1.6,0-2.9,0.5-3.9,1.6c-1,1-1.5,2.5-1.7,4.4h10.5
			c0-1.9-0.4-3.4-1.3-4.4C728.5,52.2,727.3,51.7,725.7,51.7z"/>
		<path class="st4" d="M752.1,64.1c0,1.9-0.7,3.3-2.1,4.3c-1.4,1-3.3,1.5-5.9,1.5c-2.7,0-4.7-0.4-6.2-1.3v-2.8c1,0.5,2,0.9,3.1,1.2
			c1.1,0.3,2.2,0.4,3.2,0.4c1.6,0,2.8-0.3,3.7-0.8c0.9-0.5,1.3-1.3,1.3-2.3c0-0.8-0.3-1.4-1-2c-0.7-0.6-2-1.2-4-2
			c-1.9-0.7-3.2-1.3-4-1.8s-1.4-1.1-1.8-1.8c-0.4-0.7-0.6-1.4-0.6-2.4c0-1.6,0.7-2.9,2-3.9c1.3-0.9,3.2-1.4,5.5-1.4
			c2.2,0,4.3,0.4,6.3,1.3l-1.1,2.5c-2-0.8-3.8-1.2-5.5-1.2c-1.4,0-2.5,0.2-3.3,0.7c-0.7,0.5-1.1,1.1-1.1,1.9c0,0.5,0.1,1,0.4,1.4
			c0.3,0.4,0.7,0.7,1.3,1.1c0.6,0.3,1.8,0.8,3.5,1.5c2.4,0.9,4,1.7,4.8,2.6C751.6,61.6,752.1,62.8,752.1,64.1z"/>
	</g>
</g>
</svg>
