<?xml version="1.0" encoding="utf-8"?>
<!-- Generator: Adobe Illustrator 16.0.4, SVG Export Plug-In . SVG Version: 6.00 Build 0)  -->
<!DOCTYPE svg PUBLIC "-//W3C//DTD SVG 1.1//EN" "http://www.w3.org/Graphics/SVG/1.1/DTD/svg11.dtd">
<svg version="1.1" id="Layer_1" xmlns="http://www.w3.org/2000/svg" xmlns:xlink="http://www.w3.org/1999/xlink" x="0px" y="0px"
	 width="255.417px" height="53.185px" viewBox="0 0 255.417 53.185" enable-background="new 0 0 255.417 53.185"
	 xml:space="preserve">
<line fill="none" stroke="#FFFFFF" stroke-width="1.254" x1="67.043" y1="0" x2="67.043" y2="53.185"/>
<path fill="#FFFFFF" d="M37.144,46.844c0-0.906,0.74-1.646,1.646-1.646c0.911,0,1.649,0.74,1.649,1.646
	c0,0.913-0.738,1.647-1.649,1.647C37.883,48.491,37.144,47.757,37.144,46.844 M40.039,46.844c0-0.769-0.558-1.325-1.249-1.325
	c-0.686,0-1.242,0.557-1.242,1.325c0,0.772,0.556,1.328,1.242,1.328C39.48,48.172,40.039,47.616,40.039,46.844 M38.155,45.904h0.697
	c0.446,0,0.686,0.159,0.686,0.549c0,0.317-0.181,0.473-0.486,0.503l0.502,0.817h-0.357l-0.485-0.804h-0.209v0.804h-0.348V45.904z
	 M38.503,46.702h0.307c0.205,0,0.382-0.025,0.382-0.276c0-0.219-0.201-0.257-0.377-0.257h-0.312V46.702z"/>
<polygon fill="#FFFFFF" points="52.848,19.064 47.551,19.064 47.246,19.064 47.111,19.342 43.269,27.337 39.417,19.34 
	39.285,19.064 38.978,19.064 33.862,19.064 33.376,19.064 33.376,19.553 33.376,22.279 33.376,22.767 33.862,22.767 34.737,22.767 
	34.737,34.212 33.787,34.212 33.3,34.212 33.3,34.7 33.3,37.425 33.3,37.914 33.787,37.914 39.536,37.914 40.024,37.914 
	40.024,37.425 40.024,34.7 40.024,34.212 39.536,34.212 38.542,34.212 38.542,26.09 42.834,34.942 43.273,35.843 43.713,34.942 
	48.05,26.067 48.05,34.212 47.104,34.212 46.615,34.212 46.615,34.7 46.615,37.425 46.615,37.914 47.104,37.914 52.848,37.914 
	53.337,37.914 53.337,37.425 53.337,34.7 53.337,34.212 52.848,34.212 51.859,34.212 51.859,22.767 52.848,22.767 53.337,22.767 
	53.337,22.279 53.337,19.553 53.337,19.064 "/>
<path fill="#FFFFFF" d="M19.475,34.201h-1.527l-4.974-11.497h0.476h0.487v-0.488v-2.729v-0.488H13.45H6.428H5.939v0.488v2.729v0.488
	h0.489h0.611L2.067,34.201H0.489H0v0.486v2.727v0.49h0.489H6.76h0.488v-0.49v-2.727v-0.486H6.76H6.192l0.826-1.913H13l0.823,1.913
	H13.2h-0.489v0.486v2.727v0.49H13.2h6.275h0.488v-0.49v-2.727v-0.486H19.475z M11.398,28.586H8.62l1.387-3.212L11.398,28.586z"/>
<polygon fill="#FFFFFF" points="46.766,4.694 6.439,4.694 5.88,4.694 5.88,5.251 5.88,16.024 5.88,16.581 6.439,16.581 
	13.403,16.581 13.959,16.581 13.959,16.024 13.959,12.022 22.564,12.022 22.564,40.41 18.561,40.41 18.004,40.41 18.004,40.97 
	18.004,47.935 18.004,48.491 18.561,48.491 34.642,48.491 35.201,48.491 35.201,47.935 35.201,40.97 35.201,40.41 34.642,40.41 
	30.644,40.41 30.644,12.022 39.195,12.022 39.195,15.974 39.195,16.529 39.755,16.529 46.766,16.529 47.323,16.529 47.323,15.974 
	47.323,5.251 47.323,4.694 "/>
<polygon fill="#B1B3B5" points="31.838,43.728 33.54,41.972 33.54,46.781 31.838,45.153 "/>
<polygon fill="#B1B3B5" points="28.999,42.101 27.293,43.779 27.293,8.676 28.999,10.375 "/>
<polygon fill="#B1B3B5" points="9.297,8.059 7.543,6.354 44.812,6.354 42.608,8.059 "/>
<polygon fill="#B1B3B5" points="45.716,14.971 44.011,13.345 44.011,9.009 45.716,7.257 "/>
<polygon fill="#FFFFFF" points="86.954,7.499 85.787,7.499 85.787,1.361 83.687,1.361 83.687,0.36 89.053,0.36 89.053,1.361 
	86.954,1.361 "/>
<polygon fill="#FFFFFF" points="94.775,7.499 90.737,7.499 90.737,0.36 94.775,0.36 94.775,1.347 91.904,1.347 91.904,3.29 
	94.594,3.29 94.594,4.267 91.904,4.267 91.904,6.508 94.775,6.508 "/>
<polygon fill="#FFFFFF" points="101.987,7.499 100.644,7.499 98.856,4.579 97.055,7.499 95.805,7.499 98.174,3.798 95.957,0.36 
	97.256,0.36 98.906,3.062 100.556,0.36 101.815,0.36 99.584,3.817 "/>
<path fill="#FFFFFF" d="M107.898,7.499l-0.713-1.982h-2.73l-0.698,1.982h-1.231l2.671-7.168h1.27l2.671,7.168H107.898z
	 M106.877,4.511l-0.669-1.943c-0.049-0.131-0.116-0.336-0.203-0.615c-0.086-0.28-0.146-0.485-0.178-0.615
	c-0.088,0.4-0.217,0.838-0.386,1.313l-0.644,1.86H106.877z"/>
<path fill="#FFFFFF" d="M114.577,5.561c0,0.635-0.229,1.133-0.688,1.494s-1.093,0.542-1.9,0.542c-0.808,0-1.469-0.126-1.982-0.376
	V6.117c0.325,0.152,0.671,0.273,1.037,0.361c0.366,0.088,0.707,0.132,1.023,0.132c0.462,0,0.803-0.088,1.023-0.264
	c0.219-0.176,0.33-0.412,0.33-0.708c0-0.268-0.102-0.493-0.303-0.679c-0.202-0.186-0.619-0.405-1.25-0.659
	c-0.651-0.264-1.11-0.565-1.377-0.903c-0.267-0.339-0.4-0.746-0.4-1.221c0-0.595,0.211-1.064,0.634-1.406s0.992-0.513,1.705-0.513
	c0.683,0,1.363,0.149,2.041,0.449l-0.372,0.952c-0.634-0.268-1.201-0.4-1.699-0.4c-0.378,0-0.664,0.082-0.859,0.246
	c-0.195,0.165-0.293,0.382-0.293,0.652c0,0.186,0.039,0.344,0.117,0.476c0.078,0.132,0.206,0.257,0.386,0.374
	c0.179,0.117,0.501,0.271,0.967,0.464c0.523,0.218,0.908,0.421,1.152,0.611c0.244,0.188,0.423,0.4,0.537,0.639
	C114.519,4.958,114.577,5.238,114.577,5.561"/>
<path fill="#FFFFFF" d="M123.885,7.499l-0.713-1.982h-2.73l-0.698,1.982h-1.231l2.671-7.168h1.27l2.672,7.168H123.885z
	 M122.863,4.511l-0.668-1.943c-0.05-0.131-0.117-0.336-0.203-0.615c-0.086-0.28-0.146-0.485-0.179-0.615
	c-0.088,0.4-0.216,0.838-0.386,1.313l-0.644,1.86H122.863z"/>
<path fill="#FFFFFF" d="M125.975,5.609c0-0.427,0.104-0.799,0.312-1.116c0.207-0.317,0.584-0.632,1.127-0.944
	c-0.31-0.361-0.52-0.667-0.633-0.916c-0.111-0.249-0.168-0.507-0.168-0.773c0-0.495,0.178-0.886,0.53-1.172
	c0.353-0.287,0.828-0.43,1.423-0.43c0.577,0,1.029,0.139,1.357,0.417s0.494,0.653,0.494,1.126c0,0.371-0.11,0.708-0.33,1.011
	c-0.221,0.303-0.588,0.605-1.102,0.908l1.689,1.631c0.264-0.348,0.484-0.859,0.66-1.533h1.182c-0.229,0.924-0.594,1.678-1.094,2.261
	l1.47,1.421h-1.479l-0.728-0.708c-0.333,0.267-0.687,0.468-1.063,0.603c-0.375,0.136-0.791,0.203-1.246,0.203
	c-0.75,0-1.338-0.177-1.764-0.532C126.187,6.709,125.975,6.225,125.975,5.609 M128.436,6.61c0.595,0,1.104-0.175,1.527-0.522
	l-1.869-1.841c-0.346,0.221-0.584,0.429-0.713,0.622c-0.131,0.194-0.195,0.414-0.195,0.662c0,0.318,0.113,0.578,0.338,0.778
	C127.75,6.51,128.055,6.61,128.436,6.61 M127.707,1.898c0,0.205,0.056,0.398,0.164,0.581c0.108,0.182,0.262,0.376,0.457,0.581
	c0.366-0.209,0.625-0.403,0.773-0.584s0.222-0.383,0.222-0.607c0-0.212-0.071-0.381-0.213-0.508c-0.141-0.127-0.329-0.19-0.563-0.19
	c-0.258,0-0.461,0.065-0.612,0.197C127.782,1.5,127.707,1.677,127.707,1.898"/>
<path fill="#FFFFFF" d="M137.525,7.499l-2.07-5.962h-0.038c0.054,0.885,0.083,1.715,0.083,2.49v3.472h-1.061V0.36h1.646l1.982,5.679
	h0.028l2.04-5.679h1.65v7.139h-1.123v-3.53c0-0.355,0.01-0.817,0.027-1.387c0.019-0.57,0.033-0.915,0.047-1.035h-0.039l-2.144,5.952
	H137.525z"/>
<path fill="#FFFFFF" d="M152.781,0.36v4.619c0,0.527-0.113,0.988-0.338,1.384c-0.227,0.396-0.555,0.7-0.982,0.913
	c-0.428,0.214-0.94,0.32-1.535,0.32c-0.887,0-1.575-0.234-2.066-0.703c-0.49-0.469-0.736-1.113-0.736-1.934v-4.6h1.172v4.517
	c0,0.589,0.136,1.023,0.41,1.304c0.272,0.279,0.692,0.42,1.26,0.42c1.1,0,1.65-0.578,1.65-1.733V0.36H152.781z"/>
<path fill="#FFFFFF" d="M161.125,7.499h-1.432l-3.51-5.688h-0.039l0.023,0.316c0.047,0.605,0.068,1.158,0.068,1.66v3.711h-1.059
	V0.36h1.416l3.5,5.66h0.029c-0.007-0.076-0.02-0.349-0.039-0.819c-0.02-0.47-0.029-0.837-0.029-1.101V0.36h1.07V7.499z"/>
<rect x="163.419" y="0.36" fill="#FFFFFF" width="1.167" height="7.139"/>
<path fill="#FFFFFF" d="M170.979,0.36h1.211l-2.5,7.139h-1.23l-2.49-7.139h1.201l1.49,4.438c0.078,0.211,0.16,0.484,0.248,0.817
	c0.089,0.334,0.145,0.582,0.172,0.745c0.042-0.248,0.107-0.534,0.195-0.859c0.088-0.326,0.158-0.566,0.215-0.723L170.979,0.36z"/>
<polygon fill="#FFFFFF" points="177.689,7.499 173.652,7.499 173.652,0.36 177.689,0.36 177.689,1.347 174.818,1.347 174.818,3.29 
	177.509,3.29 177.509,4.267 174.818,4.267 174.818,6.508 177.689,6.508 "/>
<path fill="#FFFFFF" d="M180.811,4.647v2.852h-1.168V0.36h2.018c0.921,0,1.603,0.172,2.046,0.518
	c0.442,0.345,0.664,0.865,0.664,1.562c0,0.889-0.462,1.521-1.388,1.899l2.017,3.159h-1.328l-1.709-2.852H180.811z M180.811,3.681
	h0.811c0.543,0,0.938-0.102,1.181-0.303c0.244-0.202,0.366-0.502,0.366-0.898c0-0.404-0.131-0.693-0.395-0.869
	c-0.265-0.176-0.662-0.264-1.192-0.264h-0.771V3.681z"/>
<path fill="#FFFFFF" d="M190.75,5.561c0,0.635-0.229,1.133-0.688,1.494s-1.092,0.542-1.9,0.542c-0.808,0-1.468-0.126-1.982-0.376
	V6.117c0.326,0.152,0.673,0.273,1.037,0.361c0.367,0.088,0.709,0.132,1.023,0.132c0.462,0,0.803-0.088,1.023-0.264
	c0.219-0.176,0.33-0.412,0.33-0.708c0-0.268-0.102-0.493-0.303-0.679c-0.203-0.186-0.619-0.405-1.25-0.659
	c-0.652-0.264-1.111-0.565-1.377-0.903c-0.268-0.339-0.4-0.746-0.4-1.221c0-0.595,0.212-1.064,0.634-1.406
	c0.423-0.342,0.991-0.513,1.705-0.513c0.683,0,1.364,0.149,2.041,0.449l-0.372,0.952c-0.635-0.268-1.201-0.4-1.699-0.4
	c-0.378,0-0.664,0.082-0.859,0.246c-0.194,0.165-0.293,0.382-0.293,0.652c0,0.186,0.039,0.344,0.117,0.476s0.207,0.257,0.387,0.374
	c0.179,0.117,0.5,0.271,0.967,0.464c0.523,0.218,0.908,0.421,1.152,0.611c0.243,0.188,0.422,0.4,0.536,0.639
	C190.693,4.958,190.75,5.238,190.75,5.561"/>
<rect x="192.632" y="0.36" fill="#FFFFFF" width="1.167" height="7.139"/>
<polygon fill="#FFFFFF" points="198.59,7.499 197.424,7.499 197.424,1.361 195.323,1.361 195.323,0.36 200.69,0.36 200.69,1.361 
	198.59,1.361 "/>
<polygon fill="#FFFFFF" points="204.391,3.617 206.079,0.36 207.35,0.36 204.971,4.73 204.971,7.499 203.799,7.499 203.799,4.77 
	201.432,0.36 202.701,0.36 "/>
<path fill="#FFFFFF" d="M90.814,18.035c-1.412,0-2.526,0.47-3.344,1.41c-0.817,0.94-1.226,2.229-1.226,3.863
	c0,1.682,0.394,2.98,1.182,3.897s1.911,1.376,3.37,1.376c0.897,0,1.919-0.161,3.068-0.483v1.31
	c-0.891,0.334-1.989,0.501-3.296,0.501c-1.893,0-3.353-0.574-4.381-1.723c-1.028-1.148-1.543-2.78-1.543-4.896
	c0-1.324,0.248-2.484,0.743-3.48s1.21-1.764,2.145-2.303c0.934-0.539,2.034-0.809,3.3-0.809c1.347,0,2.525,0.246,3.533,0.738
	l-0.633,1.283C92.759,18.265,91.787,18.035,90.814,18.035"/>
<path fill="#FFFFFF" d="M104.42,24.908c0,1.57-0.396,2.796-1.187,3.678s-1.883,1.323-3.278,1.323c-0.861,0-1.626-0.202-2.294-0.605
	c-0.668-0.405-1.184-0.985-1.547-1.741c-0.363-0.756-0.545-1.641-0.545-2.654c0-1.57,0.393-2.794,1.178-3.67
	c0.785-0.876,1.875-1.313,3.27-1.313c1.347,0,2.418,0.448,3.212,1.345S104.42,23.379,104.42,24.908 M97.082,24.908
	c0,1.23,0.246,2.168,0.738,2.813c0.492,0.644,1.216,0.966,2.171,0.966c0.955,0,1.681-0.321,2.176-0.963s0.742-1.58,0.742-2.816
	c0-1.225-0.247-2.155-0.742-2.791s-1.227-0.953-2.193-0.953c-0.955,0-1.676,0.313-2.163,0.94
	C97.324,22.731,97.082,23.666,97.082,24.908"/>
<rect x="106.618" y="16.058" fill="#FFFFFF" width="1.459" height="13.676"/>
<rect x="110.882" y="16.058" fill="#FFFFFF" width="1.459" height="13.676"/>
<path fill="#FFFFFF" d="M119.218,29.909c-1.424,0-2.548-0.434-3.372-1.301c-0.823-0.867-1.234-2.071-1.234-3.612
	c0-1.553,0.382-2.787,1.147-3.7c0.764-0.914,1.792-1.371,3.081-1.371c1.207,0,2.162,0.396,2.865,1.19s1.055,1.842,1.055,3.143v0.923
	h-6.636c0.029,1.131,0.314,1.989,0.856,2.575s1.306,0.879,2.29,0.879c1.037,0,2.062-0.218,3.076-0.65v1.301
	c-0.516,0.223-1.003,0.382-1.463,0.479C120.423,29.86,119.868,29.909,119.218,29.909 M118.822,21.146
	c-0.773,0-1.391,0.252-1.851,0.756s-0.73,1.201-0.812,2.092h5.037c0-0.92-0.205-1.625-0.616-2.114
	C120.17,21.391,119.583,21.146,118.822,21.146"/>
<path fill="#FFFFFF" d="M132.788,20.101v0.923l-1.785,0.211c0.165,0.205,0.312,0.473,0.44,0.804s0.192,0.705,0.192,1.121
	c0,0.943-0.321,1.696-0.967,2.259c-0.644,0.562-1.529,0.844-2.654,0.844c-0.286,0-0.556-0.023-0.808-0.07
	c-0.622,0.328-0.932,0.741-0.932,1.239c0,0.264,0.107,0.458,0.324,0.584s0.59,0.189,1.116,0.189h1.705
	c1.043,0,1.845,0.22,2.405,0.659c0.559,0.439,0.839,1.078,0.839,1.916c0,1.066-0.429,1.879-1.284,2.438s-2.104,0.84-3.744,0.84
	c-1.26,0-2.23-0.234-2.913-0.703c-0.682-0.469-1.024-1.131-1.024-1.986c0-0.586,0.188-1.093,0.562-1.521s0.903-0.718,1.582-0.87
	c-0.246-0.111-0.451-0.284-0.619-0.519c-0.167-0.234-0.251-0.507-0.251-0.817c0-0.352,0.095-0.659,0.281-0.923
	c0.188-0.264,0.483-0.519,0.888-0.765c-0.498-0.205-0.902-0.554-1.217-1.046c-0.312-0.492-0.47-1.055-0.47-1.688
	c0-1.055,0.315-1.868,0.948-2.439c0.634-0.571,1.529-0.856,2.689-0.856c0.504,0,0.958,0.059,1.363,0.176H132.788z M125.105,31.351
	c0,0.521,0.221,0.917,0.659,1.187c0.44,0.27,1.069,0.404,1.89,0.404c1.225,0,2.133-0.184,2.722-0.55
	c0.588-0.366,0.882-0.862,0.882-1.489c0-0.521-0.161-0.884-0.482-1.085c-0.322-0.203-0.93-0.304-1.819-0.304h-1.749
	c-0.663,0-1.178,0.158-1.547,0.475S125.105,30.759,125.105,31.351 M125.896,23.186c0,0.674,0.19,1.184,0.571,1.529
	s0.911,0.519,1.591,0.519c1.424,0,2.137-0.691,2.137-2.074c0-1.447-0.722-2.171-2.162-2.171c-0.687,0-1.213,0.185-1.582,0.554
	S125.896,22.459,125.896,23.186"/>
<path fill="#FFFFFF" d="M138.476,29.909c-1.425,0-2.548-0.434-3.372-1.301c-0.823-0.867-1.234-2.071-1.234-3.612
	c0-1.553,0.383-2.787,1.147-3.7c0.764-0.914,1.792-1.371,3.081-1.371c1.207,0,2.16,0.396,2.863,1.19s1.056,1.842,1.056,3.143v0.923
	h-6.636c0.029,1.131,0.314,1.989,0.856,2.575s1.306,0.879,2.29,0.879c1.037,0,2.062-0.218,3.076-0.65v1.301
	c-0.516,0.223-1.003,0.382-1.464,0.479C139.681,29.86,139.125,29.909,138.476,29.909 M138.08,21.146
	c-0.773,0-1.392,0.252-1.852,0.756s-0.73,1.201-0.812,2.092h5.035c0-0.92-0.205-1.625-0.615-2.114
	C139.428,21.391,138.842,21.146,138.08,21.146"/>
<path fill="#FFFFFF" d="M156.738,24.908c0,1.57-0.396,2.796-1.188,3.678s-1.883,1.323-3.277,1.323c-0.861,0-1.627-0.202-2.295-0.605
	c-0.668-0.405-1.184-0.985-1.547-1.741s-0.545-1.641-0.545-2.654c0-1.57,0.393-2.794,1.178-3.67s1.875-1.313,3.271-1.313
	c1.347,0,2.418,0.448,3.211,1.345C156.34,22.166,156.738,23.379,156.738,24.908 M149.398,24.908c0,1.23,0.246,2.168,0.738,2.813
	c0.492,0.644,1.217,0.966,2.171,0.966c0.955,0,1.681-0.321,2.177-0.963c0.494-0.642,0.742-1.58,0.742-2.816
	c0-1.225-0.248-2.155-0.742-2.791c-0.496-0.636-1.228-0.953-2.193-0.953c-0.955,0-1.676,0.313-2.163,0.94
	C149.642,22.731,149.398,23.666,149.398,24.908"/>
<path fill="#FFFFFF" d="M163.277,21.234h-2.451v8.499h-1.459v-8.499h-1.724v-0.659l1.724-0.528v-0.535
	c0-2.367,1.033-3.551,3.102-3.551c0.51,0,1.107,0.103,1.793,0.308l-0.378,1.169c-0.562-0.183-1.043-0.272-1.44-0.272
	c-0.552,0-0.959,0.183-1.223,0.548c-0.263,0.367-0.395,0.955-0.395,1.764v0.624h2.451V21.234z"/>
<path fill="#FFFFFF" d="M177.252,29.733l-1.6-4.087h-5.15l-1.582,4.087h-1.512l5.08-12.902h1.258l5.053,12.902H177.252z
	 M175.188,24.302l-1.494-3.981c-0.193-0.504-0.394-1.122-0.599-1.854c-0.129,0.562-0.313,1.181-0.554,1.854l-1.512,3.981H175.188z"
	/>
<path fill="#FFFFFF" d="M187.852,20.101v0.923l-1.785,0.211c0.165,0.205,0.311,0.473,0.439,0.804s0.193,0.705,0.193,1.121
	c0,0.943-0.322,1.696-0.967,2.259s-1.529,0.844-2.654,0.844c-0.287,0-0.556-0.023-0.808-0.07c-0.622,0.328-0.933,0.741-0.933,1.239
	c0,0.264,0.108,0.458,0.326,0.584c0.217,0.126,0.588,0.189,1.115,0.189h1.705c1.043,0,1.844,0.22,2.404,0.659
	c0.559,0.439,0.84,1.078,0.84,1.916c0,1.066-0.428,1.879-1.284,2.438c-0.854,0.56-2.103,0.84-3.744,0.84
	c-1.26,0-2.231-0.234-2.913-0.703c-0.683-0.469-1.023-1.131-1.023-1.986c0-0.586,0.187-1.093,0.562-1.521s0.903-0.718,1.582-0.87
	c-0.246-0.111-0.452-0.284-0.62-0.519c-0.166-0.234-0.25-0.507-0.25-0.817c0-0.352,0.094-0.659,0.281-0.923s0.484-0.519,0.889-0.765
	c-0.498-0.205-0.904-0.554-1.219-1.046c-0.312-0.492-0.469-1.055-0.469-1.688c0-1.055,0.316-1.868,0.949-2.439
	s1.529-0.856,2.688-0.856c0.504,0,0.958,0.059,1.363,0.176H187.852z M180.17,31.351c0,0.521,0.219,0.917,0.658,1.187
	c0.44,0.27,1.069,0.404,1.891,0.404c1.224,0,2.132-0.184,2.72-0.55c0.589-0.366,0.883-0.862,0.883-1.489
	c0-0.521-0.161-0.884-0.483-1.085c-0.321-0.203-0.929-0.304-1.818-0.304h-1.749c-0.663,0-1.179,0.158-1.548,0.475
	C180.354,30.305,180.17,30.759,180.17,31.351 M180.961,23.186c0,0.674,0.189,1.184,0.57,1.529s0.911,0.519,1.592,0.519
	c1.424,0,2.135-0.691,2.135-2.074c0-1.447-0.721-2.171-2.162-2.171c-0.686,0-1.213,0.185-1.582,0.554
	C181.146,21.911,180.961,22.459,180.961,23.186"/>
<path fill="#FFFFFF" d="M193.863,19.925c0.428,0,0.812,0.035,1.151,0.105l-0.202,1.354c-0.398-0.088-0.75-0.132-1.054-0.132
	c-0.78,0-1.446,0.317-2,0.949c-0.554,0.633-0.831,1.421-0.831,2.364v5.168h-1.459v-9.633h1.205l0.167,1.784h0.069
	c0.357-0.627,0.789-1.11,1.293-1.45S193.26,19.925,193.863,19.925"/>
<path fill="#FFFFFF" d="M196.352,17.49c0-0.334,0.082-0.579,0.246-0.733c0.164-0.156,0.369-0.233,0.615-0.233
	c0.234,0,0.438,0.079,0.607,0.237s0.254,0.401,0.254,0.729s-0.084,0.572-0.254,0.733s-0.373,0.242-0.607,0.242
	c-0.246,0-0.451-0.081-0.615-0.242S196.352,17.818,196.352,17.49 M197.934,29.733h-1.459v-9.633h1.459V29.733z"/>
<path fill="#FFFFFF" d="M204.59,29.909c-1.396,0-2.476-0.43-3.238-1.288c-0.766-0.858-1.148-2.072-1.148-3.643
	c0-1.611,0.389-2.856,1.165-3.735s1.882-1.318,3.317-1.318c0.464,0,0.926,0.05,1.389,0.149s0.827,0.217,1.09,0.352l-0.447,1.239
	c-0.322-0.129-0.675-0.236-1.056-0.321s-0.718-0.127-1.01-0.127c-1.958,0-2.937,1.248-2.937,3.744c0,1.184,0.238,2.092,0.717,2.725
	c0.477,0.633,1.185,0.949,2.123,0.949c0.803,0,1.625-0.173,2.47-0.519v1.292C206.379,29.742,205.568,29.909,204.59,29.909"/>
<path fill="#FFFFFF" d="M210.373,20.101v6.249c0,0.785,0.18,1.371,0.537,1.758s0.916,0.58,1.678,0.58
	c1.009,0,1.744-0.275,2.211-0.826c0.466-0.551,0.699-1.45,0.699-2.699v-5.062h1.459v9.633h-1.205l-0.211-1.292h-0.078
	c-0.299,0.475-0.715,0.838-1.244,1.09c-0.531,0.252-1.135,0.378-1.815,0.378c-1.172,0-2.05-0.278-2.632-0.835
	c-0.584-0.557-0.875-1.447-0.875-2.672v-6.302H210.373z"/>
<rect x="219.762" y="16.058" fill="#FFFFFF" width="1.459" height="13.676"/>
<path fill="#FFFFFF" d="M227.139,28.705c0.258,0,0.508-0.021,0.748-0.058c0.239-0.038,0.43-0.077,0.57-0.118v1.116
	c-0.158,0.076-0.391,0.139-0.699,0.189c-0.307,0.049-0.584,0.074-0.83,0.074c-1.863,0-2.795-0.981-2.795-2.944v-5.73h-1.38v-0.703
	l1.38-0.606l0.615-2.057h0.844v2.232h2.795v1.134h-2.795v5.669c0,0.58,0.139,1.025,0.413,1.336
	C226.281,28.55,226.659,28.705,227.139,28.705"/>
<path fill="#FFFFFF" d="M231.41,20.101v6.249c0,0.785,0.18,1.371,0.536,1.758c0.358,0.387,0.917,0.58,1.679,0.58
	c1.009,0,1.744-0.275,2.211-0.826c0.466-0.551,0.699-1.45,0.699-2.699v-5.062h1.459v9.633h-1.205l-0.211-1.292H236.5
	c-0.299,0.475-0.715,0.838-1.244,1.09c-0.531,0.252-1.135,0.378-1.815,0.378c-1.172,0-2.05-0.278-2.632-0.835
	c-0.584-0.557-0.875-1.447-0.875-2.672v-6.302H231.41z"/>
<path fill="#FFFFFF" d="M245.193,19.925c0.428,0,0.812,0.035,1.151,0.105l-0.202,1.354c-0.398-0.088-0.75-0.132-1.054-0.132
	c-0.78,0-1.446,0.317-2,0.949c-0.554,0.633-0.831,1.421-0.831,2.364v5.168h-1.459v-9.633h1.205l0.167,1.784h0.069
	c0.357-0.627,0.789-1.11,1.293-1.45S244.59,19.925,245.193,19.925"/>
<path fill="#FFFFFF" d="M251.875,29.909c-1.424,0-2.548-0.434-3.371-1.301c-0.824-0.867-1.234-2.071-1.234-3.612
	c0-1.553,0.381-2.787,1.146-3.7c0.764-0.914,1.792-1.371,3.081-1.371c1.207,0,2.162,0.396,2.864,1.19
	c0.703,0.794,1.056,1.842,1.056,3.143v0.923h-6.636c0.029,1.131,0.313,1.989,0.855,2.575s1.307,0.879,2.29,0.879
	c1.037,0,2.063-0.218,3.076-0.65v1.301c-0.515,0.223-1.003,0.382-1.463,0.479C253.08,29.86,252.525,29.909,251.875,29.909
	 M251.479,21.146c-0.772,0-1.391,0.252-1.85,0.756c-0.461,0.504-0.73,1.201-0.812,2.092h5.035c0-0.92-0.205-1.625-0.615-2.114
	C252.827,21.391,252.241,21.146,251.479,21.146"/>
<path fill="#FFFFFF" d="M84.538,49.668c0-0.762,0.205-1.436,0.612-2.021c0.407-0.585,1.138-1.178,2.192-1.775
	c-0.498-0.557-0.836-0.979-1.014-1.266c-0.179-0.287-0.322-0.586-0.427-0.896c-0.106-0.311-0.158-0.633-0.158-0.967
	c0-0.879,0.287-1.564,0.861-2.056c0.574-0.493,1.374-0.739,2.399-0.739c0.95,0,1.697,0.245,2.242,0.733
	c0.544,0.49,0.817,1.172,0.817,2.044c0,0.628-0.199,1.206-0.598,1.735c-0.398,0.531-1.057,1.068-1.977,1.613l3.577,3.437
	c0.328-0.363,0.591-0.789,0.787-1.278c0.196-0.489,0.361-1.024,0.496-1.604h1.477c-0.399,1.676-0.999,2.947-1.802,3.814l2.628,2.558
	h-2.013l-1.626-1.564c-0.691,0.621-1.394,1.066-2.109,1.336c-0.715,0.27-1.512,0.404-2.391,0.404c-1.26,0-2.236-0.311-2.931-0.932
	C84.886,51.622,84.538,50.764,84.538,49.668 M88.546,51.865c1.412,0,2.584-0.451,3.516-1.354l-3.841-3.727
	c-0.65,0.398-1.11,0.729-1.38,0.989c-0.269,0.261-0.469,0.54-0.597,0.839c-0.129,0.299-0.194,0.639-0.194,1.02
	c0,0.686,0.228,1.229,0.682,1.63C87.186,51.665,87.79,51.865,88.546,51.865 M87.184,42.707c0,0.404,0.105,0.79,0.316,1.155
	c0.211,0.367,0.572,0.808,1.081,1.324c0.756-0.44,1.283-0.846,1.579-1.219c0.295-0.371,0.443-0.801,0.443-1.287
	c0-0.451-0.15-0.818-0.452-1.104c-0.302-0.283-0.705-0.426-1.209-0.426c-0.522,0-0.945,0.141-1.27,0.422
	C87.347,41.854,87.184,42.232,87.184,42.707"/>
<polygon fill="#FFFFFF" points="102.335,52.999 102.335,40.149 103.83,40.149 103.83,51.646 109.499,51.646 109.499,52.999 "/>
<path fill="#FFFFFF" d="M110.994,40.757c0-0.335,0.082-0.579,0.246-0.734s0.369-0.233,0.615-0.233c0.234,0,0.437,0.079,0.606,0.237
	c0.17,0.158,0.255,0.401,0.255,0.73c0,0.327-0.085,0.572-0.255,0.732c-0.169,0.162-0.372,0.242-0.606,0.242
	c-0.246,0-0.451-0.08-0.615-0.242C111.076,41.329,110.994,41.084,110.994,40.757 M112.576,52.999h-1.459v-9.633h1.459V52.999z"/>
<path fill="#FFFFFF" d="M119.723,44.5h-2.452v8.499h-1.459V44.5h-1.723v-0.659l1.723-0.528v-0.535c0-2.367,1.034-3.551,3.102-3.551
	c0.51,0,1.108,0.103,1.793,0.308l-0.378,1.169c-0.562-0.183-1.043-0.272-1.441-0.272c-0.551,0-0.958,0.184-1.222,0.548
	c-0.263,0.368-0.395,0.955-0.395,1.764v0.624h2.452V44.5z"/>
<path fill="#FFFFFF" d="M125.209,53.175c-1.424,0-2.549-0.434-3.372-1.301s-1.234-2.071-1.234-3.612c0-1.553,0.381-2.786,1.147-3.7
	c0.764-0.914,1.792-1.371,3.081-1.371c1.207,0,2.161,0.397,2.864,1.191s1.056,1.842,1.056,3.142v0.923h-6.636
	c0.029,1.131,0.313,1.989,0.855,2.575s1.307,0.879,2.29,0.879c1.037,0,2.063-0.217,3.076-0.65v1.301
	c-0.515,0.223-1.003,0.383-1.463,0.479C126.414,53.126,125.859,53.175,125.209,53.175 M124.812,44.412
	c-0.772,0-1.391,0.252-1.851,0.756s-0.729,1.201-0.812,2.092h5.035c0-0.92-0.205-1.624-0.615-2.114
	C126.16,44.657,125.574,44.412,124.812,44.412"/>
<path fill="#FFFFFF" d="M142.627,49.58c0,1.131-0.41,2.013-1.229,2.646c-0.821,0.633-1.933,0.949-3.339,0.949
	c-1.524,0-2.696-0.196-3.516-0.589v-1.441c0.526,0.223,1.102,0.398,1.723,0.527s1.236,0.193,1.845,0.193
	c0.996,0,1.746-0.188,2.249-0.567c0.504-0.377,0.756-0.903,0.756-1.577c0-0.445-0.09-0.81-0.268-1.095
	c-0.18-0.283-0.479-0.546-0.896-0.786c-0.419-0.24-1.055-0.513-1.91-0.817c-1.195-0.428-2.051-0.935-2.562-1.521
	c-0.514-0.586-0.77-1.351-0.77-2.294c0-0.99,0.373-1.778,1.116-2.364c0.744-0.586,1.729-0.879,2.953-0.879
	c1.276,0,2.453,0.234,3.524,0.703l-0.467,1.301c-1.061-0.445-2.092-0.668-3.093-0.668c-0.791,0-1.409,0.17-1.854,0.509
	c-0.445,0.341-0.668,0.812-0.668,1.416c0,0.445,0.082,0.811,0.246,1.094c0.164,0.285,0.44,0.545,0.83,0.783
	c0.391,0.236,0.986,0.498,1.789,0.786c1.349,0.48,2.273,0.996,2.781,1.546C142.373,47.986,142.627,48.701,142.627,49.58"/>
<path fill="#FFFFFF" d="M148.508,53.175c-1.396,0-2.476-0.429-3.238-1.287c-0.766-0.858-1.148-2.073-1.148-3.644
	c0-1.611,0.389-2.856,1.165-3.735s1.882-1.318,3.318-1.318c0.463,0,0.925,0.05,1.388,0.149s0.827,0.217,1.09,0.352l-0.447,1.239
	c-0.322-0.129-0.674-0.234-1.056-0.319c-0.381-0.086-0.718-0.129-1.01-0.129c-1.958,0-2.937,1.248-2.937,3.744
	c0,1.184,0.238,2.093,0.717,2.725c0.477,0.633,1.185,0.949,2.123,0.949c0.803,0,1.625-0.173,2.47-0.519v1.292
	C150.297,53.008,149.486,53.175,148.508,53.175"/>
<path fill="#FFFFFF" d="M152.798,40.757c0-0.335,0.082-0.579,0.246-0.734c0.165-0.155,0.37-0.233,0.616-0.233
	c0.234,0,0.436,0.079,0.605,0.237s0.256,0.401,0.256,0.73c0,0.327-0.086,0.572-0.256,0.732c-0.17,0.162-0.371,0.242-0.605,0.242
	c-0.246,0-0.451-0.08-0.616-0.242C152.88,41.329,152.798,41.084,152.798,40.757 M154.38,52.999h-1.459v-9.633h1.459V52.999z"/>
<path fill="#FFFFFF" d="M161.256,53.175c-1.424,0-2.548-0.434-3.371-1.301c-0.824-0.867-1.234-2.071-1.234-3.612
	c0-1.553,0.381-2.786,1.146-3.7c0.764-0.914,1.792-1.371,3.081-1.371c1.207,0,2.161,0.397,2.864,1.191s1.056,1.842,1.056,3.142
	v0.923h-6.636c0.029,1.131,0.313,1.989,0.855,2.575s1.307,0.879,2.29,0.879c1.037,0,2.063-0.217,3.076-0.65v1.301
	c-0.515,0.223-1.003,0.383-1.463,0.479C162.461,53.126,161.906,53.175,161.256,53.175 M160.859,44.412
	c-0.772,0-1.391,0.252-1.85,0.756c-0.461,0.504-0.73,1.201-0.812,2.092h5.035c0-0.92-0.205-1.624-0.615-2.114
	C162.208,44.657,161.621,44.412,160.859,44.412"/>
<path fill="#FFFFFF" d="M173.535,52.999v-6.23c0-0.786-0.18-1.372-0.537-1.759s-0.916-0.58-1.679-0.58
	c-1.008,0-1.745,0.272-2.215,0.817c-0.468,0.545-0.703,1.444-0.703,2.698v5.054h-1.459v-9.633h1.187l0.238,1.318h0.069
	c0.299-0.475,0.718-0.842,1.257-1.104c0.539-0.26,1.141-0.391,1.803-0.391c1.16,0,2.032,0.28,2.619,0.84
	c0.586,0.56,0.879,1.454,0.879,2.685v6.284H173.535z"/>
<path fill="#FFFFFF" d="M181.553,53.175c-1.396,0-2.476-0.429-3.238-1.287c-0.766-0.858-1.148-2.073-1.148-3.644
	c0-1.611,0.389-2.856,1.165-3.735s1.882-1.318,3.318-1.318c0.463,0,0.925,0.05,1.388,0.149s0.827,0.217,1.09,0.352l-0.447,1.239
	c-0.322-0.129-0.674-0.234-1.056-0.319c-0.381-0.086-0.718-0.129-1.01-0.129c-1.958,0-2.937,1.248-2.937,3.744
	c0,1.184,0.238,2.093,0.717,2.725c0.477,0.633,1.185,0.949,2.123,0.949c0.803,0,1.625-0.173,2.47-0.519v1.292
	C183.342,53.008,182.531,53.175,181.553,53.175"/>
<path fill="#FFFFFF" d="M190.036,53.175c-1.424,0-2.548-0.434-3.371-1.301c-0.824-0.867-1.235-2.071-1.235-3.612
	c0-1.553,0.383-2.786,1.147-3.7c0.764-0.914,1.792-1.371,3.081-1.371c1.207,0,2.162,0.397,2.865,1.191s1.055,1.842,1.055,3.142
	v0.923h-6.637c0.029,1.131,0.314,1.989,0.856,2.575s1.306,0.879,2.29,0.879c1.037,0,2.062-0.217,3.076-0.65v1.301
	c-0.516,0.223-1.003,0.383-1.463,0.479C191.241,53.126,190.686,53.175,190.036,53.175 M189.641,44.412
	c-0.773,0-1.392,0.252-1.851,0.756c-0.461,0.504-0.731,1.201-0.813,2.092h5.037c0-0.92-0.205-1.624-0.615-2.114
	C190.988,44.657,190.402,44.412,189.641,44.412"/>
<path fill="#FFFFFF" d="M201.938,50.371c0,0.896-0.334,1.588-1.002,2.074s-1.605,0.729-2.812,0.729
	c-1.278,0-2.274-0.202-2.989-0.606v-1.354c0.463,0.234,0.959,0.419,1.49,0.553c0.53,0.136,1.042,0.203,1.534,0.203
	c0.761,0,1.347-0.121,1.758-0.364c0.41-0.243,0.615-0.614,0.615-1.112c0-0.375-0.164-0.695-0.488-0.962
	c-0.326-0.267-0.96-0.582-1.903-0.945c-0.896-0.334-1.534-0.625-1.911-0.875c-0.379-0.248-0.66-0.531-0.844-0.848
	c-0.186-0.316-0.277-0.694-0.277-1.134c0-0.785,0.319-1.404,0.959-1.858c0.639-0.454,1.515-0.682,2.627-0.682
	c1.037,0,2.052,0.211,3.041,0.633l-0.519,1.187c-0.966-0.398-1.842-0.598-2.628-0.598c-0.691,0-1.213,0.108-1.564,0.325
	s-0.526,0.516-0.526,0.896c0,0.258,0.065,0.478,0.196,0.659c0.133,0.182,0.346,0.354,0.639,0.519
	c0.293,0.163,0.855,0.401,1.688,0.712c1.143,0.416,1.913,0.835,2.314,1.257C201.736,49.202,201.938,49.732,201.938,50.371"/>
</svg>
