<?xml version="1.0" encoding="utf-8"?>
<!-- Generator: Adobe Illustrator 16.0.4, SVG Export Plug-In . SVG Version: 6.00 Build 0)  -->
<!DOCTYPE svg PUBLIC "-//W3C//DTD SVG 1.1//EN" "http://www.w3.org/Graphics/SVG/1.1/DTD/svg11.dtd">
<svg version="1.1" id="Layer_1" xmlns="http://www.w3.org/2000/svg" xmlns:xlink="http://www.w3.org/1999/xlink" x="0px" y="0px"
	 width="772.557px" height="88px" viewBox="0 0 772.557 88" enable-background="new 0 0 772.557 88" xml:space="preserve">
<line fill="none" stroke="#FFFFFF" stroke-width="1.254" x1="110.931" y1="0" x2="110.931" y2="88"/>
<path fill="#FFFFFF" d="M61.458,77.509c0-1.5,1.224-2.725,2.723-2.725c1.507,0,2.729,1.225,2.729,2.725
	c0,1.511-1.222,2.726-2.729,2.726C62.682,80.234,61.458,79.02,61.458,77.509 M66.249,77.509c0-1.272-0.923-2.193-2.067-2.193
	c-1.135,0-2.055,0.921-2.055,2.193c0,1.277,0.92,2.197,2.055,2.197C65.325,79.706,66.249,78.786,66.249,77.509 M63.132,75.954h1.154
	c0.737,0,1.135,0.264,1.135,0.908c0,0.524-0.299,0.782-0.805,0.832l0.831,1.353h-0.59l-0.802-1.33h-0.346v1.33h-0.576V75.954z
	 M63.708,77.274h0.508c0.339,0,0.632-0.042,0.632-0.458c0-0.361-0.333-0.425-0.624-0.425h-0.516V77.274z"/>
<polygon fill="#FFFFFF" points="87.443,31.544 78.679,31.544 78.174,31.544 77.95,32.003 71.594,45.232 65.22,32 65.002,31.544 
	64.494,31.544 56.029,31.544 55.225,31.544 55.225,32.353 55.225,36.863 55.225,37.67 56.029,37.67 57.477,37.67 57.477,56.607 
	55.905,56.607 55.099,56.607 55.099,57.415 55.099,61.924 55.099,62.733 55.905,62.733 65.417,62.733 66.224,62.733 66.224,61.924 
	66.224,57.415 66.224,56.607 65.417,56.607 63.772,56.607 63.772,43.169 70.874,57.816 71.6,59.306 72.328,57.816 79.505,43.132 
	79.505,56.607 77.939,56.607 77.13,56.607 77.13,57.415 77.13,61.924 77.13,62.733 77.939,62.733 87.443,62.733 88.252,62.733 
	88.252,61.924 88.252,57.415 88.252,56.607 87.443,56.607 85.807,56.607 85.807,37.67 87.443,37.67 88.252,37.67 88.252,36.863 
	88.252,32.353 88.252,31.544 "/>
<path fill="#FFFFFF" d="M32.224,56.59h-2.527l-8.23-19.023h0.788h0.807v-0.808v-4.517v-0.808h-0.807H10.635H9.827v0.808v4.517v0.808
	h0.809h1.012L3.42,56.59H0.809H0v0.805v4.512v0.811h0.809h10.376h0.808v-0.811v-4.512V56.59h-0.808h-0.939l1.367-3.165h9.897
	l1.361,3.165H21.84h-0.809v0.805v4.512v0.811h0.809h10.383h0.807v-0.811v-4.512V56.59H32.224z M18.859,47.299h-4.596l2.294-5.314
	L18.859,47.299z"/>
<polygon fill="#FFFFFF" points="77.38,7.768 10.654,7.768 9.729,7.768 9.729,8.688 9.729,26.515 9.729,27.436 10.654,27.436 
	22.177,27.436 23.097,27.436 23.097,26.515 23.097,19.893 37.334,19.893 37.334,66.863 30.711,66.863 29.79,66.863 29.79,67.789 
	29.79,79.313 29.79,80.234 30.711,80.234 57.319,80.234 58.244,80.234 58.244,79.313 58.244,67.789 58.244,66.863 57.319,66.863 
	50.704,66.863 50.704,19.893 64.853,19.893 64.853,26.431 64.853,27.35 65.779,27.35 77.38,27.35 78.301,27.35 78.301,26.431 
	78.301,8.688 78.301,7.768 "/>
<polygon fill="#B1B3B5" points="52.68,72.353 55.496,69.447 55.496,77.405 52.68,74.711 "/>
<polygon fill="#B1B3B5" points="47.981,69.66 45.16,72.438 45.16,14.355 47.981,17.167 "/>
<polygon fill="#B1B3B5" points="15.384,13.334 12.481,10.513 74.147,10.513 70.5,13.334 "/>
<polygon fill="#B1B3B5" points="75.643,24.771 72.822,22.08 72.822,14.906 75.643,12.007 "/>
<g>
	<path fill="#FFFFFF" d="M144.852,24.618h-2.221V12.939h-3.995v-1.905h10.211v1.905h-3.995V24.618z"/>
	<path fill="#FFFFFF" d="M159.563,24.618h-7.684V11.034h7.684v1.877H154.1v3.698h5.12v1.858h-5.12v4.265h5.463V24.618z"/>
	<path fill="#FFFFFF" d="M173.438,24.618h-2.555l-3.4-5.556l-3.429,5.556h-2.378l4.506-7.043l-4.218-6.541h2.471l3.141,5.139
		l3.14-5.139h2.397l-4.246,6.578L173.438,24.618z"/>
	<path fill="#FFFFFF" d="M184.628,24.618l-1.356-3.772h-5.194l-1.329,3.772h-2.341l5.082-13.64h2.417l5.082,13.64H184.628z
		 M182.686,18.932l-1.272-3.697c-0.093-0.248-0.222-0.638-0.386-1.171c-0.164-0.532-0.277-0.923-0.339-1.171
		c-0.167,0.762-0.412,1.596-0.734,2.5l-1.227,3.539H182.686z"/>
	<path fill="#FFFFFF" d="M197.545,20.93c0,1.208-0.436,2.155-1.31,2.843s-2.078,1.031-3.614,1.031s-2.793-0.238-3.771-0.715v-2.1
		c0.619,0.291,1.277,0.52,1.974,0.688c0.696,0.167,1.346,0.25,1.946,0.25c0.88,0,1.529-0.167,1.947-0.501
		c0.418-0.335,0.627-0.784,0.627-1.348c0-0.508-0.192-0.938-0.576-1.291c-0.385-0.354-1.178-0.771-2.379-1.255
		c-1.238-0.501-2.111-1.074-2.619-1.719c-0.509-0.644-0.763-1.418-0.763-2.322c0-1.134,0.403-2.025,1.208-2.676
		s1.887-0.976,3.242-0.976c1.301,0,2.596,0.284,3.884,0.854l-0.706,1.812c-1.207-0.508-2.285-0.762-3.232-0.762
		c-0.719,0-1.264,0.156-1.636,0.47c-0.372,0.312-0.558,0.726-0.558,1.24c0,0.353,0.074,0.654,0.223,0.905s0.394,0.488,0.734,0.711
		c0.34,0.223,0.953,0.518,1.84,0.883c0.997,0.415,1.729,0.802,2.192,1.161s0.806,0.766,1.022,1.218S197.545,20.316,197.545,20.93z"
		/>
	<path fill="#FFFFFF" d="M215.447,24.618l-1.355-3.772h-5.194l-1.329,3.772h-2.341l5.082-13.64h2.416l5.082,13.64H215.447z
		 M213.506,18.932l-1.273-3.697c-0.092-0.248-0.221-0.638-0.385-1.171c-0.164-0.532-0.277-0.923-0.34-1.171
		c-0.167,0.762-0.412,1.596-0.733,2.5l-1.227,3.539H213.506z"/>
	<path fill="#FFFFFF" d="M219.632,21.022c0-0.812,0.198-1.519,0.595-2.123c0.396-0.604,1.111-1.203,2.146-1.798
		c-0.589-0.688-0.99-1.269-1.203-1.742c-0.215-0.474-0.321-0.965-0.321-1.473c0-0.941,0.336-1.685,1.009-2.229
		c0.672-0.545,1.574-0.817,2.708-0.817c1.097,0,1.957,0.265,2.583,0.794c0.625,0.529,0.938,1.244,0.938,2.142
		c0,0.706-0.209,1.348-0.627,1.924c-0.418,0.575-1.116,1.151-2.095,1.728l3.215,3.104c0.501-0.663,0.92-1.636,1.255-2.918h2.248
		c-0.434,1.76-1.128,3.193-2.082,4.302l2.797,2.704h-2.814l-1.385-1.348c-0.632,0.509-1.306,0.891-2.021,1.147
		c-0.715,0.258-1.506,0.386-2.373,0.386c-1.425,0-2.543-0.337-3.354-1.013C220.037,23.116,219.632,22.193,219.632,21.022z
		 M224.314,22.927c1.133,0,2.103-0.331,2.908-0.994l-3.559-3.502c-0.656,0.421-1.109,0.815-1.356,1.185
		c-0.248,0.368-0.372,0.788-0.372,1.259c0,0.607,0.215,1.101,0.646,1.481C223.012,22.736,223.59,22.927,224.314,22.927z
		 M222.93,13.961c0,0.391,0.104,0.759,0.312,1.106c0.208,0.347,0.497,0.715,0.868,1.105c0.701-0.396,1.191-0.767,1.473-1.11
		c0.282-0.344,0.424-0.729,0.424-1.157c0-0.402-0.135-0.725-0.404-0.966c-0.27-0.242-0.627-0.362-1.074-0.362
		c-0.488,0-0.877,0.125-1.166,0.376C223.074,13.204,222.93,13.54,222.93,13.961z"/>
	<path fill="#FFFFFF" d="M241.422,24.618l-3.939-11.345h-0.074c0.105,1.686,0.158,3.265,0.158,4.739v6.605h-2.016V11.034h3.131
		l3.771,10.806h0.057l3.883-10.806h3.141v13.584h-2.137V17.9c0-0.675,0.018-1.555,0.051-2.639c0.034-1.084,0.064-1.74,0.089-1.97
		h-0.075l-4.078,11.326H241.422z"/>
	<path fill="#FFFFFF" d="M270.604,11.034v8.79c0,1.003-0.215,1.881-0.646,2.634s-1.054,1.332-1.867,1.737
		c-0.815,0.406-1.788,0.608-2.923,0.608c-1.684,0-2.994-0.445-3.93-1.338c-0.936-0.892-1.402-2.118-1.402-3.679v-8.753h2.229v8.595
		c0,1.121,0.261,1.948,0.78,2.48c0.521,0.533,1.319,0.799,2.396,0.799c2.094,0,3.141-1.099,3.141-3.298v-8.576H270.604z"/>
	<path fill="#FFFFFF" d="M286.328,24.618h-2.723l-6.681-10.824h-0.074l0.046,0.604c0.088,1.151,0.131,2.205,0.131,3.158v7.062
		h-2.017V11.034h2.694l6.662,10.769h0.056c-0.013-0.143-0.037-0.661-0.074-1.556c-0.037-0.896-0.056-1.594-0.056-2.096v-7.117h2.035
		V24.618z"/>
	<path fill="#FFFFFF" d="M290.846,24.618V11.034h2.221v13.584H290.846z"/>
	<path fill="#FFFFFF" d="M305.325,11.034h2.305l-4.757,13.584h-2.342l-4.738-13.584h2.285l2.834,8.446
		c0.148,0.402,0.307,0.921,0.474,1.556c0.168,0.636,0.276,1.107,0.325,1.417c0.081-0.471,0.205-1.016,0.372-1.635
		s0.304-1.078,0.409-1.375L305.325,11.034z"/>
	<path fill="#FFFFFF" d="M318.038,24.618h-7.684V11.034h7.684v1.877h-5.463v3.698h5.119v1.858h-5.119v4.265h5.463V24.618z"/>
	<path fill="#FFFFFF" d="M324.127,19.192v5.426h-2.221V11.034h3.838c1.752,0,3.05,0.329,3.893,0.985
		c0.842,0.656,1.264,1.647,1.264,2.973c0,1.691-0.88,2.896-2.639,3.614l3.837,6.012h-2.527l-3.252-5.426H324.127z M324.127,17.353
		h1.542c1.035,0,1.784-0.192,2.249-0.576c0.464-0.384,0.696-0.954,0.696-1.709c0-0.769-0.251-1.319-0.752-1.654
		c-0.502-0.334-1.258-0.502-2.268-0.502h-1.468V17.353z"/>
	<path fill="#FFFFFF" d="M342.834,20.93c0,1.208-0.438,2.155-1.311,2.843s-2.078,1.031-3.614,1.031s-2.794-0.238-3.772-0.715v-2.1
		c0.62,0.291,1.278,0.52,1.975,0.688c0.697,0.167,1.346,0.25,1.946,0.25c0.88,0,1.528-0.167,1.947-0.501
		c0.418-0.335,0.627-0.784,0.627-1.348c0-0.508-0.192-0.938-0.576-1.291c-0.385-0.354-1.177-0.771-2.379-1.255
		c-1.238-0.501-2.112-1.074-2.62-1.719c-0.508-0.644-0.762-1.418-0.762-2.322c0-1.134,0.402-2.025,1.208-2.676
		c0.805-0.65,1.886-0.976,3.242-0.976c1.301,0,2.596,0.284,3.884,0.854l-0.706,1.812c-1.208-0.508-2.285-0.762-3.233-0.762
		c-0.719,0-1.264,0.156-1.635,0.47c-0.372,0.312-0.558,0.726-0.558,1.24c0,0.353,0.074,0.654,0.223,0.905
		c0.149,0.251,0.394,0.488,0.734,0.711s0.954,0.518,1.84,0.883c0.997,0.415,1.728,0.802,2.192,1.161s0.805,0.766,1.022,1.218
		C342.725,19.784,342.834,20.316,342.834,20.93z"/>
	<path fill="#FFFFFF" d="M346.414,24.618V11.034h2.221v13.584H346.414z"/>
	<path fill="#FFFFFF" d="M357.846,24.618h-2.221V12.939h-3.995v-1.905h10.211v1.905h-3.995V24.618z"/>
	<path fill="#FFFFFF" d="M368.711,17.231l3.214-6.197h2.416l-4.524,8.316v5.268h-2.23v-5.193l-4.506-8.391h2.416L368.711,17.231z"/>
</g>
<g>
	<path fill="#FFFFFF" d="M153.734,44.644c-2.985,0-5.342,0.994-7.07,2.982s-2.592,4.71-2.592,8.166c0,3.556,0.833,6.303,2.5,8.241
		c1.666,1.939,4.042,2.908,7.126,2.908c1.896,0,4.057-0.34,6.485-1.021v2.769c-1.883,0.706-4.206,1.06-6.968,1.06
		c-4.001,0-7.089-1.215-9.263-3.643c-2.174-2.428-3.261-5.878-3.261-10.351c0-2.799,0.523-5.252,1.57-7.358
		c1.046-2.105,2.558-3.729,4.534-4.868s4.302-1.71,6.978-1.71c2.849,0,5.339,0.521,7.47,1.562l-1.338,2.713
		C157.847,45.126,155.791,44.644,153.734,44.644z"/>
	<path fill="#FFFFFF" d="M183.225,59.175c0,3.319-0.837,5.912-2.509,7.776s-3.983,2.797-6.931,2.797
		c-1.821,0-3.438-0.428-4.85-1.282c-1.412-0.855-2.502-2.082-3.271-3.68s-1.152-3.469-1.152-5.611c0-3.32,0.83-5.906,2.49-7.759
		c1.66-1.852,3.964-2.777,6.913-2.777c2.849,0,5.113,0.947,6.792,2.843S183.225,55.941,183.225,59.175z M167.708,59.175
		c0,2.602,0.521,4.583,1.561,5.946c1.041,1.362,2.57,2.044,4.59,2.044c2.019,0,3.552-0.679,4.599-2.035
		c1.046-1.356,1.57-3.342,1.57-5.955c0-2.59-0.523-4.556-1.57-5.9c-1.047-1.344-2.592-2.016-4.636-2.016
		c-2.02,0-3.543,0.662-4.571,1.988C168.222,54.572,167.708,56.548,167.708,59.175z"/>
	<path fill="#FFFFFF" d="M191.716,69.376h-3.085V40.462h3.085V69.376z"/>
	<path fill="#FFFFFF" d="M201.342,69.376h-3.085V40.462h3.085V69.376z"/>
	<path fill="#FFFFFF" d="M216.486,69.748c-3.011,0-5.387-0.917-7.127-2.751c-1.74-1.833-2.611-4.379-2.611-7.637
		c0-3.283,0.809-5.891,2.426-7.823s3.787-2.898,6.513-2.898c2.552,0,4.571,0.839,6.058,2.518s2.23,3.893,2.23,6.644v1.95h-14.029
		c0.062,2.392,0.666,4.206,1.812,5.445c1.146,1.238,2.759,1.857,4.841,1.857c2.192,0,4.359-0.458,6.504-1.375v2.751
		c-1.091,0.471-2.122,0.808-3.094,1.013C219.035,69.646,217.861,69.748,216.486,69.748z M215.649,51.222
		c-1.636,0-2.938,0.532-3.911,1.598s-1.546,2.54-1.719,4.423h10.647c0-1.945-0.435-3.435-1.301-4.47
		C218.498,51.738,217.26,51.222,215.649,51.222z"/>
	<path fill="#FFFFFF" d="M245.901,49.01v1.951l-3.772,0.446c0.348,0.434,0.656,1,0.93,1.7c0.271,0.7,0.408,1.489,0.408,2.369
		c0,1.995-0.682,3.586-2.043,4.775c-1.363,1.189-3.234,1.784-5.612,1.784c-0.607,0-1.177-0.05-1.71-0.148
		c-1.312,0.693-1.969,1.567-1.969,2.62c0,0.557,0.229,0.969,0.688,1.235c0.457,0.267,1.244,0.399,2.359,0.399h3.605
		c2.204,0,3.898,0.465,5.082,1.394c1.183,0.93,1.773,2.279,1.773,4.051c0,2.255-0.904,3.974-2.713,5.157
		c-1.809,1.183-4.447,1.774-7.916,1.774c-2.663,0-4.717-0.496-6.159-1.486c-1.443-0.991-2.165-2.392-2.165-4.2
		c0-1.238,0.396-2.311,1.189-3.215c0.793-0.903,1.907-1.517,3.345-1.839c-0.521-0.235-0.957-0.602-1.31-1.097
		c-0.354-0.495-0.53-1.071-0.53-1.729c0-0.743,0.198-1.394,0.595-1.951c0.396-0.557,1.021-1.096,1.877-1.616
		c-1.053-0.434-1.911-1.171-2.574-2.211c-0.662-1.041-0.994-2.23-0.994-3.568c0-2.229,0.67-3.948,2.008-5.156
		s3.232-1.812,5.686-1.812c1.065,0,2.025,0.124,2.881,0.371H245.901z M229.66,72.795c0,1.103,0.465,1.938,1.395,2.509
		c0.929,0.569,2.26,0.854,3.994,0.854c2.59,0,4.507-0.387,5.752-1.161s1.867-1.824,1.867-3.149c0-1.103-0.341-1.868-1.021-2.295
		c-0.682-0.428-1.964-0.642-3.847-0.642h-3.698c-1.4,0-2.49,0.335-3.27,1.004C230.051,70.584,229.66,71.544,229.66,72.795z
		 M231.333,55.532c0,1.425,0.402,2.503,1.208,3.233c0.805,0.731,1.926,1.097,3.363,1.097c3.01,0,4.516-1.462,4.516-4.386
		c0-3.06-1.523-4.59-4.571-4.59c-1.45,0-2.564,0.391-3.345,1.171C231.723,52.838,231.333,53.996,231.333,55.532z"/>
	<path fill="#FFFFFF" d="M258.686,69.748c-3.01,0-5.385-0.917-7.126-2.751c-1.74-1.833-2.61-4.379-2.61-7.637
		c0-3.283,0.809-5.891,2.425-7.823s3.788-2.898,6.513-2.898c2.553,0,4.571,0.839,6.059,2.518c1.486,1.679,2.229,3.893,2.229,6.644
		v1.95h-14.03c0.062,2.392,0.666,4.206,1.812,5.445c1.146,1.238,2.76,1.857,4.84,1.857c2.193,0,4.361-0.458,6.504-1.375v2.751
		c-1.09,0.471-2.121,0.808-3.094,1.013C261.234,69.646,260.061,69.748,258.686,69.748z M257.85,51.222
		c-1.635,0-2.939,0.532-3.911,1.598c-0.973,1.065-1.546,2.54-1.72,4.423h10.648c0-1.945-0.434-3.435-1.301-4.47
		C260.699,51.738,259.46,51.222,257.85,51.222z"/>
	<path fill="#FFFFFF" d="M298.898,59.175c0,3.319-0.838,5.912-2.51,7.776s-3.982,2.797-6.932,2.797c-1.82,0-3.438-0.428-4.85-1.282
		c-1.412-0.855-2.502-2.082-3.27-3.68c-0.769-1.598-1.152-3.469-1.152-5.611c0-3.32,0.83-5.906,2.49-7.759
		c1.659-1.852,3.963-2.777,6.912-2.777c2.85,0,5.113,0.947,6.791,2.843C298.059,53.377,298.898,55.941,298.898,59.175z
		 M283.381,59.175c0,2.602,0.521,4.583,1.562,5.946c1.04,1.362,2.57,2.044,4.59,2.044c2.019,0,3.552-0.679,4.599-2.035
		s1.57-3.342,1.57-5.955c0-2.59-0.523-4.556-1.57-5.9c-1.047-1.344-2.592-2.016-4.636-2.016c-2.02,0-3.544,0.662-4.571,1.988
		C283.896,54.572,283.381,56.548,283.381,59.175z"/>
	<path fill="#FFFFFF" d="M313.484,51.407H308.3v17.969h-3.085V51.407h-3.642v-1.394l3.642-1.115v-1.134
		c0-5.004,2.187-7.507,6.56-7.507c1.078,0,2.342,0.217,3.791,0.65l-0.799,2.472c-1.189-0.384-2.205-0.576-3.048-0.576
		c-1.164,0-2.025,0.387-2.583,1.161s-0.836,2.017-0.836,3.726v1.319h5.185V51.407z"/>
	<path fill="#FFFFFF" d="M344.628,69.376l-3.382-8.641h-10.889l-3.345,8.641h-3.196l10.74-27.278h2.657l10.685,27.278H344.628z
		 M340.262,57.893l-3.159-8.418c-0.409-1.065-0.83-2.372-1.264-3.921c-0.272,1.189-0.663,2.496-1.171,3.921l-3.195,8.418H340.262z"
		/>
	<path fill="#FFFFFF" d="M367.837,49.01v1.951l-3.772,0.446c0.347,0.434,0.657,1,0.93,1.7s0.408,1.489,0.408,2.369
		c0,1.995-0.681,3.586-2.044,4.775c-1.362,1.189-3.233,1.784-5.611,1.784c-0.607,0-1.177-0.05-1.71-0.148
		c-1.312,0.693-1.97,1.567-1.97,2.62c0,0.557,0.229,0.969,0.688,1.235c0.459,0.267,1.245,0.399,2.36,0.399h3.604
		c2.205,0,3.899,0.465,5.083,1.394c1.183,0.93,1.774,2.279,1.774,4.051c0,2.255-0.904,3.974-2.713,5.157
		c-1.81,1.183-4.448,1.774-7.916,1.774c-2.664,0-4.717-0.496-6.16-1.486c-1.443-0.991-2.165-2.392-2.165-4.2
		c0-1.238,0.396-2.311,1.189-3.215c0.793-0.903,1.907-1.517,3.345-1.839c-0.521-0.235-0.957-0.602-1.311-1.097
		c-0.353-0.495-0.529-1.071-0.529-1.729c0-0.743,0.198-1.394,0.595-1.951c0.396-0.557,1.022-1.096,1.877-1.616
		c-1.053-0.434-1.911-1.171-2.573-2.211c-0.663-1.041-0.994-2.23-0.994-3.568c0-2.229,0.669-3.948,2.007-5.156
		s3.232-1.812,5.686-1.812c1.065,0,2.025,0.124,2.88,0.371H367.837z M351.597,72.795c0,1.103,0.464,1.938,1.394,2.509
		c0.929,0.569,2.261,0.854,3.995,0.854c2.589,0,4.506-0.387,5.751-1.161s1.867-1.824,1.867-3.149c0-1.103-0.341-1.868-1.021-2.295
		c-0.682-0.428-1.964-0.642-3.847-0.642h-3.698c-1.399,0-2.489,0.335-3.271,1.004C351.986,70.584,351.597,71.544,351.597,72.795z
		 M353.269,55.532c0,1.425,0.402,2.503,1.208,3.233c0.805,0.731,1.926,1.097,3.363,1.097c3.011,0,4.516-1.462,4.516-4.386
		c0-3.06-1.523-4.59-4.571-4.59c-1.449,0-2.564,0.391-3.345,1.171S353.269,53.996,353.269,55.532z"/>
	<path fill="#FFFFFF" d="M381.309,48.639c0.904,0,1.716,0.074,2.435,0.223l-0.428,2.861c-0.843-0.186-1.586-0.278-2.229-0.278
		c-1.648,0-3.057,0.669-4.228,2.007s-1.756,3.004-1.756,4.998v10.927h-3.085V49.01h2.546l0.353,3.772h0.149
		c0.755-1.325,1.666-2.348,2.731-3.066C378.862,48.998,380.032,48.639,381.309,48.639z"/>
	<path fill="#FFFFFF" d="M387.293,43.491c0-0.706,0.173-1.224,0.52-1.552s0.781-0.492,1.301-0.492c0.496,0,0.923,0.167,1.282,0.502
		c0.359,0.334,0.539,0.849,0.539,1.542s-0.18,1.211-0.539,1.552s-0.786,0.511-1.282,0.511c-0.52,0-0.954-0.17-1.301-0.511
		S387.293,44.185,387.293,43.491z M390.638,69.376h-3.085V49.01h3.085V69.376z"/>
	<path fill="#FFFFFF" d="M405.316,69.748c-2.948,0-5.23-0.908-6.848-2.723c-1.616-1.814-2.425-4.382-2.425-7.702
		c0-3.407,0.82-6.039,2.462-7.897s3.979-2.787,7.016-2.787c0.978,0,1.957,0.105,2.936,0.315c0.979,0.211,1.747,0.459,2.304,0.743
		l-0.947,2.62c-0.682-0.272-1.425-0.498-2.229-0.678c-0.806-0.18-1.518-0.27-2.138-0.27c-4.138,0-6.206,2.639-6.206,7.916
		c0,2.502,0.505,4.422,1.515,5.76s2.505,2.007,4.487,2.007c1.697,0,3.438-0.365,5.222-1.096v2.731
		C409.101,69.395,407.386,69.748,405.316,69.748z"/>
	<path fill="#FFFFFF" d="M418.194,49.01v13.212c0,1.66,0.378,2.899,1.134,3.717s1.938,1.227,3.549,1.227
		c2.131,0,3.688-0.582,4.674-1.747c0.984-1.164,1.478-3.066,1.478-5.705V49.01h3.084v20.366h-2.545l-0.446-2.731h-0.167
		c-0.632,1.003-1.509,1.771-2.63,2.304c-1.121,0.533-2.4,0.8-3.837,0.8c-2.478,0-4.333-0.589-5.565-1.766s-1.849-3.06-1.849-5.649
		V49.01H418.194z"/>
	<path fill="#FFFFFF" d="M441.738,69.376h-3.085V40.462h3.085V69.376z"/>
	<path fill="#FFFFFF" d="M454.857,67.202c0.545,0,1.071-0.04,1.579-0.121c0.508-0.08,0.911-0.164,1.208-0.251v2.36
		c-0.334,0.161-0.827,0.294-1.478,0.399c-0.65,0.104-1.235,0.158-1.756,0.158c-3.939,0-5.909-2.075-5.909-6.226V51.407h-2.917
		v-1.486l2.917-1.282l1.301-4.349h1.784v4.72h5.909v2.397h-5.909v11.985c0,1.227,0.291,2.168,0.873,2.824
		C453.042,66.874,453.842,67.202,454.857,67.202z"/>
	<path fill="#FFFFFF" d="M464.612,49.01v13.212c0,1.66,0.378,2.899,1.134,3.717s1.938,1.227,3.549,1.227
		c2.131,0,3.688-0.582,4.674-1.747c0.984-1.164,1.478-3.066,1.478-5.705V49.01h3.084v20.366h-2.545l-0.446-2.731h-0.167
		c-0.632,1.003-1.509,1.771-2.63,2.304c-1.121,0.533-2.4,0.8-3.837,0.8c-2.478,0-4.333-0.589-5.565-1.766s-1.849-3.06-1.849-5.649
		V49.01H464.612z"/>
	<path fill="#FFFFFF" d="M494.362,48.639c0.904,0,1.716,0.074,2.435,0.223l-0.428,2.861c-0.843-0.186-1.586-0.278-2.229-0.278
		c-1.648,0-3.057,0.669-4.228,2.007s-1.756,3.004-1.756,4.998v10.927h-3.085V49.01h2.546l0.353,3.772h0.149
		c0.755-1.325,1.666-2.348,2.731-3.066C491.916,48.998,493.086,48.639,494.362,48.639z"/>
	<path fill="#FFFFFF" d="M509.21,69.748c-3.011,0-5.386-0.917-7.126-2.751c-1.741-1.833-2.611-4.379-2.611-7.637
		c0-3.283,0.809-5.891,2.425-7.823c1.617-1.933,3.788-2.898,6.514-2.898c2.552,0,4.571,0.839,6.058,2.518s2.229,3.893,2.229,6.644
		v1.95h-14.029c0.062,2.392,0.666,4.206,1.812,5.445c1.146,1.238,2.76,1.857,4.841,1.857c2.192,0,4.36-0.458,6.504-1.375v2.751
		c-1.09,0.471-2.122,0.808-3.094,1.013C511.759,69.646,510.585,69.748,509.21,69.748z M508.374,51.222
		c-1.636,0-2.939,0.532-3.912,1.598s-1.545,2.54-1.719,4.423h10.647c0-1.945-0.434-3.435-1.301-4.47
		C511.223,51.738,509.984,51.222,508.374,51.222z"/>
	<path fill="#FFFFFF" d="M530.672,62.333c0-1.61,0.431-3.034,1.292-4.273c0.86-1.238,2.406-2.49,4.636-3.754
		c-1.053-1.177-1.769-2.068-2.146-2.676c-0.378-0.606-0.678-1.238-0.9-1.896c-0.224-0.656-0.335-1.338-0.335-2.044
		c0-1.858,0.606-3.308,1.821-4.348c1.214-1.041,2.904-1.562,5.072-1.562c2.007,0,3.587,0.518,4.739,1.552
		c1.151,1.034,1.728,2.475,1.728,4.32c0,1.326-0.421,2.549-1.264,3.67s-2.236,2.258-4.181,3.41l7.562,7.266
		c0.694-0.769,1.248-1.669,1.663-2.704c0.415-1.034,0.766-2.165,1.051-3.391h3.121c-0.843,3.543-2.112,6.231-3.81,8.064l5.557,5.407
		h-4.256l-3.438-3.308c-1.462,1.313-2.948,2.255-4.46,2.824c-1.511,0.57-3.195,0.855-5.054,0.855c-2.664,0-4.729-0.657-6.197-1.97
		C531.406,66.465,530.672,64.65,530.672,62.333z M539.146,66.979c2.985,0,5.463-0.953,7.433-2.861l-8.12-7.879
		c-1.375,0.843-2.348,1.54-2.917,2.091c-0.57,0.551-0.992,1.143-1.264,1.774c-0.273,0.632-0.409,1.351-0.409,2.155
		c0,1.449,0.479,2.599,1.44,3.447C536.269,66.555,537.548,66.979,539.146,66.979z M536.266,47.616c0,0.854,0.223,1.67,0.669,2.443
		c0.445,0.774,1.207,1.707,2.285,2.797c1.599-0.929,2.71-1.787,3.336-2.573c0.625-0.787,0.938-1.694,0.938-2.723
		c0-0.954-0.319-1.731-0.957-2.332c-0.639-0.601-1.49-0.901-2.556-0.901c-1.103,0-1.997,0.298-2.685,0.893
		C536.609,45.813,536.266,46.613,536.266,47.616z"/>
	<path fill="#FFFFFF" d="M569.974,69.376V42.209h3.158v24.306h11.986v2.861H569.974z"/>
	<path fill="#FFFFFF" d="M589.002,43.491c0-0.706,0.173-1.224,0.52-1.552s0.781-0.492,1.301-0.492c0.496,0,0.923,0.167,1.282,0.502
		c0.359,0.334,0.539,0.849,0.539,1.542s-0.18,1.211-0.539,1.552s-0.786,0.511-1.282,0.511c-0.52,0-0.954-0.17-1.301-0.511
		S589.002,44.185,589.002,43.491z M592.347,69.376h-3.085V49.01h3.085V69.376z"/>
	<path fill="#FFFFFF" d="M608.066,51.407h-5.185v17.969h-3.085V51.407h-3.642v-1.394l3.642-1.115v-1.134
		c0-5.004,2.187-7.507,6.56-7.507c1.078,0,2.342,0.217,3.791,0.65l-0.799,2.472c-1.189-0.384-2.205-0.576-3.048-0.576
		c-1.164,0-2.025,0.387-2.583,1.161s-0.836,2.017-0.836,3.726v1.319h5.185V51.407z"/>
	<path fill="#FFFFFF" d="M620.387,69.748c-3.011,0-5.386-0.917-7.126-2.751c-1.741-1.833-2.611-4.379-2.611-7.637
		c0-3.283,0.809-5.891,2.425-7.823c1.617-1.933,3.788-2.898,6.514-2.898c2.552,0,4.571,0.839,6.058,2.518s2.229,3.893,2.229,6.644
		v1.95h-14.029c0.062,2.392,0.666,4.206,1.812,5.445c1.146,1.238,2.76,1.857,4.841,1.857c2.192,0,4.36-0.458,6.504-1.375v2.751
		c-1.09,0.471-2.122,0.808-3.094,1.013C622.936,69.646,621.762,69.748,620.387,69.748z M619.551,51.222
		c-1.636,0-2.939,0.532-3.912,1.598s-1.545,2.54-1.719,4.423h10.647c0-1.945-0.434-3.435-1.301-4.47
		C622.399,51.738,621.161,51.222,619.551,51.222z"/>
	<path fill="#FFFFFF" d="M658.814,62.147c0,2.391-0.867,4.256-2.602,5.594s-4.088,2.007-7.062,2.007
		c-3.221,0-5.698-0.415-7.433-1.245v-3.048c1.115,0.471,2.329,0.843,3.642,1.115c1.313,0.272,2.614,0.408,3.902,0.408
		c2.106,0,3.691-0.399,4.758-1.198c1.064-0.799,1.598-1.911,1.598-3.335c0-0.941-0.189-1.713-0.566-2.313
		c-0.378-0.602-1.01-1.155-1.896-1.663s-2.233-1.084-4.042-1.729c-2.527-0.904-4.333-1.976-5.417-3.215
		c-1.084-1.238-1.625-2.855-1.625-4.85c0-2.094,0.786-3.76,2.359-4.999c1.573-1.238,3.654-1.858,6.244-1.858
		c2.7,0,5.184,0.496,7.451,1.487l-0.985,2.75c-2.242-0.941-4.422-1.412-6.541-1.412c-1.672,0-2.979,0.359-3.921,1.077
		c-0.941,0.719-1.412,1.716-1.412,2.992c0,0.941,0.174,1.713,0.521,2.313s0.933,1.152,1.756,1.653
		c0.824,0.502,2.084,1.057,3.781,1.663c2.85,1.017,4.81,2.106,5.882,3.271C658.278,58.778,658.814,60.289,658.814,62.147z"/>
	<path fill="#FFFFFF" d="M672.044,69.748c-2.948,0-5.23-0.908-6.848-2.723c-1.616-1.814-2.425-4.382-2.425-7.702
		c0-3.407,0.82-6.039,2.462-7.897s3.979-2.787,7.016-2.787c0.978,0,1.957,0.105,2.936,0.315c0.979,0.211,1.747,0.459,2.304,0.743
		l-0.947,2.62c-0.682-0.272-1.425-0.498-2.229-0.678c-0.806-0.18-1.518-0.27-2.138-0.27c-4.138,0-6.206,2.639-6.206,7.916
		c0,2.502,0.505,4.422,1.515,5.76s2.505,2.007,4.487,2.007c1.697,0,3.438-0.365,5.222-1.096v2.731
		C675.828,69.395,674.113,69.748,672.044,69.748z"/>
	<path fill="#FFFFFF" d="M681.764,43.491c0-0.706,0.173-1.224,0.52-1.552s0.781-0.492,1.301-0.492c0.496,0,0.923,0.167,1.282,0.502
		c0.359,0.334,0.539,0.849,0.539,1.542s-0.18,1.211-0.539,1.552s-0.786,0.511-1.282,0.511c-0.52,0-0.954-0.17-1.301-0.511
		S681.764,44.185,681.764,43.491z M685.108,69.376h-3.085V49.01h3.085V69.376z"/>
	<path fill="#FFFFFF" d="M700.252,69.748c-3.011,0-5.386-0.917-7.126-2.751c-1.741-1.833-2.611-4.379-2.611-7.637
		c0-3.283,0.809-5.891,2.425-7.823c1.617-1.933,3.788-2.898,6.514-2.898c2.552,0,4.571,0.839,6.058,2.518s2.229,3.893,2.229,6.644
		v1.95h-14.029c0.062,2.392,0.666,4.206,1.812,5.445c1.146,1.238,2.76,1.857,4.841,1.857c2.192,0,4.36-0.458,6.504-1.375v2.751
		c-1.09,0.471-2.122,0.808-3.094,1.013C702.801,69.646,701.627,69.748,700.252,69.748z M699.416,51.222
		c-1.636,0-2.939,0.532-3.912,1.598s-1.545,2.54-1.719,4.423h10.647c0-1.945-0.434-3.435-1.301-4.47
		C702.265,51.738,701.026,51.222,699.416,51.222z"/>
	<path fill="#FFFFFF" d="M726.936,69.376V56.201c0-1.66-0.378-2.898-1.134-3.717c-0.756-0.817-1.938-1.226-3.549-1.226
		c-2.131,0-3.691,0.575-4.683,1.728s-1.486,3.054-1.486,5.705v10.685h-3.085V49.01h2.509l0.501,2.787h0.149
		c0.632-1.003,1.517-1.78,2.657-2.332c1.14-0.551,2.409-0.826,3.809-0.826c2.453,0,4.299,0.592,5.538,1.774
		c1.238,1.183,1.858,3.075,1.858,5.677v13.286H726.936z"/>
	<path fill="#FFFFFF" d="M744.496,69.748c-2.948,0-5.23-0.908-6.848-2.723c-1.616-1.814-2.425-4.382-2.425-7.702
		c0-3.407,0.82-6.039,2.462-7.897s3.979-2.787,7.016-2.787c0.978,0,1.957,0.105,2.936,0.315c0.979,0.211,1.747,0.459,2.304,0.743
		l-0.947,2.62c-0.682-0.272-1.425-0.498-2.229-0.678c-0.806-0.18-1.518-0.27-2.138-0.27c-4.138,0-6.206,2.639-6.206,7.916
		c0,2.502,0.505,4.422,1.515,5.76s2.505,2.007,4.487,2.007c1.697,0,3.438-0.365,5.222-1.096v2.731
		C748.28,69.395,746.565,69.748,744.496,69.748z"/>
	<path fill="#FFFFFF" d="M763.078,69.748c-3.011,0-5.386-0.917-7.126-2.751c-1.741-1.833-2.611-4.379-2.611-7.637
		c0-3.283,0.809-5.891,2.425-7.823c1.617-1.933,3.788-2.898,6.514-2.898c2.552,0,4.571,0.839,6.058,2.518s2.229,3.893,2.229,6.644
		v1.95h-14.029c0.062,2.392,0.666,4.206,1.812,5.445c1.146,1.238,2.76,1.857,4.841,1.857c2.192,0,4.36-0.458,6.504-1.375v2.751
		c-1.09,0.471-2.122,0.808-3.094,1.013C765.627,69.646,764.453,69.748,763.078,69.748z M762.242,51.222
		c-1.636,0-2.939,0.532-3.912,1.598s-1.545,2.54-1.719,4.423h10.647c0-1.945-0.434-3.435-1.301-4.47
		C765.091,51.738,763.853,51.222,762.242,51.222z"/>
</g>
</svg>
