<?xml version="1.0" encoding="utf-8"?>
<!-- Generator: Adobe Illustrator 16.0.4, SVG Export Plug-In . SVG Version: 6.00 Build 0)  -->
<!DOCTYPE svg PUBLIC "-//W3C//DTD SVG 1.1//EN" "http://www.w3.org/Graphics/SVG/1.1/DTD/svg11.dtd">
<svg version="1.1" id="Layer_1" xmlns="http://www.w3.org/2000/svg" xmlns:xlink="http://www.w3.org/1999/xlink" x="0px" y="0px"
	 width="423.82px" height="88px" viewBox="0 0 423.82 88" enable-background="new 0 0 423.82 88" xml:space="preserve">
<line fill="none" stroke="#FFFFFF" stroke-width="1.25" stroke-linecap="square" stroke-miterlimit="10" x1="111.245" y1="0" x2="111.245" y2="88"/>
<path fill="#FFFFFF" d="M61.434,77.623L61.434,77.623l0.415-1.246l0.415-0.83l0.83-0.415l1.246-0.415l0,0l0.83,0.415l1.245,0.415
	l0.415,0.83v1.246l0,0v1.245l-0.415,0.83l-1.245,0.415l-0.83,0.415l0,0l-1.246-0.415l-0.83-0.415l-0.415-0.83L61.434,77.623
	L61.434,77.623z M66.415,77.623L66.415,77.623L66,76.792l-0.415-0.83l-0.415-0.415h-0.83l0,0h-0.831l-0.83,0.415l-0.415,0.83v0.831
	l0,0v0.83l0.415,0.83l0.83,0.415h0.831l0,0h0.83l0.415-0.415L66,78.453L66.415,77.623L66.415,77.623z M63.094,75.962h1.246l0,0
	l0.83,0.415l0.415,0.415l0,0l-0.415,0.831h-0.415l0.83,1.66h-0.83l-0.415-1.66h-0.416v1.66h-0.83V75.962L63.094,75.962z
	 M63.924,77.208h0.416l0,0h0.415v-0.416l0,0v-0.415H64.34h-0.416V77.208L63.924,77.208z"/>
<polygon fill="#FFFFFF" points="87.585,31.548 78.868,31.548 78.453,31.548 78.038,31.962 71.812,45.245 65.17,31.962 65.17,31.548 
	64.755,31.548 56.038,31.548 55.208,31.548 55.208,32.377 55.208,36.943 55.208,37.773 56.038,37.773 57.698,37.773 57.698,56.453 
	56.038,56.453 55.208,56.453 55.208,57.283 55.208,61.849 55.208,62.68 56.038,62.68 65.585,62.68 66.415,62.68 66.415,61.849 
	66.415,57.283 66.415,56.453 65.585,56.453 63.924,56.453 63.924,43.17 70.981,57.698 71.812,59.358 72.642,57.698 79.698,43.17 
	79.698,56.453 78.038,56.453 77.208,56.453 77.208,57.283 77.208,61.849 77.208,62.68 78.038,62.68 87.585,62.68 88.415,62.68 
	88.415,61.849 88.415,57.283 88.415,56.453 87.585,56.453 85.924,56.453 85.924,37.773 87.585,37.773 88.415,37.773 88.415,36.943 
	88.415,32.377 88.415,31.548 87.585,31.548 "/>
<path fill="#FFFFFF" d="M32.377,56.453h-2.906l-7.887-19.095H22h0.83v-0.83v-4.151v-0.829H22H10.377h-0.83v0.829v4.151v0.83h0.83
	h1.245L3.321,56.453H0.83H0v0.83v4.565v0.831h0.83h10.377h0.83v-0.831v-4.565v-0.83h-0.83H9.962l1.66-2.906h9.962l1.245,2.906H22
	h-0.83v0.83v4.565v0.831H22h10.377h0.83v-0.831v-4.565v-0.83H32.377L32.377,56.453z M18.679,47.32h-4.566l2.491-5.396L18.679,47.32
	L18.679,47.32z"/>
<polygon fill="#FFFFFF" points="77.623,7.472 10.377,7.472 9.547,7.472 9.547,8.717 9.547,26.566 9.547,27.396 10.377,27.396 
	22,27.396 23.245,27.396 23.245,26.566 23.245,19.924 37.358,19.924 37.358,66.83 30.717,66.83 29.887,66.83 29.887,67.66 
	29.887,79.283 29.887,80.528 30.717,80.528 57.283,80.528 58.528,80.528 58.528,79.283 58.528,67.66 58.528,66.83 57.283,66.83 
	50.642,66.83 50.642,19.924 64.755,19.924 64.755,26.151 64.755,27.396 66,27.396 77.623,27.396 78.453,27.396 78.453,26.151 
	78.453,8.717 78.453,7.472 77.623,7.472 "/>
<polygon fill="#B1B3B6" points="52.717,72.227 55.623,69.32 55.623,77.623 52.717,74.717 52.717,72.227 "/>
<polygon fill="#B1B3B6" points="48.151,69.736 45.245,72.642 45.245,14.113 48.151,17.019 48.151,69.736 "/>
<polygon fill="#B1B3B6" points="15.358,13.283 12.453,10.377 74.302,10.377 70.566,13.283 15.358,13.283 "/>
<polygon fill="#B1B3B6" points="75.962,24.491 73.057,22 73.057,14.943 75.962,12.038 75.962,24.491 "/>
<polygon fill="#FFFFFF" points="144.453,12.453 142.377,12.453 142.377,2.076 138.642,2.076 138.642,0.415 147.773,0.415 
	147.773,2.076 144.453,2.076 144.453,12.453 "/>
<polygon fill="#FFFFFF" points="157.32,12.453 150.68,12.453 150.68,0.415 157.32,0.415 157.32,2.076 152.34,2.076 152.34,5.396 
	156.905,5.396 156.905,7.057 152.34,7.057 152.34,10.792 157.32,10.792 157.32,12.453 "/>
<polygon fill="#FFFFFF" points="169.358,12.453 166.868,12.453 163.962,7.472 161.057,12.453 158.981,12.453 162.717,6.227 
	159.396,0.415 161.472,0.415 163.962,4.981 166.868,0.415 168.943,0.415 165.208,6.227 169.358,12.453 "/>
<path fill="#FFFFFF" d="M178.905,12.453l-1.245-3.321h-4.15l-1.246,3.321h-2.075l4.151-12.038h2.49l4.151,12.038H178.905
	L178.905,12.453z M177.245,7.472l-0.83-3.321l0,0L176,2.906l0,0l-0.415-0.83l0,0l-0.83,2.075l-0.83,3.321H177.245L177.245,7.472z"/>
<polygon fill="#FFFFFF" points="190.113,9.132 190.113,9.132 189.698,10.377 188.868,11.623 188.868,11.623 187.623,12.038 
	185.962,12.453 185.962,12.453 183.887,12.453 182.642,11.623 182.642,9.962 182.642,9.962 184.302,10.377 184.302,10.377 
	185.962,10.792 185.962,10.792 186.792,10.792 187.623,10.377 187.623,10.377 188.038,9.962 188.038,9.132 188.038,9.132 
	188.038,8.717 187.623,7.887 187.623,7.887 185.547,7.057 185.547,7.057 184.302,6.227 183.472,5.396 183.472,5.396 182.642,4.566 
	182.642,3.321 182.642,3.321 183.057,2.076 183.887,1.245 183.887,1.245 185.132,0.415 186.377,0.415 186.377,0.415 188.453,0.415 
	190.113,0.83 189.283,2.491 189.283,2.491 187.623,2.076 186.377,2.076 186.377,2.076 185.547,2.076 185.132,2.491 185.132,2.491 
	184.717,2.906 184.717,3.321 184.717,3.321 184.717,4.151 184.717,4.151 185.547,4.981 185.547,4.981 187.208,5.396 187.208,5.396 
	188.868,6.642 188.868,6.642 189.698,7.472 189.698,7.472 190.113,9.132 190.113,9.132 "/>
<path fill="#FFFFFF" d="M205.472,12.453l-1.245-3.321h-4.566l-0.83,3.321h-2.075l4.15-12.038h2.491l4.15,12.038H205.472
	L205.472,12.453z M203.812,7.472l-1.245-3.321l0,0V2.906l0,0l-0.415-0.83l0,0l-0.831,2.075l-0.83,3.321H203.812L203.812,7.472z"/>
<path fill="#FFFFFF" d="M209.208,9.132L209.208,9.132v-0.83l0.415-0.83l0,0l0.83-0.83l0.83-0.83l0,0l-0.83-1.661l0,0l-0.415-1.245
	l0,0l0.415-1.246l0.415-0.83l0,0l1.245-0.415h1.245l0,0h1.245l0.83,0.415l0,0l0.83,0.83v1.246l0,0v0.83l-0.415,0.83l0,0l-1.66,1.246
	l2.491,2.905l0,0l0.83-1.245l0.415-1.245H220l0,0l-0.83,2.075l-1.245,1.661l2.49,2.49h-2.49l-1.245-1.245l0,0l-1.661,0.83l0,0
	l-2.075,0.415l0,0l-1.66-0.415l-1.245-0.415l0,0l-0.83-1.245V9.132L209.208,9.132L209.208,9.132z M212.943,10.792L212.943,10.792
	l1.66-0.415l1.245-0.415l-3.32-2.906l0,0l-1.245,0.83l0,0l-0.415,1.245l0,0l0.415,0.416l0.415,0.83l0,0l0.415,0.415H212.943
	L212.943,10.792L212.943,10.792z M212.113,2.906L212.113,2.906v0.83l0,0l0.83,1.245l0,0l1.245-1.245l0,0l0.415-0.83l0,0l-0.415-0.83
	l0,0l-0.83-0.416l0,0l-1.245,0.416l0,0V2.906L212.113,2.906L212.113,2.906z"/>
<polygon fill="#FFFFFF" points="228.302,12.453 224.981,2.491 224.566,2.491 224.566,2.491 224.981,6.642 224.981,12.453 
	222.905,12.453 222.905,0.415 225.812,0.415 229.132,9.962 229.132,9.962 232.453,0.415 235.358,0.415 235.358,12.453 
	233.283,12.453 233.283,6.227 233.283,6.227 233.283,4.151 233.283,4.151 233.698,2.491 233.698,2.491 229.962,12.453 
	228.302,12.453 "/>
<polygon fill="#FFFFFF" points="253.623,0.415 253.623,7.887 253.623,7.887 253.208,9.132 252.792,10.377 252.792,10.377 
	252.377,11.208 251.547,12.038 251.547,12.038 250.302,12.453 248.642,12.453 248.642,12.453 246.981,12.038 245.32,11.208 
	245.32,11.208 244.49,9.962 244.075,7.887 244.075,0.415 246.151,0.415 246.151,7.887 246.151,7.887 246.151,9.132 246.981,9.962 
	246.981,9.962 247.812,10.792 249.057,10.792 249.057,10.792 249.887,10.792 251.132,9.962 251.547,9.132 251.547,7.887 
	251.547,0.415 253.623,0.415 "/>
<polygon fill="#FFFFFF" points="267.32,12.453 264.83,12.453 259.019,2.906 259.019,2.906 259.019,3.321 259.019,3.321 
	259.434,6.227 259.434,12.453 257.358,12.453 257.358,0.415 259.849,0.415 265.66,9.962 265.66,9.962 265.66,9.962 265.66,8.302 
	265.66,8.302 265.66,6.642 265.66,0.415 267.32,0.415 267.32,12.453 "/>
<polygon fill="#FFFFFF" points="271.057,12.453 271.057,0.415 273.132,0.415 273.132,12.453 271.057,12.453 "/>
<polygon fill="#FFFFFF" points="283.925,0.415 285.585,0.415 281.434,12.453 279.773,12.453 275.623,0.415 277.283,0.415 
	279.773,7.887 279.773,7.887 280.188,9.132 280.188,9.132 280.604,10.377 280.604,10.377 281.019,9.132 281.019,9.132 
	281.434,7.887 283.925,0.415 "/>
<polygon fill="#FFFFFF" points="294.717,12.453 288.075,12.453 288.075,0.415 294.717,0.415 294.717,2.076 290.151,2.076 
	290.151,5.396 294.717,5.396 294.717,7.057 290.151,7.057 290.151,10.792 294.717,10.792 294.717,12.453 "/>
<path fill="#FFFFFF" d="M300.113,7.472v4.981h-2.075V0.415h3.32l0,0l2.075,0.415l1.661,0.415l0,0l0.83,1.246v1.245l0,0v1.245
	l-0.415,0.831l-0.83,0.83l-0.831,0.415l3.321,5.396h-2.49l-2.491-4.981H300.113L300.113,7.472z M300.113,5.812h1.245l0,0h1.245
	l0.83-0.416l0,0l0.415-0.415V3.736l0,0v-0.83l-0.415-0.415l0,0l-0.83-0.415h-1.245h-1.245V5.812L300.113,5.812z"/>
<polygon fill="#FFFFFF" points="316.717,9.132 316.717,9.132 316.302,10.377 315.472,11.623 315.472,11.623 314.227,12.038 
	312.151,12.453 312.151,12.453 310.49,12.453 308.83,11.623 308.83,9.962 308.83,9.962 310.905,10.377 310.905,10.377 
	312.566,10.792 312.566,10.792 313.396,10.792 314.227,10.377 314.227,10.377 314.642,9.962 314.642,9.132 314.642,9.132 
	314.642,8.717 314.227,7.887 314.227,7.887 312.151,7.057 312.151,7.057 310.905,6.227 309.66,5.396 309.66,5.396 309.245,4.566 
	309.245,3.321 309.245,3.321 309.245,2.076 310.075,1.245 310.075,1.245 311.32,0.415 312.981,0.415 312.981,0.415 314.642,0.415 
	316.302,0.83 315.887,2.491 315.887,2.491 314.227,2.076 312.981,2.076 312.981,2.076 312.151,2.076 311.736,2.491 311.736,2.491 
	311.32,2.906 310.905,3.321 310.905,3.321 311.32,4.151 311.32,4.151 311.736,4.981 311.736,4.981 313.396,5.396 313.396,5.396 
	315.472,6.642 315.472,6.642 316.302,7.472 316.302,7.472 316.717,9.132 316.717,9.132 "/>
<polygon fill="#FFFFFF" points="319.623,12.453 319.623,0.415 321.698,0.415 321.698,12.453 319.623,12.453 "/>
<polygon fill="#FFFFFF" points="329.585,12.453 327.51,12.453 327.51,2.076 324.188,2.076 324.188,0.415 332.905,0.415 
	332.905,2.076 329.585,2.076 329.585,12.453 "/>
<polygon fill="#FFFFFF" points="339.132,5.812 342.038,0.415 344.113,0.415 340.377,7.472 340.377,12.453 338.302,12.453 
	338.302,7.887 334.151,0.415 336.642,0.415 339.132,5.812 "/>
<polygon fill="#FFFFFF" points="150.68,29.887 150.68,29.887 149.019,29.887 147.358,30.302 146.113,31.132 145.283,31.962 
	145.283,31.962 144.038,33.208 143.623,34.868 143.208,36.528 143.208,38.604 143.208,38.604 143.208,40.68 143.623,42.34 
	144.038,43.585 144.868,44.83 144.868,44.83 146.113,46.075 147.358,46.905 149.019,47.32 150.68,47.32 150.68,47.32 153.17,46.905 
	155.66,46.49 155.66,48.566 155.66,48.566 153.17,49.396 150.264,49.396 150.264,49.396 148.188,49.396 146.113,48.566 
	144.453,47.736 142.792,46.49 142.792,46.49 141.962,44.83 141.132,43.17 140.717,41.095 140.302,38.604 140.302,38.604 
	140.717,35.283 141.547,32.792 141.547,32.792 143.208,30.717 145.283,29.057 145.283,29.057 147.773,27.812 150.68,27.396 
	150.68,27.396 154,27.812 156.49,28.642 155.66,30.717 155.66,30.717 153.17,29.887 150.68,29.887 150.68,29.887 "/>
<path fill="#FFFFFF" d="M173.095,41.095L173.095,41.095v2.075l-0.415,1.66l-0.416,1.245l-0.83,1.245l0,0l-1.245,0.831l-1.245,0.83
	l-1.66,0.415h-1.245l0,0h-2.076l-2.075-0.83l0,0l-1.245-1.246l-1.245-1.66l0,0l-0.415-2.075l-0.415-2.49l0,0v-1.661l0.415-1.66
	l0.83-1.66l0.83-0.83l0,0l0.83-1.245l1.245-0.415l1.66-0.415l1.661-0.416l0,0l1.66,0.416l1.245,0.415l1.245,0.415l1.245,1.245l0,0
	l0.83,1.245l0.416,1.245l0.415,1.66V41.095L173.095,41.095L173.095,41.095z M161.057,41.095L161.057,41.095L161.472,44l0.83,1.66
	l0,0l1.66,1.245l2.076,0.415l0,0l2.075-0.415l1.245-1.245l0,0l1.245-1.66v-2.905l0,0v-2.491l-1.245-2.075l0,0l-1.245-1.245
	l-2.075-0.415l0,0l-2.076,0.415l-1.66,1.245l0,0l-0.83,2.075L161.057,41.095L161.057,41.095L161.057,41.095z"/>
<polygon fill="#FFFFFF" points="179.32,48.981 176.83,48.981 176.83,26.566 179.32,26.566 179.32,48.981 "/>
<polygon fill="#FFFFFF" points="186.377,48.981 183.887,48.981 183.887,26.566 186.377,26.566 186.377,48.981 "/>
<path fill="#FFFFFF" d="M198,49.396L198,49.396h-1.66l-1.66-0.415l-1.246-0.83l-1.245-0.831l0,0l-0.83-1.245l-0.83-1.245
	l-0.415-1.66v-1.66l0,0v-2.076l0.415-1.66l0.83-1.245l0.83-1.245l0,0l0.83-1.245l1.245-0.415l1.246-0.415l1.66-0.416l0,0
	l1.245,0.416h1.66l0.83,0.83l1.246,0.83l0,0l0.415,1.245l0.83,1.245l0.415,2.905v1.246h-11.208l0,0l0.415,2.49l1.245,2.075l0,0
	l1.661,0.83L198,47.32l0,0l2.49-0.415l2.491-0.83v2.491l0,0l-2.491,0.83l0,0H198L198,49.396L198,49.396z M197.17,34.868
	L197.17,34.868l-1.66,0.415l-1.246,0.83l0,0l-1.245,1.66l-0.415,2.075h8.302l0,0v-2.075l-0.83-1.66l0,0l-1.245-0.83L197.17,34.868
	L197.17,34.868L197.17,34.868z"/>
<path fill="#FFFFFF" d="M220.415,33.208v1.66h-2.905l0,0l0.415,1.66l0,0l0.415,1.66l0,0l-0.415,2.075l-1.245,1.661l0,0l-1.661,1.245
	l-2.49,0.415l0,0l-1.245-0.415l0,0l-1.245,1.245l-0.415,0.83l0,0v0.83l0.415,0.415l0,0h2.075h2.49l0,0l2.491,0.415l1.66,0.831l0,0
	L220,48.981v2.075l0,0v1.245l-0.415,0.83l-0.83,1.245l-0.83,0.415l0,0l-1.245,0.831l-1.246,0.415l-3.735,0.415l0,0l-2.49-0.415
	l-2.076-0.83l0,0l-1.245-1.246l-0.415-2.075l0,0v-1.245l0.83-1.245l0,0l0.83-0.83l1.66-0.83l0,0l-0.83-0.831l0,0l-0.415-1.245l0,0
	v-0.83l0.415-0.83l0,0l1.246-1.245l0,0l-0.831-0.415l-1.245-1.245l0,0l-0.415-1.246v-1.66l0,0v-2.075l1.245-1.66l0,0l2.076-1.245
	l2.49-0.416l0,0l2.49,0.416H220.415L220.415,33.208z M207.547,51.887L207.547,51.887l0.415,1.245l0.83,0.83l0,0l1.246,0.415h1.66
	l0,0h2.905l1.66-0.83l0,0l1.246-0.83l0.415-1.66l0,0l-0.415-0.83l-0.415-0.83l0,0l-1.246-0.415h-1.66h-2.905l0,0h-1.66l-1.246,0.83
	l0,0l-0.415,0.83L207.547,51.887L207.547,51.887L207.547,51.887z M208.792,38.188L208.792,38.188l0.416,1.66l0.83,0.831l0,0
	l0.83,0.83h1.66l0,0h1.66l0.83-0.83l0.83-0.831v-1.66l0,0v-1.66l-0.83-0.83l-0.83-0.83h-1.66l0,0h-1.66l-0.83,0.83l0,0l-0.83,0.83
	L208.792,38.188L208.792,38.188L208.792,38.188z"/>
<path fill="#FFFFFF" d="M229.962,49.396L229.962,49.396h-1.66l-1.66-0.415l-1.245-0.83l-1.245-0.831l0,0l-0.831-1.245l-0.83-1.245
	l-0.415-1.66v-1.66l0,0v-2.076l0.415-1.66l0.83-1.245l0.831-1.245l0,0l0.83-1.245l1.245-0.415l1.245-0.415l1.66-0.416l0,0
	l1.66,0.416h1.246l0.83,0.83l1.245,0.83l0,0l0.415,1.245l0.83,1.245l0.415,2.905v1.246h-11.207l0,0l0.415,2.49l1.245,2.075l0,0
	l1.66,0.83l2.075,0.415l0,0l2.491-0.415l2.49-0.83v2.491l0,0l-2.49,0.83l0,0H229.962L229.962,49.396L229.962,49.396z
	 M229.132,34.868L229.132,34.868l-1.66,0.415l-1.245,0.83l0,0l-1.245,1.66l-0.415,2.075h8.717l0,0l-0.415-2.075l-0.83-1.66l0,0
	l-1.246-0.83L229.132,34.868L229.132,34.868L229.132,34.868z"/>
<path fill="#FFFFFF" d="M260.264,41.095L260.264,41.095l-0.415,2.075l-0.415,1.66l-0.415,1.245l-0.83,1.245l0,0l-1.245,0.831
	l-1.245,0.83l-1.245,0.415h-1.661l0,0h-2.075l-1.66-0.83l0,0l-1.66-1.246l-1.245-1.66l0,0l-0.415-2.075l-0.416-2.49l0,0l0.416-1.661
	v-1.66l0.83-1.66l0.83-0.83l0,0l1.245-1.245l1.245-0.415l1.245-0.415l1.66-0.416l0,0l1.661,0.416l1.245,0.415l1.245,0.415
	l1.245,1.245l0,0l0.83,1.245l0.415,1.245l0.415,1.66L260.264,41.095L260.264,41.095L260.264,41.095z M247.812,41.095L247.812,41.095
	L248.227,44l0.83,1.66l0,0l1.66,1.245l2.075,0.415l0,0l2.076-0.415l1.66-1.245l0,0l0.83-1.66l0.415-2.905l0,0l-0.415-2.491
	l-0.83-2.075l0,0l-1.66-1.245l-2.076-0.415l0,0l-2.075,0.415l-1.66,1.245l0,0l-0.83,2.075L247.812,41.095L247.812,41.095
	L247.812,41.095z"/>
<polygon fill="#FFFFFF" points="271.057,34.868 266.905,34.868 266.905,48.981 264.415,48.981 264.415,34.868 261.51,34.868 
	261.51,34.038 264.415,33.208 264.415,32.377 264.415,32.377 264.83,29.472 265.66,27.812 267.32,26.566 269.812,26.151 
	269.812,26.151 272.717,26.981 271.887,28.642 271.887,28.642 269.396,28.227 269.396,28.227 268.566,28.642 267.736,29.057 
	267.736,29.057 266.905,30.302 266.905,31.962 266.905,33.208 271.057,33.208 271.057,34.868 "/>
<path fill="#FFFFFF" d="M294.302,48.981l-2.905-6.642h-8.302l-2.906,6.642h-2.49l8.717-21.17h2.075l8.302,21.17H294.302
	L294.302,48.981z M290.566,40.264l-2.491-6.641l0,0l-0.83-3.321l0,0l-0.83,3.321l-2.49,6.641H290.566L290.566,40.264z"/>
<path fill="#FFFFFF" d="M311.736,33.208v1.66h-2.906l0,0l0.83,1.66l0,0l0.415,1.66l0,0l-0.415,2.075l-1.245,1.661l0,0l-2.075,1.245
	l-2.491,0.415l0,0l-1.245-0.415l0,0l-1.245,1.245l-0.415,0.83l0,0v0.83l0.415,0.415l0,0h2.075h2.906l0,0l2.075,0.415l1.66,0.831l0,0
	l1.245,1.245l0.416,2.075l0,0l-0.416,1.245l-0.415,0.83l-0.415,1.245l-1.245,0.415l0,0l-0.83,0.831l-1.66,0.415l-3.321,0.415l0,0
	l-2.905-0.415l-2.075-0.83l0,0l-1.245-1.246l-0.416-2.075l0,0v-1.245l0.831-1.245l0,0l1.245-0.83l1.245-0.83l0,0l-0.83-0.831l0,0
	l-0.415-1.245l0,0v-0.83l0.415-0.83l0,0l1.66-1.245l0,0l-1.245-0.415l-0.83-1.245l0,0l-0.83-1.246v-1.66l0,0l0.415-2.075l1.245-1.66
	l0,0l1.66-1.245l2.49-0.416l0,0l2.491,0.416H311.736L311.736,33.208z M298.868,51.887L298.868,51.887l0.415,1.245l0.83,0.83l0,0
	l1.245,0.415h2.075l0,0h2.491l1.66-0.83l0,0l1.245-0.83l0.415-1.66l0,0v-0.83l-0.83-0.83l0,0l-1.245-0.415h-1.66h-2.906l0,0h-1.66
	l-0.83,0.83l0,0l-0.83,0.83L298.868,51.887L298.868,51.887L298.868,51.887z M300.528,38.188L300.528,38.188v1.66l0.83,0.831l0,0
	l1.245,0.83h1.245l0,0h1.661l1.245-0.83l0.415-0.831l0.415-1.66l0,0l-0.415-1.66l-0.415-0.83l-1.245-0.83h-1.661l0,0h-1.66
	l-0.83,0.83l0,0l-0.83,0.83V38.188L300.528,38.188L300.528,38.188z"/>
<polygon fill="#FFFFFF" points="321.698,32.792 321.698,32.792 323.773,33.208 323.358,35.283 323.358,35.283 321.698,35.283 
	321.698,35.283 319.623,35.698 318.377,36.528 318.377,36.528 317.132,38.604 316.717,40.68 316.717,48.981 314.642,48.981 
	314.642,33.208 316.302,33.208 316.717,36.113 316.717,36.113 316.717,36.113 317.962,34.868 319.208,33.623 319.208,33.623 
	320.453,33.208 321.698,32.792 321.698,32.792 "/>
<path fill="#FFFFFF" d="M325.849,29.057L325.849,29.057v-0.83l0.415-0.415l0,0l1.246-0.416l0,0l0.83,0.416l0,0l0.415,0.415v0.83l0,0
	v0.415l-0.415,0.415l0,0l-0.83,0.415l0,0l-1.246-0.415l0,0l-0.415-0.415V29.057L325.849,29.057L325.849,29.057z M328.34,48.981
	h-2.076V33.208h2.076V48.981L328.34,48.981z"/>
<polygon fill="#FFFFFF" points="339.547,49.396 339.547,49.396 337.887,49.396 336.642,48.981 335.396,48.151 334.151,47.32 
	334.151,47.32 333.32,46.075 332.905,44.83 332.49,43.17 332.49,41.095 332.49,41.095 332.49,39.434 332.905,37.773 333.32,36.113 
	334.151,35.283 334.151,35.283 335.396,34.038 336.642,33.623 337.887,33.208 339.547,32.792 339.547,32.792 342.038,33.208 
	342.038,33.208 343.698,33.623 343.283,35.698 343.283,35.698 341.208,35.283 341.208,35.283 339.547,34.868 339.547,34.868 
	337.472,35.283 335.812,36.528 334.981,38.604 334.981,41.095 334.981,41.095 334.981,44 335.812,45.66 335.812,45.66 
	337.472,46.905 339.547,47.32 339.547,47.32 341.623,47.32 343.698,46.49 343.698,48.566 343.698,48.566 341.623,49.396 
	339.547,49.396 339.547,49.396 "/>
<polygon fill="#FFFFFF" points="349.095,33.208 349.095,43.585 349.095,43.585 349.51,45.245 349.925,46.49 349.925,46.49 
	351.17,47.32 352.83,47.32 352.83,47.32 354.905,46.905 356.566,46.075 356.566,46.075 357.396,44.415 357.812,41.51 
	357.812,33.208 360.302,33.208 360.302,48.981 358.227,48.981 357.812,46.905 357.812,46.905 357.812,46.905 356.566,48.151 
	355.736,48.981 355.736,48.981 354.075,49.396 352.415,49.396 352.415,49.396 349.925,48.981 348.264,48.151 348.264,48.151 
	347.434,47.32 347.019,46.49 346.604,43.585 346.604,33.208 349.095,33.208 "/>
<polygon fill="#FFFFFF" points="367.358,48.981 364.868,48.981 364.868,26.566 367.358,26.566 367.358,48.981 "/>
<polygon fill="#FFFFFF" points="376.905,47.32 376.905,47.32 378.151,47.32 378.151,47.32 379.396,47.32 379.396,48.981 
	379.396,48.981 378.151,49.396 378.151,49.396 376.49,49.396 376.49,49.396 374.83,48.981 373.17,48.151 372.34,46.905 
	371.925,44.415 371.925,34.868 369.849,34.868 369.849,34.038 371.925,32.792 373.17,29.472 374.415,29.472 374.415,33.208 
	378.981,33.208 378.981,34.868 374.415,34.868 374.415,44.415 374.415,44.415 374.415,45.66 375.245,46.905 375.245,46.905 
	376.075,47.32 376.905,47.32 376.905,47.32 "/>
<polygon fill="#FFFFFF" points="383.962,33.208 383.962,43.585 383.962,43.585 384.377,45.245 384.792,46.49 384.792,46.49 
	386.038,47.32 387.698,47.32 387.698,47.32 389.773,46.905 391.434,46.075 391.434,46.075 392.264,44.415 392.68,41.51 
	392.68,33.208 395.17,33.208 395.17,48.981 393.095,48.981 392.68,46.905 392.68,46.905 392.68,46.905 391.849,48.151 
	390.604,48.981 390.604,48.981 388.943,49.396 387.283,49.396 387.283,49.396 384.792,48.981 383.132,48.151 383.132,48.151 
	382.302,47.32 381.887,46.49 381.472,43.585 381.472,33.208 383.962,33.208 "/>
<polygon fill="#FFFFFF" points="406.792,32.792 406.792,32.792 408.868,33.208 408.453,35.283 408.453,35.283 406.792,35.283 
	406.792,35.283 405.132,35.698 403.472,36.528 403.472,36.528 402.642,38.604 402.227,40.68 402.227,48.981 399.736,48.981 
	399.736,33.208 401.812,33.208 401.812,36.113 402.227,36.113 402.227,36.113 403.057,34.868 404.302,33.623 404.302,33.623 
	405.547,33.208 406.792,32.792 406.792,32.792 "/>
<path fill="#FFFFFF" d="M418,49.396L418,49.396h-1.66l-1.245-0.415l-1.661-0.83l-0.83-0.831l0,0l-0.83-1.245l-0.83-1.245
	l-0.415-1.66v-1.66l0,0v-2.076l0.415-1.66l0.415-1.245l0.83-1.245l0,0l1.245-1.245l1.246-0.415l1.245-0.415l1.66-0.416l0,0
	l1.245,0.416h1.245l1.245,0.83l0.831,0.83l0,0l0.83,1.245l0.415,1.245l0.415,2.905v1.246h-10.793l0,0l0.415,2.49l0.83,2.075l0,0
	l1.661,0.83L418,47.32l0,0l2.905-0.415l2.491-0.83v2.491l0,0l-2.491,0.83l0,0H418L418,49.396L418,49.396z M417.585,34.868
	L417.585,34.868l-2.075,0.415l-1.246,0.83l0,0l-0.83,1.66l-0.415,2.075h8.302l0,0l-0.415-2.075l-0.415-1.66l0,0l-1.245-0.83
	L417.585,34.868L417.585,34.868L417.585,34.868z"/>
<path fill="#FFFFFF" d="M140.302,82.188L140.302,82.188v-1.66l0.83-1.66l0,0l1.66-1.245l2.076-1.661l0,0l-1.66-2.075l0,0
	l-0.831-1.66l0,0v-1.245l0,0l0.415-2.076l0.831-1.66l0,0l1.66-0.83l2.49-0.415l0,0l2.075,0.415l1.661,0.83l0,0l0.83,1.66
	l0.415,1.661l0,0l-0.415,1.66l-0.415,1.245l0,0l-1.661,1.66l-1.66,1.245l5.812,5.812l0,0l1.245-2.49l0,0l0.83-2.49h2.491l0,0
	l-1.245,3.735l-1.661,2.49L160.227,88h-3.321l-2.49-2.905l0,0l-1.66,1.245l-2.075,1.245l0,0L149.019,88h-2.075l0,0l-2.905-0.415
	l-1.246-0.415l-0.83-0.415l0,0l-0.83-1.245l-0.415-0.83L140.302,82.188L140.302,82.188L140.302,82.188z M146.943,85.925
	L146.943,85.925h1.66l1.66-0.415l1.246-0.83l1.245-0.831l-6.227-6.226l0,0l-2.49,1.66l0,0l-0.83,1.245l0,0l-0.416,1.66l0,0
	l0.416,1.66l0.83,1.246l0,0l1.245,0.415L146.943,85.925L146.943,85.925L146.943,85.925z M144.453,70.566L144.453,70.566l0.415,1.245
	l0.415,0.83l0,0l1.66,2.075l0,0l1.66-0.83l0.83-1.245l0,0l0.83-0.83v-1.245l0,0v-0.83l-0.83-0.831l0,0l-0.83-0.415l-1.245-0.415l0,0
	l-0.83,0.415l-1.245,0.415l0,0l-0.415,0.831L144.453,70.566L144.453,70.566L144.453,70.566z"/>
<polygon fill="#FFFFFF" points="169.773,88 169.773,66.415 172.264,66.415 172.264,85.51 181.812,85.51 181.812,88 169.773,88 "/>
<path fill="#FFFFFF" d="M184.302,67.66L184.302,67.66v-0.83l0.415-0.415l0,0l0.83-0.415l0,0l1.245,0.415l0,0v0.415l0.416,0.83l0,0
	l-0.416,0.415v0.83l0,0h-1.245l0,0h-0.83l0,0l-0.415-0.83V67.66L184.302,67.66L184.302,67.66z M186.792,88h-2.49V71.812h2.49V88
	L186.792,88z"/>
<polygon fill="#FFFFFF" points="198.83,73.887 194.68,73.887 194.68,88 192.188,88 192.188,73.887 189.283,73.887 189.283,72.642 
	192.188,71.812 192.188,70.981 192.188,70.981 192.604,68.075 193.434,66.415 195.095,65.17 197.17,64.755 197.17,64.755 
	200.49,65.585 199.66,67.245 199.66,67.245 197.17,66.83 197.17,66.83 195.925,67.245 195.095,67.66 195.095,67.66 194.68,68.905 
	194.68,70.981 194.68,71.812 198.83,71.812 198.83,73.887 "/>
<path fill="#FFFFFF" d="M207.962,88L207.962,88h-2.075l-1.245-0.415l-1.245-0.83l-1.245-0.83l0,0l-0.831-1.245l-0.83-1.246
	l-0.415-1.66v-1.66l0,0v-2.075l0.415-1.661l0.83-1.245l0.831-1.245l0,0l0.83-1.245l1.245-0.415l1.245-0.415l1.66-0.415l0,0
	l1.245,0.415l1.661,0.415l0.83,0.415l0.83,0.83l0,0l0.83,1.245l0.83,1.245l0.415,2.906v1.245h-11.207l0,0l0.415,2.49l1.245,2.076
	l0,0l1.66,0.83l2.075,0.415l0,0h2.491l2.49-0.83v2.075l0,0l-2.49,0.83l0,0H207.962L207.962,88L207.962,88z M207.132,73.472
	L207.132,73.472l-1.66,0.415l-1.245,0.83l0,0l-1.245,1.66l-0.415,2.076h8.302l0,0v-2.076l-0.83-1.66l0,0l-1.246-0.83L207.132,73.472
	L207.132,73.472L207.132,73.472z"/>
<polygon fill="#FFFFFF" points="236.604,82.188 236.604,82.188 236.604,83.434 236.188,84.68 235.358,85.51 234.528,86.34 
	234.528,86.34 233.698,87.17 232.038,87.585 229.132,88 229.132,88 225.812,88 223.32,87.17 223.32,84.68 223.32,84.68 
	226.227,85.51 226.227,85.51 229.132,85.925 229.132,85.925 231.208,85.51 232.868,85.095 232.868,85.095 233.698,83.849 
	234.113,82.188 234.113,82.188 234.113,81.358 233.698,80.528 233.698,80.528 232.453,79.283 232.453,79.283 229.132,78.038 
	229.132,78.038 226.642,76.792 224.981,75.547 224.981,75.547 223.736,73.887 223.736,71.396 223.736,71.396 223.736,70.566 
	224.151,69.32 224.566,68.49 225.396,67.66 225.396,67.66 227.472,66.415 230.377,66 230.377,66 233.283,66.415 236.188,67.245 
	235.358,69.32 235.358,69.32 232.868,68.49 230.377,68.49 230.377,68.49 228.302,68.49 227.057,69.32 227.057,69.32 226.227,70.151 
	226.227,71.396 226.227,71.396 226.642,73.472 226.642,73.472 227.887,74.717 227.887,74.717 230.792,75.962 230.792,75.962 
	233.698,77.208 235.358,78.453 235.358,78.453 236.188,80.113 236.604,82.188 236.604,82.188 "/>
<polygon fill="#FFFFFF" points="246.566,88 246.566,88 244.905,88 243.245,87.585 242,86.755 241.17,85.925 241.17,85.925 
	240.34,84.68 239.51,83.434 239.095,81.773 239.095,80.113 239.095,80.113 239.095,78.038 239.51,76.377 240.34,75.132 
	241.17,73.887 241.17,73.887 242,72.642 243.245,72.227 244.905,71.812 246.566,71.396 246.566,71.396 249.057,71.812 
	249.057,71.812 250.717,72.227 249.887,74.302 249.887,74.302 248.227,73.887 248.227,73.887 246.566,73.472 246.566,73.472 
	244.49,73.887 242.83,75.132 242,77.208 241.585,79.698 241.585,79.698 242,82.604 242.83,84.264 242.83,84.264 244.49,85.51 
	246.566,85.925 246.566,85.925 248.227,85.925 250.302,85.095 250.302,87.17 250.302,87.17 248.642,88 246.566,88 246.566,88 "/>
<path fill="#FFFFFF" d="M253.623,67.66L253.623,67.66v-0.83l0.415-0.415l0,0l0.83-0.415l0,0l1.245,0.415l0,0l0.415,0.415v0.83l0,0
	v0.415l-0.415,0.83l0,0h-1.245l0,0h-0.83l0,0l-0.415-0.83V67.66L253.623,67.66L253.623,67.66z M256.113,88h-2.49V71.812h2.49V88
	L256.113,88z"/>
<path fill="#FFFFFF" d="M267.736,88L267.736,88h-1.661l-1.66-0.415l-1.245-0.83l-1.245-0.83l0,0l-0.83-1.245l-0.415-1.246
	l-0.416-1.66l-0.415-1.66l0,0l0.415-2.075v-1.661l0.831-1.245l0.83-1.245l0,0l0.83-1.245L264,72.227l1.66-0.415l1.245-0.415l0,0
	l1.661,0.415l1.245,0.415l0.83,0.415l1.245,0.83l0,0l0.83,1.245l0.415,1.245l0.415,2.906v1.245H262.34l0,0l0.415,2.49L264,84.68l0,0
	l1.66,0.83l2.076,0.415l0,0h2.49l2.49-0.83v2.075l0,0l-2.49,0.83l0,0H267.736L267.736,88L267.736,88z M266.905,73.472
	L266.905,73.472l-1.66,0.415L264,74.717l0,0l-0.83,1.66l-0.83,2.076h8.717l0,0l-0.415-2.076l-0.83-1.66l0,0l-1.245-0.83
	L266.905,73.472L266.905,73.472L266.905,73.472z"/>
<polygon fill="#FFFFFF" points="288.075,88 288.075,77.623 288.075,77.623 287.66,75.962 287.245,74.717 287.245,74.717 286,73.887 
	284.34,73.472 284.34,73.472 282.264,73.887 280.604,75.132 280.604,75.132 279.773,76.792 279.358,79.283 279.358,88 276.868,88 
	276.868,71.812 278.943,71.812 279.358,73.887 279.358,73.887 279.358,73.887 280.604,73.057 281.434,72.227 281.434,72.227 
	283.095,71.812 284.755,71.396 284.755,71.396 287.245,71.812 288.905,73.057 288.905,73.057 289.736,73.887 290.151,74.717 
	290.566,77.208 290.566,88 288.075,88 "/>
<polygon fill="#FFFFFF" points="301.358,88 301.358,88 299.698,88 298.038,87.585 296.792,86.755 295.962,85.925 295.962,85.925 
	295.132,84.68 294.717,83.434 294.302,81.773 293.887,80.113 293.887,80.113 294.302,78.038 294.717,76.377 295.132,75.132 
	295.962,73.887 295.962,73.887 297.208,72.642 298.453,72.227 299.698,71.812 301.358,71.396 301.358,71.396 303.849,71.812 
	303.849,71.812 305.51,72.227 304.68,74.302 304.68,74.302 303.019,73.887 303.019,73.887 301.358,73.472 301.358,73.472 
	299.283,73.887 297.623,75.132 296.792,77.208 296.377,79.698 296.377,79.698 296.792,82.604 297.623,84.264 297.623,84.264 
	299.283,85.51 301.358,85.925 301.358,85.925 303.434,85.925 305.51,85.095 305.51,87.17 305.51,87.17 303.434,88 301.358,88 
	301.358,88 "/>
<path fill="#FFFFFF" d="M315.472,88L315.472,88h-1.66l-1.66-0.415l-1.246-0.83l-1.245-0.83l0,0l-0.83-1.245l-0.415-1.246L308,81.773
	l-0.415-1.66l0,0L308,78.038l0.415-1.661l0.415-1.245l0.83-1.245l0,0l1.245-1.245l0.831-0.415l1.66-0.415l1.245-0.415l0,0
	l1.66,0.415l1.245,0.415l0.83,0.415l1.246,0.83l0,0l0.83,1.245l0.415,1.245l0.415,2.906v1.245h-11.208l0,0l0.415,2.49l1.246,2.076
	l0,0l1.66,0.83l2.075,0.415l0,0h2.49l2.491-0.83v2.075l0,0L318.377,88l0,0H315.472L315.472,88L315.472,88z M314.642,73.472
	L314.642,73.472l-1.66,0.415l-1.245,0.83l0,0l-0.831,1.66l-0.415,2.076h8.302l0,0l-0.415-2.076l-0.83-1.66l0,0l-1.245-0.83
	L314.642,73.472L314.642,73.472L314.642,73.472z"/>
<polygon fill="#FFFFFF" points="334.981,83.434 334.981,83.434 334.566,85.51 333.32,86.755 333.32,86.755 331.66,88 328.755,88 
	328.755,88 325.849,88 323.773,87.17 323.773,84.68 323.773,84.68 326.264,85.925 326.264,85.925 328.755,85.925 328.755,85.925 
	330.415,85.925 331.66,85.51 331.66,85.51 332.49,84.68 332.905,83.849 332.905,83.849 332.49,82.604 332.075,82.188 
	332.075,82.188 328.755,80.528 328.755,80.528 325.849,78.868 325.849,78.868 324.188,77.623 324.188,77.623 323.773,76.792 
	323.773,75.547 323.773,75.547 324.188,73.887 325.434,72.642 325.434,72.642 327.51,71.812 329.585,71.396 329.585,71.396 
	332.49,71.812 334.981,72.642 334.151,74.717 334.151,74.717 331.66,73.887 329.585,73.472 329.585,73.472 327.925,73.887 
	327.095,74.302 327.095,74.302 326.264,74.717 326.264,75.547 326.264,75.547 326.264,76.792 326.264,76.792 327.51,77.623 
	327.51,77.623 330.415,78.868 330.415,78.868 332.905,79.698 334.151,80.943 334.151,80.943 334.981,82.188 334.981,83.434 
	334.981,83.434 "/>
</svg>
