<?xml version="1.0" encoding="utf-8"?>
<!-- Generator: Adobe Illustrator 16.0.4, SVG Export Plug-In . SVG Version: 6.00 Build 0)  -->
<!DOCTYPE svg PUBLIC "-//W3C//DTD SVG 1.1//EN" "http://www.w3.org/Graphics/SVG/1.1/DTD/svg11.dtd">
<svg version="1.1" id="Layer_1" xmlns="http://www.w3.org/2000/svg" xmlns:xlink="http://www.w3.org/1999/xlink" x="0px" y="0px"
	 width="50px" height="49px" viewBox="0 0 50 49" enable-background="new 0 0 50 49" xml:space="preserve">
<g>
	<path fill="#FFFFFF" d="M18.802,36.602C8.986,36.602,1,28.617,1,18.801C1,8.986,8.986,1,18.802,1
		c9.816,0,17.801,7.986,17.801,17.801C36.603,28.617,28.618,36.602,18.802,36.602z M18.802,8.973c-5.419,0-9.829,4.409-9.829,9.828
		c0,5.419,4.41,9.829,9.829,9.829s9.829-4.41,9.829-9.829C28.631,13.382,24.221,8.973,18.802,8.973z"/>
</g>
<g>
	<path fill="#FFFFFF" d="M45.014,47.674c-1.021,0-2.04-0.389-2.818-1.167L26.388,30.7c-1.557-1.556-1.557-4.081,0-5.637
		c1.557-1.557,4.08-1.557,5.638,0l15.807,15.806c1.557,1.557,1.557,4.081,0,5.638C47.055,47.285,46.033,47.674,45.014,47.674z"/>
</g>
</svg>
